<svg width="20" height="20" viewBox="0 0 20 20" fill="none" xmlns="http://www.w3.org/2000/svg">
<path d="M14.4176 8.75015H19.3326C19.392 8.75017 19.4501 8.76711 19.5002 8.79899C19.5503 8.83086 19.5903 8.87635 19.6155 8.93012C19.6407 8.9839 19.65 9.04373 19.6424 9.10263C19.6348 9.16152 19.6106 9.21703 19.5726 9.26265L17.1151 12.2127C17.0858 12.2478 17.0491 12.2761 17.0076 12.2955C16.9661 12.3149 16.9209 12.325 16.8751 12.325C16.8293 12.325 16.7841 12.3149 16.7426 12.2955C16.7011 12.2761 16.6644 12.2478 16.6351 12.2127L14.1776 9.26265C14.1396 9.21703 14.1154 9.16152 14.1078 9.10263C14.1002 9.04373 14.1095 8.9839 14.1347 8.93012C14.1599 8.87635 14.1999 8.83086 14.25 8.79899C14.3001 8.76711 14.3582 8.75017 14.4176 8.75015V8.75015ZM0.667608 11.2502H5.58261C5.64199 11.2501 5.70013 11.2332 5.75023 11.2013C5.80033 11.1694 5.84031 11.124 5.8655 11.0702C5.89068 11.0164 5.90002 10.9566 5.89242 10.8977C5.88483 10.8388 5.86061 10.7833 5.82261 10.7377L3.36511 7.78765C3.33578 7.75248 3.29908 7.72419 3.25761 7.70477C3.21613 7.68536 3.1709 7.67529 3.12511 7.67529C3.07931 7.67529 3.03408 7.68536 2.99261 7.70477C2.95113 7.72419 2.91444 7.75248 2.88511 7.78765L0.427608 10.7377C0.389605 10.7833 0.365388 10.8388 0.357792 10.8977C0.350196 10.9566 0.359537 11.0164 0.384719 11.0702C0.409902 11.124 0.449884 11.1694 0.499984 11.2013C0.550084 11.2332 0.608228 11.2501 0.667608 11.2502V11.2502Z" fill="#28A8EA"/>
<path fill-rule="evenodd" clip-rule="evenodd" d="M10 3.75017C8.06001 3.75017 6.32501 4.63392 5.17876 6.02267C5.12758 6.08901 5.06357 6.14438 4.99056 6.18549C4.91755 6.2266 4.83701 6.25261 4.75375 6.26197C4.67048 6.27134 4.58618 6.26386 4.50586 6.23999C4.42554 6.21612 4.35084 6.17634 4.28621 6.12302C4.22157 6.0697 4.16831 6.00393 4.1296 5.92961C4.0909 5.8553 4.06753 5.77396 4.06088 5.69043C4.05424 5.6069 4.06446 5.52289 4.09094 5.44339C4.11742 5.3639 4.15961 5.29053 4.21501 5.22767C5.13025 4.11958 6.3445 3.29768 7.71334 2.85974C9.08218 2.42179 10.548 2.38623 11.9365 2.75728C13.3249 3.12833 14.5776 3.89037 15.5455 4.95278C16.5134 6.01518 17.1558 7.33323 17.3963 8.75017H16.125C15.8364 7.33868 15.0692 6.07016 13.9532 5.1591C12.8371 4.24804 11.4407 3.75035 10 3.75017V3.75017ZM3.87501 11.2502C4.11165 12.4059 4.67045 13.4712 5.48686 14.3228C6.30326 15.1745 7.34396 15.7778 8.48871 16.063C9.63347 16.3483 10.8356 16.3038 11.9561 15.9348C13.0767 15.5658 14.07 14.8873 14.8213 13.9777C14.8724 13.9113 14.9364 13.856 15.0095 13.8148C15.0825 13.7737 15.163 13.7477 15.2463 13.7384C15.3295 13.729 15.4138 13.7365 15.4942 13.7603C15.5745 13.7842 15.6492 13.824 15.7138 13.8773C15.7785 13.9306 15.8317 13.9964 15.8704 14.0707C15.9091 14.145 15.9325 14.2264 15.9391 14.3099C15.9458 14.3934 15.9356 14.4774 15.9091 14.5569C15.8826 14.6364 15.8404 14.7098 15.785 14.7727C14.8698 15.8808 13.6555 16.7027 12.2867 17.1406C10.9178 17.5785 9.45201 17.6141 8.06354 17.2431C6.67507 16.872 5.42239 16.11 4.4545 15.0476C3.4866 13.9852 2.84422 12.6671 2.60376 11.2502H3.87501Z" fill="#28A8EA"/>
</svg>
