<svg width="29" height="29" viewBox="0 0 29 29" fill="none" xmlns="http://www.w3.org/2000/svg">
<path fill-rule="evenodd" clip-rule="evenodd" d="M1.8125 14.5002C1.8125 14.2598 1.90798 14.0293 2.07793 13.8594C2.24789 13.6894 2.4784 13.5939 2.71875 13.5939H24.0936L18.3896 7.89179C18.2195 7.72162 18.1239 7.49082 18.1239 7.25017C18.1239 7.00951 18.2195 6.77871 18.3896 6.60854C18.5598 6.43837 18.7906 6.34277 19.0312 6.34277C19.2719 6.34277 19.5027 6.43837 19.6729 6.60854L26.9229 13.8585C27.0073 13.9427 27.0742 14.0427 27.1199 14.1528C27.1656 14.2629 27.1891 14.381 27.1891 14.5002C27.1891 14.6194 27.1656 14.7374 27.1199 14.8475C27.0742 14.9576 27.0073 15.0576 26.9229 15.1418L19.6729 22.3918C19.5027 22.562 19.2719 22.6576 19.0312 22.6576C18.7906 22.6576 18.5598 22.562 18.3896 22.3918C18.2195 22.2216 18.1239 21.9908 18.1239 21.7502C18.1239 21.5095 18.2195 21.2787 18.3896 21.1085L24.0936 15.4064H2.71875C2.4784 15.4064 2.24789 15.3109 2.07793 15.141C1.90798 14.971 1.8125 14.7405 1.8125 14.5002V14.5002Z" fill="#2B9EDA"/>
</svg>
