<svg width="32" height="32" viewBox="0 0 32 32" fill="none" xmlns="http://www.w3.org/2000/svg">
<path d="M16.42 26.0005C20.632 26.0005 23.244 23.8265 23.244 20.3545C23.244 17.7425 21.276 15.7885 18.596 15.5825V15.4725C19.6224 15.3179 20.5597 14.8017 21.2389 14.0169C21.9181 13.2321 22.2944 12.2303 22.3 11.1925C22.3 8.17246 19.976 6.27246 16.272 6.27246H7.68604V26.0005H16.42ZM11.816 9.34846H15.208C17.134 9.34846 18.242 10.2505 18.242 11.8365C18.242 13.5045 16.984 14.4765 14.782 14.4765H11.816V9.34646V9.34846ZM11.816 22.9245V17.1965H15.276C17.71 17.1965 19.036 18.1805 19.036 20.0265C19.036 21.9125 17.75 22.9245 15.372 22.9245H11.814H11.816Z" fill="#989898"/>
</svg>
