<svg width="32" height="32" viewBox="0 0 32 32" fill="none" xmlns="http://www.w3.org/2000/svg">
<path d="M16.42 26C20.632 26 23.244 23.826 23.244 20.354C23.244 17.742 21.276 15.788 18.596 15.582V15.472C19.6224 15.3174 20.5597 14.8012 21.2389 14.0164C21.9181 13.2316 22.2944 12.2299 22.3 11.192C22.3 8.17197 19.976 6.27197 16.272 6.27197H7.68604V26H16.42ZM11.816 9.34797H15.208C17.134 9.34797 18.242 10.25 18.242 11.836C18.242 13.504 16.984 14.476 14.782 14.476H11.816V9.34597V9.34797ZM11.816 22.924V17.196H15.276C17.71 17.196 19.036 18.18 19.036 20.026C19.036 21.912 17.75 22.924 15.372 22.924H11.814H11.816Z" fill="#989898"/>
</svg>
