<svg width="7" height="9" viewBox="0 0 7 9" fill="none" xmlns="http://www.w3.org/2000/svg">
<path d="M1.06911 0.487183H5.7284C5.9398 0.487183 6.14255 0.571164 6.29204 0.720651C6.44152 0.870137 6.52551 1.07288 6.52551 1.28429V5.564C6.52551 5.95031 6.44942 6.33284 6.30158 6.68974C6.15375 7.04665 5.93706 7.37094 5.6639 7.6441C5.39074 7.91726 5.06644 8.13395 4.70954 8.28179C4.35264 8.42962 3.97011 8.50571 3.5838 8.50571V8.50571C3.19749 8.50571 2.81496 8.42962 2.45805 8.28179C2.10115 8.13395 1.77686 7.91726 1.5037 7.6441C1.23053 7.37094 1.01385 7.04665 0.866014 6.68974C0.718179 6.33284 0.64209 5.95031 0.64209 5.564V0.904716C0.64209 0.849885 0.65289 0.79559 0.673873 0.744933C0.694856 0.694276 0.72561 0.648247 0.764381 0.609476C0.803153 0.570704 0.849181 0.539948 0.899838 0.518965C0.950496 0.497982 1.00479 0.487183 1.05962 0.487183H1.06911Z" fill="#5059C9"/>
</svg>
