<svg width="7" height="9" viewBox="0 0 7 9" fill="none" xmlns="http://www.w3.org/2000/svg">
<path d="M1.06911 0.488281H5.7284C5.9398 0.488281 6.14255 0.572262 6.29204 0.721749C6.44152 0.871236 6.52551 1.07398 6.52551 1.28539V5.5651C6.52551 5.95141 6.44942 6.33394 6.30158 6.69084C6.15375 7.04775 5.93706 7.37204 5.6639 7.6452C5.39074 7.91836 5.06644 8.13505 4.70954 8.28288C4.35264 8.43072 3.97011 8.50681 3.5838 8.50681V8.50681C3.19749 8.50681 2.81496 8.43072 2.45805 8.28288C2.10115 8.13505 1.77686 7.91836 1.5037 7.6452C1.23053 7.37204 1.01385 7.04775 0.866014 6.69084C0.718179 6.33394 0.64209 5.95141 0.64209 5.5651V0.905814C0.64209 0.850983 0.65289 0.796689 0.673873 0.746032C0.694856 0.695374 0.72561 0.649346 0.764381 0.610575C0.803153 0.571803 0.849181 0.541047 0.899838 0.520064C0.950496 0.499081 1.00479 0.488281 1.05962 0.488281H1.06911Z" fill="#5059C9"/>
</svg>
