<svg width="8" height="11" viewBox="0 0 8 11" fill="none" xmlns="http://www.w3.org/2000/svg">
<path d="M0.774413 0.1875H6.91191C7.19039 0.1875 7.45746 0.298125 7.65437 0.495038C7.85129 0.691952 7.96191 0.959023 7.96191 1.2375V6.875C7.96191 7.38387 7.86168 7.88776 7.66695 8.3579C7.47221 8.82803 7.18678 9.25521 6.82695 9.61504C6.46712 9.97486 6.03995 10.2603 5.56981 10.455C5.09967 10.6498 4.59578 10.75 4.08691 10.75V10.75C3.57804 10.75 3.07415 10.6498 2.60402 10.455C2.13388 10.2603 1.7067 9.97486 1.34687 9.61504C0.987048 9.25521 0.701618 8.82803 0.506881 8.3579C0.312144 7.88776 0.211914 7.38387 0.211914 6.875V0.737501C0.211914 0.665274 0.22614 0.593754 0.25378 0.527025C0.28142 0.460296 0.321932 0.399664 0.373004 0.348592C0.424076 0.29752 0.484707 0.257006 0.551436 0.229366C0.618165 0.201726 0.689685 0.1875 0.761912 0.1875H0.774413Z" fill="#5059C9"/>
</svg>
