<svg width="8" height="11" viewBox="0 0 8 11" fill="none" xmlns="http://www.w3.org/2000/svg">
<path d="M0.775023 0.1875H6.91252C7.191 0.1875 7.45807 0.298125 7.65498 0.495038C7.8519 0.691952 7.96252 0.959023 7.96252 1.2375V6.875C7.96252 7.38387 7.86229 7.88776 7.66756 8.3579C7.47282 8.82803 7.18739 9.25521 6.82756 9.61504C6.46773 9.97486 6.04056 10.2603 5.57042 10.455C5.10028 10.6498 4.59639 10.75 4.08752 10.75V10.75C3.57865 10.75 3.07476 10.6498 2.60463 10.455C2.13449 10.2603 1.70731 9.97486 1.34748 9.61504C0.987658 9.25521 0.702228 8.82803 0.507491 8.3579C0.312754 7.88776 0.212524 7.38387 0.212524 6.875V0.737501C0.212524 0.665274 0.226751 0.593754 0.254391 0.527025C0.282031 0.460296 0.322542 0.399664 0.373614 0.348592C0.424687 0.29752 0.485318 0.257006 0.552047 0.229366C0.618776 0.201726 0.690296 0.1875 0.762523 0.1875H0.775023Z" fill="#5059C9"/>
</svg>
