<svg width="8" height="11" viewBox="0 0 8 11" fill="none" xmlns="http://www.w3.org/2000/svg">
<path d="M0.775145 0.1875H6.91264C7.19112 0.1875 7.45819 0.298125 7.65511 0.495038C7.85202 0.691952 7.96264 0.959023 7.96264 1.2375V6.875C7.96264 7.38387 7.86241 7.88776 7.66768 8.3579C7.47294 8.82803 7.18751 9.25521 6.82768 9.61504C6.46786 9.97486 6.04068 10.2603 5.57054 10.455C5.10041 10.6498 4.59652 10.75 4.08764 10.75C3.57877 10.75 3.07488 10.6498 2.60475 10.455C2.13461 10.2603 1.70743 9.97486 1.34761 9.61504C0.98778 9.25521 0.70235 8.82803 0.507613 8.3579C0.312876 7.88776 0.212646 7.38387 0.212646 6.875V0.737501C0.212646 0.665274 0.226873 0.593754 0.254513 0.527025C0.282153 0.460296 0.322664 0.399664 0.373736 0.348592C0.424809 0.29752 0.48544 0.257006 0.552169 0.229366C0.618898 0.201726 0.690418 0.1875 0.762645 0.1875H0.775145Z" fill="#5059C9"/>
</svg>
