<svg width="34" height="32" viewBox="0 0 34 32" fill="none" xmlns="http://www.w3.org/2000/svg">
<path d="M25.1419 21.7856L22.4126 16.7466V11.5C22.4126 6.26169 18.1509 2 12.9126 2C7.67424 2 3.41256 6.26169 3.41256 11.5V16.7466L0.683056 21.7855C0.559276 22.014 0.496977 22.2707 0.502264 22.5305C0.50755 22.7903 0.580242 23.0443 0.713214 23.2676C0.846187 23.4908 1.03488 23.6757 1.2608 23.8041C1.48673 23.9325 1.74213 24 2.00199 24H7.43543C7.42028 24.1662 7.41262 24.3331 7.41249 24.5C7.41249 25.9587 7.99196 27.3576 9.02341 28.3891C10.0549 29.4205 11.4538 30 12.9125 30C14.3712 30 15.7701 29.4205 16.8016 28.3891C17.833 27.3576 18.4125 25.9587 18.4125 24.5C18.4125 24.3312 18.4044 24.1647 18.3896 24H23.823C24.0828 24 24.3382 23.9324 24.5641 23.804C24.79 23.6756 24.9786 23.4907 25.1116 23.2675C25.2445 23.0443 25.3172 22.7903 25.3225 22.5305C25.3278 22.2707 25.2655 22.014 25.1417 21.7856H25.1419ZM16.4126 24.5C16.4129 24.981 16.3142 25.4569 16.1225 25.898C15.9307 26.3391 15.6501 26.736 15.2982 27.0638C14.9463 27.3917 14.5305 27.6435 14.0769 27.8035C13.6233 27.9635 13.1416 28.0283 12.6619 27.9939C12.1821 27.9594 11.7146 27.8265 11.2886 27.6033C10.8625 27.3801 10.487 27.0715 10.1855 26.6967C9.88401 26.322 9.66299 25.8891 9.53625 25.4251C9.40951 24.9611 9.37976 24.476 9.44887 24H16.3762C16.4002 24.1656 16.4124 24.3327 16.4126 24.5V24.5ZM2.84143 22L5.41256 17.2534V11.5C5.41256 9.51088 6.20273 7.60322 7.60926 6.1967C9.01578 4.79018 10.9234 4 12.9126 4C14.9017 4 16.8093 4.79018 18.2159 6.1967C19.6224 7.60322 20.4126 9.51088 20.4126 11.5V17.2534L22.9836 22H2.84143Z" fill="#605E5C"/>
</svg>
