<svg width="19" height="11" viewBox="0 0 19 11" fill="none" xmlns="http://www.w3.org/2000/svg">
<path d="M18.2501 0.4425L10.3451 5.25L10.2326 5.3175C10.0687 5.39603 9.88932 5.43702 9.70757 5.4375C9.52344 5.43689 9.34167 5.39593 9.17507 5.3175C9.13597 5.29779 9.09836 5.27523 9.06257 5.25L0.512572 0.449999C0.43187 0.406144 0.364731 0.341011 0.318451 0.261675C0.272172 0.182339 0.248522 0.0918349 0.250072 0V9.66C0.251048 9.8133 0.282336 9.96489 0.342135 10.1061C0.401934 10.2472 0.489062 10.3751 0.598504 10.4825C0.707946 10.5899 0.837541 10.6745 0.979827 10.7316C1.12211 10.7886 1.27428 10.817 1.42757 10.815H17.3126C17.4686 10.8192 17.6239 10.7914 17.7688 10.7331C17.9136 10.6749 18.045 10.5875 18.1547 10.4764C18.2644 10.3653 18.3501 10.2328 18.4065 10.0872C18.4629 9.94163 18.4888 9.78601 18.4826 9.63V0C18.4858 0.0876319 18.466 0.174582 18.4252 0.252211C18.3845 0.329839 18.3241 0.395442 18.2501 0.4425Z" fill="url(#paint0_linear_205_17826)"/>
<defs>
<linearGradient id="paint0_linear_205_17826" x1="15.6176" y1="-2.415" x2="3.05507" y2="12.555" gradientUnits="userSpaceOnUse">
<stop stop-color="#35B8F1"/>
<stop offset="0.9" stop-color="#0F78D1"/>
</linearGradient>
</defs>
</svg>
