<svg width="19" height="11" viewBox="0 0 19 11" fill="none" xmlns="http://www.w3.org/2000/svg">
<path d="M18.2498 0.4425L10.3448 5.25L10.2323 5.3175C10.0684 5.39603 9.88907 5.43702 9.70733 5.4375C9.52319 5.43689 9.34143 5.39593 9.17483 5.3175C9.13572 5.29779 9.09812 5.27523 9.06233 5.25L0.512328 0.449999C0.431626 0.406144 0.364487 0.341011 0.318207 0.261675C0.271928 0.182339 0.248278 0.0918349 0.249827 0V9.66C0.250804 9.8133 0.282092 9.96489 0.341891 10.1061C0.40169 10.2472 0.488818 10.3751 0.59826 10.4825C0.707702 10.5899 0.837296 10.6745 0.979583 10.7316C1.12187 10.7886 1.27404 10.817 1.42733 10.815H17.3123C17.4684 10.8192 17.6237 10.7914 17.7685 10.7331C17.9134 10.6749 18.0448 10.5875 18.1545 10.4764C18.2641 10.3653 18.3499 10.2328 18.4063 10.0872C18.4627 9.94163 18.4885 9.78601 18.4823 9.63V0C18.4856 0.0876319 18.4658 0.174582 18.425 0.252211C18.3842 0.329839 18.3238 0.395442 18.2498 0.4425Z" fill="url(#paint0_linear_133_17222)"/>
<defs>
<linearGradient id="paint0_linear_133_17222" x1="15.6173" y1="-2.415" x2="3.05483" y2="12.555" gradientUnits="userSpaceOnUse">
<stop stop-color="#35B8F1"/>
<stop offset="0.9" stop-color="#0F78D1"/>
</linearGradient>
</defs>
</svg>
