<svg width="19" height="11" viewBox="0 0 19 11" fill="none" xmlns="http://www.w3.org/2000/svg">
<path d="M18.25 0.4425L10.345 5.25L10.2325 5.3175C10.0686 5.39603 9.88926 5.43702 9.70751 5.4375C9.52337 5.43689 9.34161 5.39593 9.17501 5.3175C9.13591 5.29779 9.0983 5.27523 9.06251 5.25L0.512511 0.449999C0.431809 0.406144 0.36467 0.341011 0.31839 0.261675C0.272111 0.182339 0.248461 0.0918349 0.250011 0V9.66C0.250987 9.8133 0.282275 9.96489 0.342074 10.1061C0.401873 10.2472 0.489001 10.3751 0.598443 10.4825C0.707885 10.5899 0.837479 10.6745 0.979766 10.7316C1.12205 10.7886 1.27422 10.817 1.42751 10.815H17.3125C17.4686 10.8192 17.6239 10.7914 17.7687 10.7331C17.9136 10.6749 18.0449 10.5875 18.1546 10.4764C18.2643 10.3653 18.35 10.2328 18.4064 10.0872C18.4628 9.94163 18.4887 9.78601 18.4825 9.63V0C18.4857 0.0876319 18.466 0.174582 18.4252 0.252211C18.3844 0.329839 18.324 0.395442 18.25 0.4425Z" fill="url(#paint0_linear_146_16588)"/>
<defs>
<linearGradient id="paint0_linear_146_16588" x1="15.6175" y1="-2.415" x2="3.05501" y2="12.555" gradientUnits="userSpaceOnUse">
<stop stop-color="#35B8F1"/>
<stop offset="0.9" stop-color="#0F78D1"/>
</linearGradient>
</defs>
</svg>
