<svg width="32" height="32" viewBox="0 0 32 32" fill="none" xmlns="http://www.w3.org/2000/svg">
<path fill-rule="evenodd" clip-rule="evenodd" d="M13.3333 5.33333H26.6667C27.0203 5.33333 27.3594 5.47381 27.6095 5.72386C27.8595 5.97391 28 6.31304 28 6.66667C28 7.02029 27.8595 7.35943 27.6095 7.60948C27.3594 7.85952 27.0203 8 26.6667 8H13.3333C12.9797 8 12.6406 7.85952 12.3905 7.60948C12.1405 7.35943 12 7.02029 12 6.66667C12 6.31304 12.1405 5.97391 12.3905 5.72386C12.6406 5.47381 12.9797 5.33333 13.3333 5.33333ZM13.3333 14.6667H26.6667C27.0203 14.6667 27.3594 14.8071 27.6095 15.0572C27.8595 15.3072 28 15.6464 28 16C28 16.3536 27.8595 16.6928 27.6095 16.9428C27.3594 17.1929 27.0203 17.3333 26.6667 17.3333H13.3333C12.9797 17.3333 12.6406 17.1929 12.3905 16.9428C12.1405 16.6928 12 16.3536 12 16C12 15.6464 12.1405 15.3072 12.3905 15.0572C12.6406 14.8071 12.9797 14.6667 13.3333 14.6667ZM13.3333 24H26.6667C27.0203 24 27.3594 24.1405 27.6095 24.3905C27.8595 24.6406 28 24.9797 28 25.3333C28 25.687 27.8595 26.0261 27.6095 26.2761C27.3594 26.5262 27.0203 26.6667 26.6667 26.6667H13.3333C12.9797 26.6667 12.6406 26.5262 12.3905 26.2761C12.1405 26.0261 12 25.687 12 25.3333C12 24.9797 12.1405 24.6406 12.3905 24.3905C12.6406 24.1405 12.9797 24 13.3333 24ZM6.66667 9.33333C5.95942 9.33333 5.28115 9.05238 4.78105 8.55229C4.28095 8.05219 4 7.37391 4 6.66667C4 5.95942 4.28095 5.28115 4.78105 4.78105C5.28115 4.28095 5.95942 4 6.66667 4C7.37391 4 8.05219 4.28095 8.55229 4.78105C9.05238 5.28115 9.33333 5.95942 9.33333 6.66667C9.33333 7.37391 9.05238 8.05219 8.55229 8.55229C8.05219 9.05238 7.37391 9.33333 6.66667 9.33333ZM6.66667 18.6667C5.95942 18.6667 5.28115 18.3857 4.78105 17.8856C4.28095 17.3855 4 16.7072 4 16C4 15.2928 4.28095 14.6145 4.78105 14.1144C5.28115 13.6143 5.95942 13.3333 6.66667 13.3333C7.37391 13.3333 8.05219 13.6143 8.55229 14.1144C9.05238 14.6145 9.33333 15.2928 9.33333 16C9.33333 16.7072 9.05238 17.3855 8.55229 17.8856C8.05219 18.3857 7.37391 18.6667 6.66667 18.6667ZM6.66667 28C5.95942 28 5.28115 27.719 4.78105 27.219C4.28095 26.7189 4 26.0406 4 25.3333C4 24.6261 4.28095 23.9478 4.78105 23.4477C5.28115 22.9476 5.95942 22.6667 6.66667 22.6667C7.37391 22.6667 8.05219 22.9476 8.55229 23.4477C9.05238 23.9478 9.33333 24.6261 9.33333 25.3333C9.33333 26.0406 9.05238 26.7189 8.55229 27.219C8.05219 27.719 7.37391 28 6.66667 28Z" fill="#C5C5C5"/>
</svg>
