<svg width="32" height="32" viewBox="0 0 32 32" fill="none" xmlns="http://www.w3.org/2000/svg">
<path d="M15.9998 26.668C18.8288 26.668 21.5419 25.5442 23.5423 23.5438C25.5427 21.5434 26.6665 18.8303 26.6665 16.0013C26.6665 13.1723 25.5427 10.4592 23.5423 8.45883C21.5419 6.45844 18.8288 5.33464 15.9998 5.33464C13.1709 5.33464 10.4578 6.45844 8.45736 8.45883C6.45698 10.4592 5.33317 13.1723 5.33317 16.0013C5.33317 18.8303 6.45698 21.5434 8.45736 23.5438C10.4578 25.5442 13.1709 26.668 15.9998 26.668ZM15.9998 29.3346C8.63584 29.3346 2.6665 23.3653 2.6665 16.0013C2.6665 8.6373 8.63584 2.66797 15.9998 2.66797C23.3638 2.66797 29.3332 8.6373 29.3332 16.0013C29.3332 23.3653 23.3638 29.3346 15.9998 29.3346ZM14.6665 21.3346H17.3332V24.0013H14.6665V21.3346ZM14.6665 8.0013H17.3332V18.668H14.6665V8.0013Z" fill="#0072C6"/>
</svg>
