<svg width="32" height="38" viewBox="0 0 32 38" fill="none" xmlns="http://www.w3.org/2000/svg">
<path d="M0.354218 0.20356C0.503595 0.0949237 0.686907 0.0262873 0.881396 0.00617271C1.07588 -0.0139419 1.27298 0.0153514 1.44822 0.0904154L27.4482 11.2334C27.6141 11.3047 27.7536 11.4141 27.8511 11.5495C27.9485 11.6848 28.0002 11.8407 28.0002 11.9997C28.0002 12.1588 27.9485 12.3147 27.8511 12.45C27.7536 12.5854 27.6141 12.6948 27.4482 12.766L1.44822 23.9091C1.2731 23.9843 1.07605 24.0139 0.881536 23.994C0.687019 23.9741 0.503602 23.9056 0.354058 23.7972C0.204513 23.6887 0.0954281 23.545 0.0403456 23.3839C-0.0147369 23.2227 -0.0133905 23.0513 0.0442178 22.8908L3.95422 11.9997L0.0442178 1.10872C-0.013061 0.94839 -0.0142217 0.777183 0.0408792 0.616296C0.0959801 0.455409 0.204923 0.311908 0.354218 0.20356V0.20356ZM5.73822 12.8569L2.64422 21.4799L24.7642 11.9997L2.64422 2.5196L5.73822 11.1426H17.0002C17.2654 11.1426 17.5198 11.2329 17.7073 11.3936C17.8949 11.5544 18.0002 11.7724 18.0002 11.9997C18.0002 12.2271 17.8949 12.4451 17.7073 12.6058C17.5198 12.7666 17.2654 12.8569 17.0002 12.8569H5.74022H5.73822Z" fill="#605E5C"/>
</svg>
