<svg width="32" height="32" viewBox="0 0 32 32" fill="none" xmlns="http://www.w3.org/2000/svg">
<path d="M4.9529 4.25781C4.9529 3.92629 5.0846 3.60835 5.31902 3.37393C5.55344 3.13951 5.87138 3.00781 6.2029 3.00781C6.53442 3.00781 6.85237 3.13951 7.08679 3.37393C7.32121 3.60835 7.4529 3.92629 7.4529 4.25781V10.4388L12.0499 5.64181C13.2709 4.34781 15.3019 3.31581 17.5299 3.09881C19.8099 2.87881 22.3469 3.50681 24.4599 5.61881C26.6079 7.76881 27.1719 10.2788 26.9599 12.4488C26.7549 14.5538 25.8169 16.4078 24.8409 17.3848L24.8389 17.3868L13.6329 28.6818C13.3982 28.9107 13.0829 29.0382 12.755 29.0368C12.4271 29.0355 12.1129 28.9053 11.8801 28.6745C11.6473 28.4436 11.5145 28.1305 11.5103 27.8027C11.5062 27.4748 11.631 27.1585 11.8579 26.9218L23.0679 15.6218L23.0719 15.6178C23.5949 15.0948 24.3169 13.7998 24.4719 12.2058C24.6209 10.6778 24.2439 8.93781 22.6919 7.38581C21.1659 5.86081 19.3939 5.42881 17.7719 5.58581C16.1019 5.74881 14.6439 6.53281 13.8649 7.35881L13.8579 7.36681L8.9179 12.5218H15.3559C15.6874 12.5218 16.0054 12.6535 16.2398 12.8879C16.4742 13.1224 16.6059 13.4403 16.6059 13.7718C16.6059 14.1033 16.4742 14.4213 16.2398 14.6557C16.0054 14.8901 15.6874 15.0218 15.3559 15.0218H6.2019C5.5119 15.0218 4.9519 14.4618 4.9519 13.7718V4.25781H4.9529Z" fill="#AAAAAA"/>
</svg>
