<svg width="32" height="32" viewBox="0 0 32 32" fill="none" xmlns="http://www.w3.org/2000/svg">
<path d="M4.95315 4.25781C4.95315 3.92629 5.08484 3.60835 5.31926 3.37393C5.55369 3.13951 5.87163 3.00781 6.20315 3.00781C6.53467 3.00781 6.85261 3.13951 7.08703 3.37393C7.32145 3.60835 7.45315 3.92629 7.45315 4.25781V10.4388L12.0501 5.64181C13.2711 4.34781 15.3021 3.31581 17.5301 3.09881C19.8101 2.87881 22.3471 3.50681 24.4601 5.61881C26.6081 7.76881 27.1721 10.2788 26.9601 12.4488C26.7551 14.5538 25.8171 16.4078 24.8411 17.3848L24.8391 17.3868L13.6331 28.6818C13.3984 28.9107 13.0831 29.0382 12.7553 29.0368C12.4274 29.0355 12.1132 28.9053 11.8804 28.6745C11.6475 28.4436 11.5147 28.1305 11.5106 27.8027C11.5064 27.4748 11.6312 27.1585 11.8581 26.9218L23.0681 15.6218L23.0721 15.6178C23.5951 15.0948 24.3171 13.7998 24.4721 12.2058C24.6211 10.6778 24.2441 8.93781 22.6921 7.38581C21.1661 5.86081 19.3941 5.42881 17.7721 5.58581C16.1021 5.74881 14.6441 6.53281 13.8651 7.35881L13.8581 7.36681L8.91815 12.5218H15.3561C15.6877 12.5218 16.0056 12.6535 16.24 12.8879C16.4745 13.1224 16.6061 13.4403 16.6061 13.7718C16.6061 14.1033 16.4745 14.4213 16.24 14.6557C16.0056 14.8901 15.6877 15.0218 15.3561 15.0218H6.20215C5.51215 15.0218 4.95215 14.4618 4.95215 13.7718V4.25781H4.95315Z" fill="#AAAAAA"/>
</svg>
