<svg width="32" height="32" viewBox="0 0 32 32" fill="none" xmlns="http://www.w3.org/2000/svg">
<path d="M4.95315 4.2561C4.95315 3.92458 5.08484 3.60664 5.31926 3.37222C5.55369 3.1378 5.87163 3.0061 6.20315 3.0061C6.53467 3.0061 6.85261 3.1378 7.08703 3.37222C7.32145 3.60664 7.45315 3.92458 7.45315 4.2561V10.4371L12.0501 5.6401C13.2711 4.3461 15.3021 3.3141 17.5301 3.0971C19.8101 2.8771 22.3471 3.5051 24.4601 5.6171C26.6081 7.7671 27.1721 10.2771 26.9601 12.4471C26.7551 14.5521 25.8171 16.4061 24.8411 17.3831L24.8391 17.3851L13.6331 28.6801C13.3984 28.909 13.0831 29.0365 12.7553 29.0351C12.4274 29.0338 12.1132 28.9036 11.8804 28.6728C11.6475 28.4419 11.5147 28.1288 11.5106 27.801C11.5064 27.4731 11.6312 27.1568 11.8581 26.9201L23.0681 15.6201L23.0721 15.6161C23.5951 15.0931 24.3171 13.7981 24.4721 12.2041C24.6211 10.6761 24.2441 8.9361 22.6921 7.3841C21.1661 5.8591 19.3941 5.4271 17.7721 5.5841C16.1021 5.7471 14.6441 6.5311 13.8651 7.3571L13.8581 7.3651L8.91815 12.5201H15.3561C15.6877 12.5201 16.0056 12.6518 16.24 12.8862C16.4745 13.1206 16.6061 13.4386 16.6061 13.7701C16.6061 14.1016 16.4745 14.4196 16.24 14.654C16.0056 14.8884 15.6877 15.0201 15.3561 15.0201H6.20215C5.51215 15.0201 4.95215 14.4601 4.95215 13.7701V4.2561H4.95315Z" fill="#AAAAAA"/>
</svg>
