<svg width="12" height="12" viewBox="0 0 12 12" fill="none" xmlns="http://www.w3.org/2000/svg">
<path fill-rule="evenodd" clip-rule="evenodd" d="M5.5 2.5C5.5 2.23478 5.39464 1.98043 5.20711 1.79289C5.01957 1.60536 4.76522 1.5 4.5 1.5H2.5C2.23478 1.5 1.98043 1.60536 1.79289 1.79289C1.60536 1.98043 1.5 2.23478 1.5 2.5V4.5C1.5 4.76522 1.60536 5.01957 1.79289 5.20711C1.98043 5.39464 2.23478 5.5 2.5 5.5H4.5C4.76522 5.5 5.01957 5.39464 5.20711 5.20711C5.39464 5.01957 5.5 4.76522 5.5 4.5V2.5ZM4.5 2.5H2.5V4.5H4.5V2.5Z" fill="#AAAAAA"/>
<path d="M9.50006 6.50006H10.5001V10.5001H6.50006V9.50006H8.79306L6.11106 6.81806C6.01998 6.72376 5.96958 6.59746 5.97072 6.46636C5.97186 6.33526 6.02445 6.20985 6.11715 6.11715C6.20985 6.02445 6.33526 5.97186 6.46636 5.97072C6.59746 5.96958 6.72376 6.01998 6.81806 6.11106L9.50006 8.79306V6.50006Z" fill="#AAAAAA"/>
</svg>
