<svg width="16" height="17" viewBox="0 0 16 17" fill="none" xmlns="http://www.w3.org/2000/svg">
<path d="M8.22694 6.82422L7.34094 7.71322L5.70394 6.06822L4.74894 5.11122L3.65894 4.01622L7.34094 0.324219L8.22694 1.21322L5.97694 3.33322H9.17694C10.6102 3.34602 12.0001 3.82596 13.1359 4.70022C13.9198 5.30501 14.5547 6.08126 14.992 6.96946C15.4293 7.85765 15.6575 8.8342 15.6589 9.82422C15.6516 11.5419 14.9676 13.1875 13.7552 14.4042C12.5427 15.621 10.8996 16.3108 9.18194 16.3242C7.63289 16.3139 6.13727 15.7568 4.95894 14.7512L5.91394 13.7942C6.83276 14.5572 7.99271 14.969 9.18694 14.9562C10.5417 14.9431 11.837 14.3974 12.7928 13.4372C13.7486 12.4769 14.2882 11.1791 14.2949 9.82422C14.2861 8.46989 13.7449 7.17339 12.7882 6.21469C11.8316 5.25598 10.5362 4.71201 9.18194 4.70022H5.90894L6.65894 5.38422L8.22694 6.82422Z" fill="#0178D4"/>
<path d="M3.279 0L4.038 0.651L1.317 3.825L4.038 7L3.279 7.651L0 3.825L3.279 0Z" fill="#0178D4"/>
</svg>
