<svg width="26" height="28" viewBox="0 0 26 28" fill="none" xmlns="http://www.w3.org/2000/svg">
<path d="M12.8702 27.5828C12.8716 26.147 12.3131 24.7673 11.3133 23.7368C10.3136 22.7063 8.95141 22.1062 7.51626 22.064C6.0811 22.0219 4.68608 22.541 3.62761 23.5111C2.56913 24.4812 1.93064 25.8258 1.84779 27.2592L1.8386 27.5828H4.43206e-07C-0.000475223 26.2124 0.381936 24.8692 1.10411 23.7045C1.82628 22.5399 2.85949 21.6002 4.0872 20.9914C3.4442 20.5219 2.91048 19.9187 2.5227 19.2233C2.13492 18.5279 1.90229 17.7568 1.84078 16.963C1.77927 16.1692 1.89035 15.3715 2.16638 14.6247C2.4424 13.8778 2.87684 13.1996 3.43984 12.6366C4.00283 12.0736 4.68103 11.6392 5.42785 11.3632C6.17467 11.0872 6.97239 10.9761 7.7662 11.0376C8.56002 11.0991 9.33111 11.3317 10.0265 11.7195C10.7219 12.1073 11.3251 12.641 11.7946 13.284C12.5104 11.8437 13.677 10.6765 15.1169 9.95983C14.1806 9.27144 13.4856 8.30488 13.1312 7.19809C12.7767 6.09129 12.7809 4.90082 13.1431 3.79655C13.5054 2.69228 14.2071 1.73064 15.1483 1.04886C16.0895 0.367081 17.222 0 18.3841 0C19.5463 0 20.6788 0.367081 21.6199 1.04886C22.5611 1.73064 23.2629 2.69228 23.6251 3.79655C23.9874 4.90082 23.9916 6.09129 23.6371 7.19809C23.2827 8.30488 22.5877 9.27144 21.6513 9.95983C22.8234 10.5406 23.8194 11.4236 24.5365 12.5175C25.2537 13.6115 25.6661 14.877 25.7312 16.1835L25.7404 16.5512H23.9018C23.9032 15.1154 23.3446 13.7357 22.3449 12.7052C21.3452 11.6747 19.983 11.0746 18.5478 11.0325C17.1127 10.9903 15.7177 11.5095 14.6592 12.4796C13.6007 13.4496 12.9622 14.7942 12.8794 16.2276L12.8702 16.5512C12.8699 17.4161 12.6662 18.2687 12.2756 19.0404C11.885 19.812 11.3184 20.481 10.6216 20.9932C11.7931 21.5742 12.7885 22.4569 13.5053 23.5505C14.2221 24.6441 14.6343 25.9091 14.6996 27.2151L14.7088 27.5828H12.8702ZM3.6772 16.5512C3.6772 17.2785 3.89286 17.9894 4.29691 18.5941C4.70097 19.1988 5.27527 19.6702 5.94719 19.9485C6.61911 20.2268 7.35847 20.2996 8.07178 20.1577C8.78508 20.0159 9.4403 19.6656 9.95456 19.1514C10.4688 18.6371 10.819 17.9819 10.9609 17.2686C11.1028 16.5553 11.03 15.8159 10.7517 15.144C10.4734 14.4721 10.002 13.8978 9.39733 13.4937C8.79262 13.0897 8.08167 12.874 7.35439 12.874C6.37914 12.874 5.44383 13.2614 4.75422 13.951C4.06461 14.6406 3.6772 15.5759 3.6772 16.5512V16.5512ZM14.7088 5.51961C14.7088 6.24689 14.9244 6.95784 15.3285 7.56255C15.7326 8.16727 16.3069 8.63858 16.9788 8.9169C17.6507 9.19522 18.3901 9.26804 19.1034 9.12615C19.8167 8.98427 20.4719 8.63405 20.9861 8.11978C21.5004 7.60552 21.8506 6.95031 21.9925 6.237C22.1344 5.52369 22.0616 4.78433 21.7833 4.11241C21.5049 3.44049 21.0336 2.86619 20.4289 2.46214C19.8242 2.05808 19.1133 1.84242 18.386 1.84242C17.4107 1.84242 16.4754 2.22984 15.7858 2.91945C15.0962 3.60905 14.7088 4.54436 14.7088 5.51961V5.51961Z" fill="#605E5C"/>
</svg>
