<svg width="30" height="29" viewBox="0 0 30 29" fill="none" xmlns="http://www.w3.org/2000/svg">
<path d="M29.4179 28.4983H0.000366211V2.7579H6.43546V0H8.27405V2.7579H21.1442V0H22.9828V2.7579H29.4179V28.4983ZM1.83896 26.6597H27.5793V4.59649H22.9828V5.51579H21.1442V4.59649H8.27405V5.51579H6.43546V4.59649H1.83896V26.6597ZM16.5477 24.8211V22.9825H18.3863V24.8211H16.5477ZM11.032 24.8211V22.9825H12.8705V24.8211H11.032ZM5.51616 24.8211V22.9825H7.35476V24.8211H5.51616ZM22.0635 21.1439V19.3053H23.9021V21.1439H22.0635ZM16.5477 21.1439V19.3053H18.3863V21.1439H16.5477ZM11.032 21.1439V19.3053H12.8705V21.1439H11.032ZM5.51616 21.1439V19.3053H7.35476V21.1439H5.51616ZM22.0635 17.4667V15.6281H23.9021V17.4667H22.0635ZM16.5477 17.4667V15.6281H18.3863V17.4667H16.5477ZM11.032 17.4667V15.6281H12.8705V17.4667H11.032ZM5.51616 17.4667V15.6281H7.35476V17.4667H5.51616ZM22.0635 13.7895V11.9509H23.9021V13.7895H22.0635ZM16.5477 13.7895V11.9509H18.3863V13.7895H16.5477ZM11.032 13.7895V11.9509H12.8705V13.7895H11.032Z" fill="#0178D4"/>
</svg>
