<svg width="26" height="28" viewBox="0 0 26 28" fill="none" xmlns="http://www.w3.org/2000/svg">
<path d="M12.8701 27.5828C12.8714 26.147 12.3129 24.7673 11.3132 23.7368C10.3134 22.7063 8.95129 22.1062 7.51613 22.064C6.08098 22.0219 4.68596 22.541 3.62749 23.5111C2.56901 24.4812 1.93052 25.8258 1.84767 27.2592L1.83848 27.5828H-0.000121627C-0.000597294 26.2124 0.381814 24.8692 1.10399 23.7045C1.82616 22.5399 2.85936 21.6002 4.08708 20.9914C3.44408 20.5219 2.91035 19.9187 2.52258 19.2233C2.1348 18.5279 1.90217 17.7568 1.84066 16.963C1.77915 16.1692 1.89023 15.3715 2.16625 14.6247C2.44228 13.8778 2.87672 13.1996 3.43971 12.6366C4.00271 12.0736 4.68091 11.6392 5.42773 11.3632C6.17454 11.0872 6.97227 10.9761 7.76608 11.0376C8.55989 11.0991 9.33098 11.3317 10.0264 11.7195C10.7217 12.1073 11.3249 12.641 11.7945 13.284C12.5103 11.8437 13.6769 10.6765 15.1168 9.95983C14.1805 9.27144 13.4855 8.30488 13.131 7.19809C12.7766 6.09129 12.7808 4.90082 13.143 3.79655C13.5052 2.69228 14.207 1.73064 15.1482 1.04886C16.0894 0.367081 17.2218 0 18.384 0C19.5462 0 20.6787 0.367081 21.6198 1.04886C22.561 1.73064 23.2628 2.69228 23.625 3.79655C23.9873 4.90082 23.9915 6.09129 23.637 7.19809C23.2825 8.30488 22.5876 9.27144 21.6512 9.95983C22.8233 10.5406 23.8192 11.4236 24.5364 12.5175C25.2536 13.6115 25.6659 14.877 25.731 16.1835L25.7402 16.5512H23.9016C23.903 15.1154 23.3445 13.7357 22.3448 12.7052C21.345 11.6747 19.9829 11.0746 18.5477 11.0325C17.1126 10.9903 15.7175 11.5095 14.6591 12.4796C13.6006 13.4496 12.9621 14.7942 12.8793 16.2276L12.8701 16.5512C12.8698 17.4161 12.6661 18.2687 12.2755 19.0404C11.8849 19.812 11.3183 20.481 10.6215 20.9932C11.7929 21.5742 12.7884 22.4569 13.5052 23.5505C14.222 24.6441 14.6342 25.9091 14.6995 27.2151L14.7087 27.5828H12.8701ZM3.67707 16.5512C3.67707 17.2785 3.89274 17.9894 4.29679 18.5941C4.70085 19.1988 5.27515 19.6702 5.94707 19.9485C6.61899 20.2268 7.35835 20.2996 8.07165 20.1577C8.78496 20.0159 9.44017 19.6656 9.95444 19.1514C10.4687 18.6371 10.8189 17.9819 10.9608 17.2686C11.1027 16.5553 11.0299 15.8159 10.7516 15.144C10.4732 14.4721 10.0019 13.8978 9.39721 13.4937C8.7925 13.0897 8.08155 12.874 7.35427 12.874C6.37902 12.874 5.44371 13.2614 4.7541 13.951C4.06449 14.6406 3.67707 15.5759 3.67707 16.5512ZM14.7087 5.51961C14.7087 6.24689 14.9243 6.95784 15.3284 7.56255C15.7324 8.16726 16.3067 8.63858 16.9787 8.9169C17.6506 9.19522 18.3899 9.26804 19.1032 9.12615C19.8165 8.98427 20.4718 8.63405 20.986 8.11978C21.5003 7.60552 21.8505 6.95031 21.9924 6.237C22.1343 5.52369 22.0615 4.78433 21.7831 4.11241C21.5048 3.44049 21.0335 2.86619 20.4288 2.46214C19.8241 2.05808 19.1131 1.84242 18.3859 1.84242C17.4106 1.84242 16.4753 2.22984 15.7857 2.91945C15.0961 3.60905 14.7087 4.54436 14.7087 5.51961Z" fill="#605E5C"/>
</svg>
