<svg width="26" height="26" viewBox="0 0 26 26" fill="none" xmlns="http://www.w3.org/2000/svg">
<path d="M13.6068 10.8698L12.1414 12.2857L9.43399 9.66581L7.85451 8.14164L6.05176 6.39769L12.1414 0.517639L13.6068 1.9335L9.8855 5.30992H15.178C17.5484 5.3303 19.8473 6.09467 21.7258 7.48706C23.0222 8.45029 24.0722 9.68658 24.7956 11.1012C25.5189 12.5157 25.8962 14.071 25.8986 15.6478C25.8865 18.3834 24.7552 21.0043 22.7499 22.9421C20.7447 24.88 18.0271 25.9787 15.1863 26C12.6243 25.9835 10.1507 25.0963 8.20183 23.4948L9.78131 21.9706C11.301 23.1857 13.2194 23.8416 15.1945 23.8213C17.4353 23.8004 19.5775 22.9313 21.1583 21.4019C22.7391 19.8725 23.6315 17.8056 23.6427 15.6478C23.628 13.4908 22.7329 11.426 21.1507 9.89908C19.5685 8.3722 17.4262 7.50584 15.1863 7.48706H9.77304L11.0135 8.57644L13.6068 10.8698Z" fill="#B868C0"/>
<path d="M5.42315 0L6.67846 1.03681L2.17819 6.09188L6.67846 11.1485L5.42315 12.1853L0 6.09188L5.42315 0Z" fill="#B868C0"/>
</svg>
