<svg width="30" height="29" viewBox="0 0 30 29" fill="none" xmlns="http://www.w3.org/2000/svg">
<path d="M29.418 28.4983H0.000488281V2.7579H6.43558V0H8.27418V2.7579H21.1444V0H22.983V2.7579H29.418V28.4983ZM1.83909 26.6597H27.5794V4.59649H22.983V5.51579H21.1444V4.59649H8.27418V5.51579H6.43558V4.59649H1.83909V26.6597ZM16.5479 24.8211V22.9825H18.3865V24.8211H16.5479ZM11.0321 24.8211V22.9825H12.8707V24.8211H11.0321ZM5.51628 24.8211V22.9825H7.35488V24.8211H5.51628ZM22.0637 21.1439V19.3053H23.9023V21.1439H22.0637ZM16.5479 21.1439V19.3053H18.3865V21.1439H16.5479ZM11.0321 21.1439V19.3053H12.8707V21.1439H11.0321ZM5.51628 21.1439V19.3053H7.35488V21.1439H5.51628ZM22.0637 17.4667V15.6281H23.9023V17.4667H22.0637ZM16.5479 17.4667V15.6281H18.3865V17.4667H16.5479ZM11.0321 17.4667V15.6281H12.8707V17.4667H11.0321ZM5.51628 17.4667V15.6281H7.35488V17.4667H5.51628ZM22.0637 13.7895V11.9509H23.9023V13.7895H22.0637ZM16.5479 13.7895V11.9509H18.3865V13.7895H16.5479ZM11.0321 13.7895V11.9509H12.8707V13.7895H11.0321Z" fill="#0178D4"/>
</svg>
