<svg width="30" height="29" viewBox="0 0 30 29" fill="none" xmlns="http://www.w3.org/2000/svg">
<path d="M29.4176 28.4983H0V2.7579H6.43509V0H8.27369V2.7579H21.1439V0H22.9825V2.7579H29.4176V28.4983ZM1.8386 26.6597H27.579V4.59649H22.9825V5.51579H21.1439V4.59649H8.27369V5.51579H6.43509V4.59649H1.8386V26.6597ZM16.5474 24.8211V22.9825H18.386V24.8211H16.5474ZM11.0316 24.8211V22.9825H12.8702V24.8211H11.0316ZM5.51579 24.8211V22.9825H7.35439V24.8211H5.51579ZM22.0632 21.1439V19.3053H23.9018V21.1439H22.0632ZM16.5474 21.1439V19.3053H18.386V21.1439H16.5474ZM11.0316 21.1439V19.3053H12.8702V21.1439H11.0316ZM5.51579 21.1439V19.3053H7.35439V21.1439H5.51579ZM22.0632 17.4667V15.6281H23.9018V17.4667H22.0632ZM16.5474 17.4667V15.6281H18.386V17.4667H16.5474ZM11.0316 17.4667V15.6281H12.8702V17.4667H11.0316ZM5.51579 17.4667V15.6281H7.35439V17.4667H5.51579ZM22.0632 13.7895V11.9509H23.9018V13.7895H22.0632ZM16.5474 13.7895V11.9509H18.386V13.7895H16.5474ZM1.5 10.5L1.8386 9H27.579V10.5H1.5Z" fill="#605E5C"/>
</svg>
