<svg width="12" height="16" viewBox="0 0 12 16" fill="none" xmlns="http://www.w3.org/2000/svg">
<path d="M4.568 6.5L3.682 7.389L2.045 5.744L1.09 4.787L0 3.692L3.682 0L4.568 0.889L2.318 3.009H5.518C6.95125 3.0218 8.34121 3.50174 9.477 4.376C10.2608 4.98079 10.8957 5.75705 11.3331 6.64524C11.7704 7.53343 11.9985 8.50998 12 9.5C11.9927 11.2177 11.3087 12.8633 10.0962 14.08C8.88379 15.2967 7.24064 15.9866 5.523 16C3.97395 15.9897 2.47833 15.4326 1.3 14.427L2.255 13.47C3.17382 14.233 4.33377 14.6448 5.528 14.632C6.88281 14.6189 8.17807 14.0732 9.13386 13.1129C10.0897 12.1527 10.6292 10.8549 10.636 9.5C10.6271 8.14567 10.0859 6.84917 9.12928 5.89047C8.17264 4.93177 6.87731 4.38779 5.523 4.376H2.25L3 5.06L4.568 6.5Z" fill="#0178D4"/>
</svg>
