<svg width="16" height="17" viewBox="0 0 16 17" fill="none" xmlns="http://www.w3.org/2000/svg">
<path d="M8.22694 6.82495L7.34094 7.71395L5.70394 6.06895L4.74894 5.11195L3.65894 4.01695L7.34094 0.324951L8.22694 1.21395L5.97694 3.33395H9.17694C10.6102 3.34675 12.0001 3.82669 13.1359 4.70095C13.9198 5.30574 14.5547 6.082 14.992 6.97019C15.4293 7.85838 15.6575 8.83493 15.6589 9.82495C15.6516 11.5426 14.9676 13.1882 13.7552 14.405C12.5427 15.6217 10.8996 16.3115 9.18194 16.325C7.63289 16.3146 6.13727 15.7575 4.95894 14.752L5.91394 13.795C6.83276 14.5579 7.99271 14.9697 9.18694 14.957C10.5417 14.9438 11.837 14.3982 12.7928 13.4379C13.7486 12.4776 14.2882 11.1798 14.2949 9.82495C14.2861 8.47062 13.7449 7.17412 12.7882 6.21542C11.8316 5.25672 10.5362 4.71274 9.18194 4.70095H5.90894L6.65894 5.38495L8.22694 6.82495Z" fill="#0178D4"/>
<path d="M3.279 0L4.038 0.651L1.317 3.825L4.038 7L3.279 7.651L0 3.825L3.279 0Z" fill="#0178D4"/>
</svg>
