<svg width="26" height="4" viewBox="0 0 26 4" fill="none" xmlns="http://www.w3.org/2000/svg">
<path d="M22.0634 1.8386C22.0634 1.47496 22.1712 1.11948 22.3733 0.817128C22.5753 0.514772 22.8624 0.279115 23.1984 0.139956C23.5344 0.000796629 23.9041 -0.0356137 24.2607 0.035329C24.6174 0.106272 24.945 0.281381 25.2021 0.538514C25.4592 0.795646 25.6343 1.12325 25.7053 1.47991C25.7762 1.83656 25.7398 2.20624 25.6007 2.5422C25.4615 2.87816 25.2258 3.16531 24.9235 3.36734C24.6211 3.56936 24.2657 3.6772 23.902 3.6772C23.4144 3.6772 22.9467 3.48349 22.6019 3.13868C22.2571 2.79388 22.0634 2.32622 22.0634 1.8386ZM11.0318 1.8386C11.0318 1.47496 11.1397 1.11948 11.3417 0.817128C11.5437 0.514772 11.8309 0.279115 12.1668 0.139956C12.5028 0.000796629 12.8725 -0.0356137 13.2291 0.035329C13.5858 0.106272 13.9134 0.281381 14.1705 0.538514C14.4276 0.795646 14.6028 1.12325 14.6737 1.47991C14.7446 1.83656 14.7082 2.20624 14.5691 2.5422C14.4299 2.87816 14.1943 3.16531 13.8919 3.36734C13.5895 3.56936 13.2341 3.6772 12.8704 3.6772C12.3828 3.6772 11.9151 3.48349 11.5703 3.13868C11.2255 2.79388 11.0318 2.32622 11.0318 1.8386ZM0.000244141 1.8386C0.000244141 1.47496 0.108076 1.11948 0.310104 0.817128C0.512131 0.514772 0.799281 0.279115 1.13524 0.139956C1.4712 0.000796629 1.84088 -0.0356137 2.19753 0.035329C2.55419 0.106272 2.88179 0.281381 3.13893 0.538514C3.39606 0.795646 3.57117 1.12325 3.64211 1.47991C3.71305 1.83656 3.67664 2.20624 3.53748 2.5422C3.39832 2.87816 3.16267 3.16531 2.86031 3.36734C2.55796 3.56936 2.20248 3.6772 1.83884 3.6772C1.35122 3.6772 0.883561 3.48349 0.538757 3.13868C0.193953 2.79388 0.000244141 2.32622 0.000244141 1.8386Z" fill="#605E5C"/>
</svg>
