<svg width="26" height="26" viewBox="0 0 26 26" fill="none" xmlns="http://www.w3.org/2000/svg">
<path d="M13.6065 10.8717L12.1412 12.2876L9.43374 9.6677L7.85427 8.14353L6.05151 6.39959L12.1412 0.519531L13.6065 1.93539L9.88526 5.31181H15.1777C17.5482 5.33219 19.8471 6.09657 21.7255 7.48896C23.0219 8.45218 24.072 9.68847 24.7953 11.1031C25.5186 12.5176 25.8959 14.0729 25.8983 15.6497C25.8862 18.3853 24.7549 21.0062 22.7497 22.944C20.7444 24.8819 18.0268 25.9805 15.186 26.0019C12.624 25.9854 10.1504 25.0982 8.20159 23.4967L9.78106 21.9725C11.3007 23.1876 13.2191 23.8435 15.1943 23.8231C17.435 23.8023 19.5772 22.9332 21.158 21.4038C22.7388 19.8744 23.6312 17.8075 23.6424 15.6497C23.6277 13.4927 22.7327 11.4278 21.1505 9.90097C19.5683 8.37409 17.4259 7.50773 15.186 7.48896H9.77279L11.0132 8.57833L13.6065 10.8717Z" fill="#B868C0"/>
<path d="M5.42315 0L6.67846 1.03681L2.17819 6.09188L6.67846 11.1485L5.42315 12.1853L0 6.09188L5.42315 0Z" fill="#B868C0"/>
</svg>
