<svg width="16" height="17" viewBox="0 0 16 17" fill="none" xmlns="http://www.w3.org/2000/svg">
<path d="M8.22706 6.82422L7.34106 7.71322L5.70406 6.06822L4.74906 5.11122L3.65906 4.01622L7.34106 0.324219L8.22706 1.21322L5.97706 3.33322H9.17706C10.6103 3.34602 12.0003 3.82596 13.1361 4.70022C13.9199 5.30501 14.5548 6.08126 14.9921 6.96946C15.4295 7.85765 15.6576 8.83419 15.6591 9.82422C15.6517 11.5419 14.9677 13.1875 13.7553 14.4042C12.5428 15.621 10.8997 16.3108 9.18206 16.3242C7.63301 16.3139 6.13739 15.7568 4.95906 14.7512L5.91406 13.7942C6.83288 14.5572 7.99283 14.969 9.18706 14.9562C10.5419 14.9431 11.8371 14.3974 12.7929 13.4372C13.7487 12.4769 14.2883 11.1791 14.2951 9.82422C14.2862 8.46989 13.745 7.17339 12.7883 6.21469C11.8317 5.25598 10.5364 4.71201 9.18206 4.70022H5.90906L6.65906 5.38422L8.22706 6.82422Z" fill="#0178D4"/>
<path d="M3.279 0L4.038 0.651L1.317 3.825L4.038 7L3.279 7.651L0 3.825L3.279 0Z" fill="#0178D4"/>
</svg>
