<svg width="26" height="26" viewBox="0 0 26 26" fill="none" xmlns="http://www.w3.org/2000/svg">
<path d="M13.6065 10.8698L12.1412 12.2857L9.43374 9.66581L7.85427 8.14164L6.05151 6.39769L12.1412 0.517639L13.6065 1.9335L9.88526 5.30992H15.1777C17.5482 5.3303 19.8471 6.09467 21.7255 7.48706C23.0219 8.45029 24.072 9.68658 24.7953 11.1012C25.5186 12.5157 25.8959 14.071 25.8983 15.6478C25.8862 18.3834 24.7549 21.0043 22.7497 22.9421C20.7444 24.88 18.0268 25.9787 15.186 26C12.624 25.9835 10.1504 25.0963 8.20159 23.4948L9.78106 21.9706C11.3007 23.1857 13.2191 23.8416 15.1943 23.8213C17.435 23.8004 19.5772 22.9313 21.158 21.4019C22.7388 19.8725 23.6312 17.8056 23.6424 15.6478C23.6277 13.4908 22.7327 11.426 21.1505 9.89908C19.5683 8.3722 17.4259 7.50584 15.186 7.48706H9.77279L11.0132 8.57644L13.6065 10.8698Z" fill="#B868C0"/>
<path d="M5.42315 0L6.67846 1.03681L2.17819 6.09188L6.67846 11.1485L5.42315 12.1853L0 6.09188L5.42315 0Z" fill="#B868C0"/>
</svg>
