<svg width="16" height="17" viewBox="0 0 16 17" fill="none" xmlns="http://www.w3.org/2000/svg">
<path d="M8.22718 6.82422L7.34118 7.71322L5.70418 6.06822L4.74918 5.11122L3.65918 4.01622L7.34118 0.324219L8.22718 1.21322L5.97718 3.33322H9.17718C10.6104 3.34602 12.0004 3.82596 13.1362 4.70022C13.92 5.30501 14.5549 6.08126 14.9923 6.96946C15.4296 7.85765 15.6577 8.8342 15.6592 9.82422C15.6519 11.5419 14.9678 13.1875 13.7554 14.4042C12.543 15.621 10.8998 16.3108 9.18218 16.3242C7.63313 16.3139 6.13751 15.7568 4.95918 14.7512L5.91418 13.7942C6.833 14.5572 7.99295 14.969 9.18718 14.9562C10.542 14.9431 11.8372 14.3974 12.793 13.4372C13.7488 12.4769 14.2884 11.1791 14.2952 9.82422C14.2863 8.46989 13.7451 7.17339 12.7885 6.21469C11.8318 5.25598 10.5365 4.71201 9.18218 4.70022H5.90918L6.65918 5.38422L8.22718 6.82422Z" fill="#0178D4"/>
<path d="M3.279 0L4.038 0.651L1.317 3.825L4.038 7L3.279 7.651L0 3.825L3.279 0Z" fill="#0178D4"/>
</svg>
