<svg width="20" height="26" viewBox="0 0 20 26" fill="none" xmlns="http://www.w3.org/2000/svg">
<path d="M7.61334 10.5625L6.13667 12.0071L3.40834 9.334L1.81667 7.77888L0 5.9995L6.13667 0L7.61334 1.44462L3.86334 4.88963H9.19667C11.5854 4.91042 13.902 5.69032 15.795 7.111C17.1014 8.09379 18.1596 9.3552 18.8885 10.7985C19.6174 12.2418 19.9976 13.8287 20 15.4375C19.9878 18.2287 18.8478 20.9028 16.8271 22.88C14.8063 24.8572 12.0677 25.9782 9.20501 26C6.62326 25.9832 4.13056 25.0779 2.16667 23.4439L3.75834 21.8888C5.28971 23.1286 7.22296 23.7978 9.21334 23.777C11.4714 23.7557 13.6301 22.869 15.2231 21.3085C16.8161 19.7481 17.7154 17.6391 17.7267 15.4375C17.7119 13.2367 16.8099 11.1299 15.2155 9.57201C13.6211 8.01412 11.4622 7.13015 9.20501 7.111H3.75L5 8.2225L7.61334 10.5625Z" fill="#B868C0"/>
</svg>
