<svg width="32" height="32" viewBox="0 0 32 32" fill="none" xmlns="http://www.w3.org/2000/svg">
<path d="M22.3203 11.9565H30.5859C31.3669 11.9565 31.9999 12.6347 31.9999 13.4711V21.5355C31.9999 24.6097 29.6733 27.1019 26.8033 27.1019H26.7787C23.9087 27.1023 21.5817 24.6106 21.5813 21.5363V12.7482C21.5813 12.6443 21.6004 12.5413 21.6375 12.4453C21.6746 12.3492 21.7291 12.262 21.7977 12.1884C21.8663 12.1149 21.9478 12.0566 22.0375 12.0168C22.1271 11.977 22.2232 11.9565 22.3203 11.9565V11.9565Z" fill="#5059C9"/>
<path d="M27.907 10.3626C29.7565 10.3626 31.2559 8.75665 31.2559 6.77556C31.2559 4.79447 29.7565 3.18848 27.907 3.18848C26.0574 3.18848 24.5581 4.79447 24.5581 6.77556C24.5581 8.75665 26.0574 10.3626 27.907 10.3626Z" fill="#5059C9"/>
<path d="M17.4884 10.3626C20.1599 10.3626 22.3256 8.04289 22.3256 5.18132C22.3256 2.31976 20.1599 0 17.4884 0C14.8168 0 12.6511 2.31976 12.6511 5.18132C12.6511 8.04289 14.8168 10.3626 17.4884 10.3626Z" fill="#7B83EB"/>
<path d="M23.9383 11.9565H10.2944C9.5228 11.977 8.91242 12.663 8.9303 13.4895V22.6874C8.82255 27.6473 12.4859 31.7632 17.1163 31.8846C21.7467 31.7632 25.41 27.6473 25.3024 22.6874V13.4895C25.3203 12.663 24.7099 11.977 23.9383 11.9565V11.9565Z" fill="#7B83EB"/>
<path opacity="0.1" d="M17.8604 11.9565V24.846C17.8587 25.1351 17.7772 25.4172 17.6263 25.6569C17.4753 25.8965 17.2617 26.0831 17.0121 26.1932C16.8496 26.2668 16.6749 26.3047 16.4986 26.3047H9.58495C9.4882 26.0416 9.39895 25.7785 9.32445 25.5077C9.06395 24.593 8.93106 23.6421 8.93007 22.6858V13.4871C8.9122 12.6619 9.52157 11.977 10.2919 11.9567H17.8603L17.8604 11.9565Z" fill="black"/>
<path opacity="0.2" d="M17.1162 11.9565V25.6432C17.1162 25.8321 17.0808 26.0191 17.0121 26.1932C16.9093 26.4605 16.7351 26.6894 16.5113 26.8511C16.2876 27.0127 16.0242 27.1 15.7543 27.1019H9.93494C9.80844 26.8388 9.68931 26.5757 9.58519 26.3047C9.48516 26.0442 9.3982 25.7781 9.32469 25.5077C9.06419 24.593 8.9313 23.6421 8.93032 22.6858V13.4871C8.91244 12.6619 9.52181 11.977 10.2922 11.9567H17.1163L17.1162 11.9565Z" fill="black"/>
<path opacity="0.2" d="M17.1163 11.9565V24.0489C17.1107 24.852 16.5043 25.5016 15.7544 25.5077H9.32469C9.06419 24.593 8.9313 23.6421 8.93032 22.6858V13.4871C8.91244 12.6619 9.52181 11.977 10.2922 11.9567H17.1163V11.9565Z" fill="black"/>
<path opacity="0.2" d="M16.3722 11.9565V24.0489C16.3664 24.852 15.7601 25.5016 15.0103 25.5077H9.32469C9.06419 24.593 8.9313 23.6421 8.93032 22.6858V13.4871C8.91244 12.6619 9.52181 11.977 10.2922 11.9567H16.3722V11.9565Z" fill="black"/>
<path opacity="0.1" d="M17.8605 7.8357V10.3466C17.734 10.3546 17.6149 10.3626 17.4884 10.3626C17.3619 10.3626 17.2428 10.3546 17.1163 10.3466C16.8651 10.3287 16.616 10.2861 16.3722 10.2191C15.6292 10.0306 14.9385 9.65651 14.3564 9.12728C13.7744 8.59805 13.3175 7.92876 13.0233 7.17414C12.9206 6.91706 12.8409 6.65014 12.7852 6.37695H16.4987C17.2495 6.38003 17.8577 7.03128 17.8605 7.8357V7.8357Z" fill="black"/>
<path opacity="0.2" d="M17.1163 8.63293V10.3467C16.8651 10.3289 16.616 10.2862 16.3722 10.2193C15.6293 10.0308 14.9386 9.65665 14.3565 9.12743C13.7745 8.5982 13.3177 7.92891 13.0234 7.17432H15.7544C16.5054 7.17726 17.1134 7.82864 17.1163 8.63293Z" fill="black"/>
<path opacity="0.2" d="M17.1163 8.63293V10.3467C16.8651 10.3289 16.616 10.2862 16.3722 10.2193C15.6293 10.0308 14.9386 9.65665 14.3565 9.12743C13.7745 8.5982 13.3177 7.92891 13.0234 7.17432H15.7544C16.5054 7.17726 17.1134 7.82864 17.1163 8.63293Z" fill="black"/>
<path opacity="0.2" d="M16.3721 8.63257V10.2189C15.6291 10.0305 14.9384 9.65629 14.3563 9.12704C13.7743 8.59778 13.3174 7.92847 13.0232 7.17383H15.0102C15.7612 7.17691 16.3692 7.82829 16.3721 8.63257Z" fill="black"/>
<path d="M1.36413 7.17396H15.0079C15.7614 7.17396 16.3721 7.82815 16.3721 8.63512V23.2495C16.3721 24.0564 15.7614 24.7106 15.008 24.7106H1.36413C0.61075 24.7106 0 24.0564 0 23.2495V8.63525C0 7.82802 0.61075 7.17383 1.36413 7.17383V7.17396Z" fill="url(#paint0_linear_29_20717)"/>
<path d="M11.7761 12.7366H9.04857V20.6919H7.31094V12.7366H4.59619V11.1934H11.7761V12.7366Z" fill="white"/>
<defs>
<linearGradient id="paint0_linear_29_20717" x1="2.84417" y1="6.03218" x2="14.6666" y2="25.1481" gradientUnits="userSpaceOnUse">
<stop stop-color="#5A62C3"/>
<stop offset="0.5" stop-color="#4D55BD"/>
<stop offset="1" stop-color="#3940AB"/>
</linearGradient>
</defs>
</svg>
