<svg width="21" height="21" viewBox="0 0 21 21" fill="none" xmlns="http://www.w3.org/2000/svg">
<path d="M9.90784 13.2275C10.512 13.4668 11.0623 13.7838 11.5587 14.1786C12.0552 14.5734 12.4799 15.0309 12.8328 15.5513C13.1857 16.0717 13.4578 16.631 13.6492 17.2291C13.8406 17.8273 13.9393 18.4553 13.9453 19.1133V19.6875H12.7969V19.1133C12.7969 18.4015 12.6623 17.7316 12.3931 17.1035C12.124 16.4755 11.7531 15.9282 11.2806 15.4616C10.808 14.9951 10.2607 14.6272 9.63867 14.358C9.0166 14.0889 8.34668 13.9513 7.62891 13.9453C6.91711 13.9453 6.24719 14.0799 5.61914 14.3491C4.99109 14.6182 4.44379 14.9891 3.97723 15.4616C3.51068 15.9341 3.14282 16.4814 2.87366 17.1035C2.60449 17.7256 2.46692 18.3955 2.46094 19.1133V19.6875H1.3125V19.1133C1.3125 18.4613 1.4082 17.8333 1.59961 17.2291C1.79102 16.625 2.06616 16.0657 2.42505 15.5513C2.78394 15.0369 3.20862 14.5823 3.6991 14.1876C4.18958 13.7928 4.73987 13.4728 5.34998 13.2275C5.08081 13.0421 4.83856 12.8268 4.62323 12.5815C4.4079 12.3363 4.22546 12.0731 4.07593 11.792C3.92639 11.5109 3.81274 11.2118 3.73499 10.8948C3.65723 10.5778 3.61536 10.2548 3.60938 9.92578C3.60938 9.36951 3.71405 8.84912 3.9234 8.36462C4.13275 7.88013 4.41986 7.45544 4.78473 7.09058C5.1496 6.72571 5.57428 6.4386 6.05878 6.22925C6.54327 6.0199 7.06665 5.91223 7.62891 5.90625C8.18518 5.90625 8.70557 6.01093 9.19006 6.22028C9.67456 6.42963 10.0992 6.71674 10.4641 7.0816C10.829 7.44647 11.1161 7.87115 11.3254 8.35565C11.5348 8.84015 11.6425 9.36353 11.6484 9.92578C11.6484 10.2548 11.6096 10.5748 11.5318 10.8858C11.454 11.1968 11.3374 11.4959 11.1819 11.783C11.0264 12.0701 10.8439 12.3363 10.6346 12.5815C10.4252 12.8268 10.183 13.0421 9.90784 13.2275ZM7.62891 12.7969C8.02368 12.7969 8.39453 12.7221 8.74146 12.5726C9.08838 12.423 9.39044 12.2197 9.64764 11.9625C9.90485 11.7053 10.1112 11.4002 10.2667 11.0473C10.4222 10.6944 10.5 10.3206 10.5 9.92578C10.5 9.53101 10.4252 9.16016 10.2757 8.81323C10.1262 8.46631 9.9198 8.16425 9.65662 7.90704C9.39343 7.64984 9.08838 7.44348 8.74146 7.28796C8.39453 7.13245 8.02368 7.05469 7.62891 7.05469C7.23413 7.05469 6.86328 7.12946 6.51636 7.27899C6.16943 7.42853 5.86438 7.63489 5.6012 7.89807C5.33801 8.16125 5.13165 8.46631 4.98212 8.81323C4.83258 9.16016 4.75781 9.53101 4.75781 9.92578C4.75781 10.3206 4.83258 10.6914 4.98212 11.0383C5.13165 11.3853 5.33502 11.6903 5.59222 11.9535C5.84943 12.2167 6.15448 12.423 6.50739 12.5726C6.86029 12.7221 7.23413 12.7969 7.62891 12.7969ZM19.6875 1.3125V10.5H17.3906L13.9453 13.9453V10.5H12.7969V9.35156H15.0938V11.1729L16.9151 9.35156H18.5391V2.46094H7.05469V4.52454C6.86328 4.54846 6.67188 4.57837 6.48047 4.61426C6.28906 4.65015 6.09766 4.70398 5.90625 4.77576V1.3125H19.6875Z" fill="#605E5C"/>
</svg>
