<svg width="18" height="18" viewBox="0 0 18 18" fill="none" xmlns="http://www.w3.org/2000/svg">
<path d="M9.69886 4.45205C9.60886 4.38314 9.5048 4.33252 9.38386 4.30439C9.26433 4.27768 9.13776 4.26221 9.00136 4.26221C8.86495 4.26221 8.73698 4.27627 8.61604 4.30439C8.4937 4.33111 8.38964 4.38174 8.29823 4.45205C8.20823 4.52096 8.13792 4.61236 8.08589 4.72627C8.03526 4.84018 8.00854 4.98361 8.00854 5.15377C8.00854 5.32111 8.03526 5.46174 8.08589 5.57846C8.13792 5.69236 8.20823 5.78658 8.29823 5.85549C8.38823 5.92439 8.4937 5.97502 8.61604 6.00455C8.73698 6.03408 8.86495 6.04955 9.00136 6.04955C9.13636 6.04955 9.26433 6.03408 9.38386 6.00455C9.5048 5.97502 9.60886 5.92439 9.69886 5.85549C9.78886 5.78658 9.86058 5.69236 9.91401 5.57846C9.96745 5.46174 9.99417 5.32111 9.99417 5.15377C9.99417 4.98221 9.96745 4.83877 9.91401 4.72627C9.86058 4.61236 9.78886 4.52096 9.69886 4.45205ZM8.0887 6.88205H9.91261V13.5631H8.0887V6.88205Z" fill="#40C0E7"/>
<path d="M8.99996 0.0576172C4.06824 0.0576172 0.0576172 4.06824 0.0576172 8.99996C0.0576172 13.9303 4.06824 17.9423 8.99855 17.9423C13.9289 17.9423 17.9409 13.9317 17.9409 8.99996C17.9423 4.06824 13.9303 0.0576172 8.99996 0.0576172ZM8.99996 16.6514C4.78121 16.6514 1.34996 13.2187 1.34996 8.99996C1.34996 4.78121 4.78121 1.34855 8.99996 1.34855C13.2187 1.34855 16.6514 4.78121 16.6514 9.00137C16.65 13.2187 13.2173 16.6514 8.99996 16.6514Z" fill="#40C0E7"/>
</svg>
