<svg width="17" height="17" viewBox="0 0 17 17" fill="none" xmlns="http://www.w3.org/2000/svg">
<path d="M15.045 3.79535C13.0555 1.0116 9.81221 0.735347 8.50666 0.715425C7.24494 0.696831 4.56213 1.11652 2.60182 3.13128C1.14752 4.62542 0.440956 6.48613 0.467519 8.63636C0.491425 10.5847 1.15947 12.1904 2.38002 13.654C4.18228 15.8149 6.74291 16.3753 8.53322 16.3753C8.58369 16.3753 8.63416 16.3753 8.68463 16.374C10.4298 16.3275 13.4486 15.8268 15.2509 12.8771C16.0478 11.5728 16.498 10.0535 16.5166 8.59917C16.5471 6.25371 15.6081 4.5816 15.045 3.79535ZM15.563 7.94839L14.0356 7.94441C13.9878 6.85003 13.8006 5.91371 13.5336 5.1155L14.6984 5.11949C15.0782 5.80214 15.4687 6.75707 15.563 7.94839ZM1.43705 8.97636L3.02947 8.98035C3.09322 9.87417 3.23932 10.8676 3.55408 11.8425H2.25916C1.77307 10.9778 1.49947 10.0256 1.43705 8.97636ZM9.01268 1.55746C9.48283 1.7341 10.8481 2.35964 11.8496 4.04902L9.00603 4.04105L9.01268 1.55746ZM8.07635 1.59597V4.03839L5.15314 4.03042C6.24752 2.30652 7.8001 1.69292 8.07635 1.59597ZM8.07635 5.10089V7.93113L4.06142 7.92183C4.08799 6.80089 4.29783 5.86722 4.60994 5.0916L8.07635 5.10089ZM2.99096 7.91785L1.449 7.91386C1.54064 6.88855 1.86471 5.93628 2.37736 5.08363L3.45713 5.08628C3.17955 5.88449 2.99892 6.82214 2.99096 7.91785ZM4.084 8.983L8.07635 8.9923V11.8425H4.64846C4.36158 11.0628 4.15572 10.1199 4.084 8.983ZM8.07635 12.905V15.4523C7.53713 15.2796 6.13064 14.6767 5.13455 12.905H8.07635ZM8.98744 15.4709L9.00603 12.905H11.9531C11.0434 14.6687 9.68205 15.3049 8.98744 15.4709ZM9.00603 11.8425V8.99496L12.9413 9.00425C12.8948 10.1332 12.7049 11.0682 12.4313 11.8425H9.00603ZM9.00603 7.93246V5.10355L12.3742 5.11285C12.677 5.88714 12.8895 6.81949 12.9399 7.94175L9.00603 7.93246ZM13.9838 4.05566L13.0953 4.053C12.7726 3.40355 12.4021 2.87761 12.0355 2.45527C12.7235 2.8205 13.4021 3.33449 13.9838 4.05566ZM4.98049 2.51769C4.5654 2.97403 4.20891 3.48043 3.91932 4.02511L3.15166 4.02246C3.2433 3.91753 3.3376 3.81394 3.43455 3.713C3.92596 3.21097 4.45189 2.81917 4.98049 2.51769ZM3.11182 13.0338C3.07463 12.9913 3.03877 12.9475 3.00158 12.905H3.9751C4.25932 13.4986 4.62322 14.0657 5.08807 14.5784C4.37486 14.1959 3.68689 13.6846 3.11182 13.0338ZM12.0182 14.6514C12.4167 14.1667 12.9107 13.577 13.1843 12.905H14.0503C13.5137 13.581 12.6783 14.2782 12.0182 14.6514ZM14.7369 11.8425H13.5854C13.8829 10.8663 14.0051 9.87949 14.0383 9.00691L15.567 9.01089C15.4767 10.2235 15.0849 11.1877 14.7369 11.8425Z" fill="url(#paint0_radial_168_21524)"/>
<path d="M12.4378 5.27961L9.00463 5.26898L9.00596 4.93695L12.317 4.95289L12.4378 5.27961ZM8.07627 5.26633L4.54611 5.25836L4.67229 4.93031L8.07627 4.9343V5.26633ZM8.07627 9.15906L4.09455 9.15242L4.06932 8.81906L8.07627 8.82703V9.15906ZM12.9346 9.16836L9.00596 9.16039V8.82836L12.9505 8.84297L12.9346 9.16836ZM15.551 9.175L14.0289 9.17633L14.0435 8.84164L15.5815 8.84563L15.551 9.175ZM14.782 5.27563L13.588 5.28227L13.4817 4.96086L14.6186 4.96883L14.782 5.27563ZM8.07627 13.0704L5.22877 13.0691L5.04283 12.7583L8.08158 12.7397L8.07627 13.0704ZM11.8694 13.0611L9.0033 13.0704L9.00596 12.7384L12.0407 12.7477L11.8694 13.0611ZM4.05338 13.0638L3.15158 13.0797L2.88463 12.7769L3.92189 12.7755L4.05338 13.0638ZM3.04002 9.14578L1.44627 9.14445L1.42236 8.81109L3.02143 8.81906L3.04002 9.14578ZM3.4026 5.25305L2.28166 5.24773L2.46494 4.925L3.51283 4.92234L3.4026 5.25305ZM13.9094 13.077L13.1099 13.0704L13.2506 12.757L14.1671 12.7623L13.9094 13.077ZM5.15838 4.02586L5.15971 4.01391C5.18627 3.97539 5.61791 3.0218 6.44002 2.32586C7.27541 1.61797 8.04971 1.40547 8.08291 1.39617L8.07627 1.74813C8.0683 1.75078 7.38564 1.92211 6.59408 2.55961C5.66174 3.31 5.16502 4.01789 5.15838 4.02586ZM11.8508 4.05242C11.8468 4.04578 11.5174 3.45875 10.5957 2.70305C9.86393 2.10406 9.02057 1.7282 9.01127 1.72422L9.01525 1.37891C9.0551 1.39484 9.929 1.77336 10.6781 2.44539C11.5228 3.20242 11.8282 3.99797 11.8442 4.02719L11.8508 4.05242ZM13.9811 4.05375C13.9771 4.04844 13.5322 3.63805 13.0461 3.25023C12.5866 2.88234 12.2612 2.72828 12.2559 2.7243L11.9185 2.31125C11.9451 2.32453 12.6928 2.69906 13.167 3.11078C13.6358 3.51852 13.9559 4.01391 13.9718 4.03383L13.9811 4.05375ZM3.15291 4.02453L3.15689 4.01125C3.1715 3.99398 3.4358 3.58227 3.89533 3.15328C4.45447 2.63266 5.07604 2.39227 5.09729 2.38031L4.79979 2.72563C4.79447 2.72828 4.56072 2.81063 3.97768 3.27945C3.51283 3.65398 3.15689 4.02055 3.15291 4.02453Z" fill="#188AFF"/>
<path d="M8.51459 16.541C3.06264 16.541 1.25639 11.9709 1.23779 11.9258L1.25373 11.9577C1.27232 12.0015 3.28842 16.209 8.51459 16.209H8.53186C11.3422 16.2037 13.1033 15.0336 14.0874 14.0521C15.1565 12.9856 15.721 11.9948 15.725 11.9842L15.7316 11.9709C15.7144 12.0161 14.1472 16.5304 8.53318 16.541H8.51459Z" fill="#188AFF"/>
<defs>
<radialGradient id="paint0_radial_168_21524" cx="0" cy="0" r="1" gradientUnits="userSpaceOnUse" gradientTransform="translate(8.63615 0.667214) scale(14.0682)">
<stop offset="0.21" stop-color="#01B3F7"/>
<stop offset="0.457" stop-color="#01B3F7"/>
</radialGradient>
</defs>
</svg>
