<svg width="17" height="17" viewBox="0 0 17 17" fill="none" xmlns="http://www.w3.org/2000/svg">
<path d="M15.045 3.79706C13.0555 1.01331 9.81221 0.737056 8.50666 0.717134C7.24494 0.69854 4.56213 1.11823 2.60182 3.13299C1.14752 4.62713 0.440956 6.48784 0.467519 8.63807C0.491425 10.5864 1.15947 12.1921 2.38002 13.6557C4.18228 15.8166 6.74291 16.3771 8.53322 16.3771C8.58369 16.3771 8.63416 16.3771 8.68463 16.3757C10.4298 16.3292 13.4486 15.8285 15.2509 12.8788C16.0478 11.5746 16.498 10.0552 16.5166 8.60088C16.5471 6.25542 15.6081 4.58331 15.045 3.79706V3.79706ZM15.563 7.9501L14.0356 7.94612C13.9878 6.85174 13.8006 5.91541 13.5336 5.11721L14.6984 5.1212C15.0782 5.80385 15.4687 6.75877 15.563 7.9501ZM1.43705 8.97807L3.02947 8.98206C3.09322 9.87588 3.23932 10.8693 3.55408 11.8442H2.25916C1.77307 10.9796 1.49947 10.0273 1.43705 8.97807ZM9.01268 1.55916C9.48283 1.73581 10.8481 2.36135 11.8496 4.05073L9.00603 4.04276L9.01268 1.55916V1.55916ZM8.07635 1.59768V4.0401L5.15314 4.03213C6.24752 2.30823 7.8001 1.69463 8.07635 1.59768V1.59768ZM8.07635 5.1026V7.93284L4.06142 7.92354C4.08799 6.8026 4.29783 5.86893 4.60994 5.09331L8.07635 5.1026ZM2.99096 7.91956L1.449 7.91557C1.54064 6.89026 1.86471 5.93799 2.37736 5.08534L3.45713 5.08799C3.17955 5.8862 2.99892 6.82385 2.99096 7.91956V7.91956ZM4.084 8.98471L8.07635 8.99401V11.8442H4.64846C4.36158 11.0646 4.15572 10.1216 4.084 8.98471ZM8.07635 12.9067V15.454C7.53713 15.2814 6.13064 14.6784 5.13455 12.9067H8.07635ZM8.98744 15.4726L9.00603 12.9067H11.9531C11.0434 14.6704 9.68205 15.3066 8.98744 15.4726ZM9.00603 11.8442V8.99666L12.9413 9.00596C12.8948 10.1349 12.7049 11.0699 12.4313 11.8442H9.00603V11.8442ZM9.00603 7.93417V5.10526L12.3742 5.11456C12.677 5.88885 12.8895 6.8212 12.9399 7.94346L9.00603 7.93417V7.93417ZM13.9838 4.05737L13.0953 4.05471C12.7726 3.40526 12.4021 2.87932 12.0355 2.45698C12.7235 2.82221 13.4021 3.3362 13.9838 4.05737ZM4.98049 2.5194C4.5654 2.97574 4.20891 3.48214 3.91932 4.02682L3.15166 4.02416C3.2433 3.91924 3.3376 3.81565 3.43455 3.71471C3.92596 3.21268 4.45189 2.82088 4.98049 2.5194ZM3.11182 13.0355C3.07463 12.993 3.03877 12.9492 3.00158 12.9067H3.9751C4.25932 13.5003 4.62322 14.0674 5.08807 14.5801C4.37486 14.1976 3.68689 13.6863 3.11182 13.0355ZM12.0182 14.6532C12.4167 14.1684 12.9107 13.5787 13.1843 12.9067H14.0503C13.5137 13.5827 12.6783 14.2799 12.0182 14.6532ZM14.7369 11.8442H13.5854C13.8829 10.868 14.0051 9.8812 14.0383 9.00862L15.567 9.0126C15.4767 10.2252 15.0849 11.1894 14.7369 11.8442Z" fill="url(#paint0_radial_33_22714)"/>
<path d="M12.4383 5.27924L9.00512 5.26862L9.00645 4.93659L12.3175 4.95252L12.4383 5.27924ZM8.07676 5.26596L4.5466 5.25799L4.67277 4.92995L8.07676 4.93393V5.26596ZM8.07676 9.1587L4.09504 9.15206L4.0698 8.8187L8.07676 8.82667V9.1587ZM12.935 9.16799L9.00645 9.16003V8.82799L12.951 8.8426L12.935 9.16799ZM15.5514 9.17463L14.0294 9.17596L14.044 8.84128L15.582 8.84526L15.5514 9.17463ZM14.7825 5.27526L13.5885 5.2819L13.4822 4.96049L14.6191 4.96846L14.7825 5.27526ZM8.07676 13.07L5.22926 13.0687L5.04332 12.7579L8.08207 12.7393L8.07676 13.07ZM11.8699 13.0607L9.00379 13.07L9.00645 12.738L12.0412 12.7473L11.8699 13.0607ZM4.05387 13.0634L3.15207 13.0793L2.88512 12.7765L3.92238 12.7752L4.05387 13.0634ZM3.04051 9.14542L1.44676 9.14409L1.42285 8.81073L3.02191 8.8187L3.04051 9.14542ZM3.40309 5.25268L2.28215 5.24737L2.46543 4.92463L3.51332 4.92198L3.40309 5.25268ZM13.9099 13.0767L13.1104 13.07L13.2511 12.7566L14.1675 12.7619L13.9099 13.0767ZM5.15887 4.02549L5.1602 4.01354C5.18676 3.97502 5.6184 3.02143 6.44051 2.32549C7.2759 1.6176 8.0502 1.4051 8.0834 1.39581L8.07676 1.74776C8.06879 1.75042 7.38613 1.92174 6.59457 2.55924C5.66223 3.30963 5.16551 4.01752 5.15887 4.02549ZM11.8513 4.05206C11.8473 4.04542 11.5179 3.45838 10.5962 2.70268C9.86441 2.1037 9.02105 1.72784 9.01176 1.72385L9.01574 1.37854C9.05559 1.39448 9.92949 1.77299 10.6786 2.44502C11.5232 3.20206 11.8287 3.9976 11.8446 4.02682L11.8513 4.05206V4.05206ZM13.9816 4.05338C13.9776 4.04807 13.5327 3.63768 13.0466 3.24987C12.5871 2.88198 12.2617 2.72792 12.2564 2.72393L11.919 2.31088C11.9456 2.32417 12.6933 2.6987 13.1675 3.11042C13.6363 3.51815 13.9564 4.01354 13.9723 4.03346L13.9816 4.05338V4.05338ZM3.1534 4.02417L3.15738 4.01088C3.17199 3.99362 3.43629 3.5819 3.89582 3.15292C4.45496 2.63229 5.07652 2.3919 5.09777 2.37995L4.80027 2.72526C4.79496 2.72792 4.56121 2.81026 3.97816 3.27909C3.51332 3.65362 3.15738 4.02018 3.1534 4.02417V4.02417Z" fill="#188AFF"/>
<path d="M8.51508 16.5417C3.06313 16.5417 1.25688 11.9717 1.23828 11.9265L1.25422 11.9584C1.27281 12.0022 3.28891 16.2097 8.51508 16.2097H8.53234C11.3427 16.2044 13.1038 15.0343 14.0879 14.0528C15.157 12.9864 15.7215 11.9956 15.7255 11.985L15.7321 11.9717C15.7148 12.0168 14.1477 16.5311 8.53367 16.5417H8.51508V16.5417Z" fill="#188AFF"/>
<defs>
<radialGradient id="paint0_radial_33_22714" cx="0" cy="0" r="1" gradientUnits="userSpaceOnUse" gradientTransform="translate(8.63615 0.668923) scale(14.0682)">
<stop offset="0.21" stop-color="#01B3F7"/>
<stop offset="0.457" stop-color="#01B3F7"/>
</radialGradient>
</defs>
</svg>
