<svg width="20" height="20" viewBox="0 0 20 20" fill="none" xmlns="http://www.w3.org/2000/svg">
<path d="M17.6999 4.46738C15.3593 1.19238 11.5437 0.867383 10.0077 0.843945C8.52336 0.82207 5.36711 1.31582 3.06086 3.68613C1.34992 5.44395 0.518671 7.63301 0.549921 10.1627C0.578046 12.4549 1.36398 14.3439 2.79992 16.0658C4.92023 18.608 7.93273 19.2674 10.039 19.2674C10.0984 19.2674 10.1577 19.2674 10.2171 19.2658C12.2702 19.2111 15.8218 18.6221 17.9421 15.1518C18.8796 13.6174 19.4093 11.8299 19.4312 10.1189C19.4671 7.35957 18.3624 5.39238 17.6999 4.46738V4.46738ZM18.3093 9.35332L16.5124 9.34863C16.4562 8.06113 16.2359 6.95957 15.9218 6.02051L17.2921 6.0252C17.739 6.82832 18.1984 7.95176 18.3093 9.35332ZM1.69055 10.5627L3.56398 10.5674C3.63898 11.6189 3.81086 12.7877 4.18117 13.9346H2.65773C2.08586 12.9174 1.76398 11.7971 1.69055 10.5627ZM10.603 1.83457C11.1562 2.04238 12.7624 2.77832 13.9405 4.76582L10.5952 4.75645L10.603 1.83457V1.83457ZM9.50148 1.87988V4.75332L6.06242 4.74395C7.34992 2.71582 9.17648 1.99395 9.50148 1.87988V1.87988ZM9.50148 6.00332V9.33301L4.77805 9.32207C4.8093 8.00332 5.05617 6.90488 5.42336 5.99238L9.50148 6.00332ZM3.51867 9.31738L1.70461 9.31269C1.81242 8.10644 2.19367 6.98613 2.7968 5.98301L4.06711 5.98613C3.74055 6.9252 3.52805 8.02832 3.51867 9.31738V9.31738ZM4.80461 10.5705L9.50148 10.5814V13.9346H5.46867C5.13117 13.0174 4.88898 11.908 4.80461 10.5705ZM9.50148 15.1846V18.1814C8.86711 17.9783 7.21242 17.2689 6.04055 15.1846H9.50148ZM10.5734 18.2033L10.5952 15.1846H14.0624C12.9921 17.2596 11.3905 18.008 10.5734 18.2033ZM10.5952 13.9346V10.5846L15.2249 10.5955C15.1702 11.9236 14.9468 13.0236 14.6249 13.9346H10.5952V13.9346ZM10.5952 9.33457V6.00644L14.5577 6.01738C14.914 6.92832 15.164 8.0252 15.2234 9.34551L10.5952 9.33457V9.33457ZM16.4515 4.77363L15.4062 4.77051C15.0265 4.00645 14.5905 3.3877 14.1593 2.89082C14.9687 3.32051 15.7671 3.9252 16.4515 4.77363ZM5.8593 2.96426C5.37095 3.50113 4.95156 4.09689 4.61086 4.7377L3.70773 4.73457C3.81555 4.61113 3.92648 4.48926 4.04055 4.37051C4.61867 3.77988 5.23742 3.31895 5.8593 2.96426ZM3.66086 15.3361C3.61711 15.2861 3.57492 15.2346 3.53117 15.1846H4.67648C5.01086 15.883 5.43898 16.5502 5.98586 17.1533C5.1468 16.7033 4.33742 16.1018 3.66086 15.3361ZM14.139 17.2393C14.6077 16.6689 15.189 15.9752 15.5109 15.1846H16.5296C15.8984 15.9799 14.9155 16.8002 14.139 17.2393ZM17.3374 13.9346H15.9827C16.3327 12.7861 16.4765 11.6252 16.5155 10.5986L18.314 10.6033C18.2077 12.0299 17.7468 13.1643 17.3374 13.9346Z" fill="url(#paint0_radial_29_20631)"/>
<path d="M14.6327 6.21113L10.5937 6.19863L10.5952 5.80801L14.4905 5.82676L14.6327 6.21113ZM9.50147 6.19551L5.34834 6.18613L5.49678 5.80019L9.50147 5.80488V6.19551ZM9.50147 10.7752L4.81709 10.7674L4.7874 10.3752L9.50147 10.3846V10.7752ZM15.2171 10.7861L10.5952 10.7768V10.3861L15.2358 10.4033L15.2171 10.7861ZM18.2952 10.7939L16.5046 10.7955L16.5218 10.4018L18.3312 10.4064L18.2952 10.7939ZM17.3905 6.20645L15.9858 6.21426L15.8608 5.83613L17.1983 5.84551L17.3905 6.20645ZM9.50147 15.3768L6.15146 15.3752L5.93272 15.0096L9.50771 14.9877L9.50147 15.3768ZM13.964 15.3658L10.5921 15.3768L10.5952 14.9861L14.1655 14.9971L13.964 15.3658ZM4.76865 15.3689L3.70771 15.3877L3.39365 15.0314L4.61396 15.0299L4.76865 15.3689ZM3.57646 10.7596L1.70146 10.758L1.67334 10.3658L3.55459 10.3752L3.57646 10.7596ZM4.00303 6.17988L2.68428 6.17363L2.8999 5.79395L4.13271 5.79082L4.00303 6.17988ZM16.364 15.3846L15.4233 15.3768L15.589 15.008L16.6671 15.0143L16.364 15.3846ZM6.06865 4.73613L6.07021 4.72207C6.10146 4.67676 6.60928 3.55488 7.57647 2.73613C8.55928 1.90332 9.47022 1.65332 9.50928 1.64238L9.50147 2.05645C9.49209 2.05957 8.68897 2.26113 7.75772 3.01113C6.66084 3.89395 6.07647 4.72676 6.06865 4.73613ZM13.9421 4.76738C13.9374 4.75957 13.5499 4.06895 12.4655 3.17988C11.6046 2.4752 10.6124 2.03301 10.6015 2.02832L10.6062 1.62207C10.653 1.64082 11.6812 2.08613 12.5624 2.87676C13.5562 3.76738 13.9155 4.70332 13.9343 4.7377L13.9421 4.76738V4.76738ZM16.4483 4.76895C16.4437 4.7627 15.9202 4.27988 15.3483 3.82363C14.8077 3.39082 14.4249 3.20957 14.4187 3.20488L14.0218 2.71895C14.053 2.73457 14.9327 3.1752 15.4905 3.65957C16.0421 4.13926 16.4187 4.72207 16.4374 4.74551L16.4483 4.76895V4.76895ZM3.70928 4.73457L3.71396 4.71895C3.73115 4.69863 4.04209 4.21426 4.58271 3.70957C5.24053 3.09707 5.97178 2.81426 5.99678 2.8002L5.64678 3.20645C5.64053 3.20957 5.36553 3.30645 4.67959 3.85801C4.13272 4.29863 3.71396 4.72988 3.70928 4.73457V4.73457Z" fill="#188AFF"/>
<path d="M10.0172 19.4609C3.60317 19.4609 1.47817 14.0844 1.4563 14.0312L1.47505 14.0687C1.49692 14.1203 3.8688 19.0703 10.0172 19.0703H10.0375C13.3438 19.0641 15.4157 17.6875 16.5735 16.5328C17.8313 15.2781 18.4954 14.1125 18.5 14.1L18.5079 14.0844C18.4875 14.1375 16.6438 19.4484 10.0391 19.4609H10.0172V19.4609Z" fill="#188AFF"/>
<defs>
<radialGradient id="paint0_radial_29_20631" cx="0" cy="0" r="1" gradientUnits="userSpaceOnUse" gradientTransform="translate(10.1601 0.787226) scale(16.5508)">
<stop offset="0.21" stop-color="#01B3F7"/>
<stop offset="0.457" stop-color="#01B3F7"/>
</radialGradient>
</defs>
</svg>
