<svg width="39" height="32" viewBox="0 0 39 32" fill="none" xmlns="http://www.w3.org/2000/svg">
<path d="M27.8306 3.17333C27.4602 2.80144 27.0199 2.50635 26.5351 2.305C26.0503 2.10365 25.5306 2 25.0056 2C24.4807 2 23.9609 2.10365 23.4761 2.305C22.9914 2.50635 22.5511 2.80144 22.1806 3.17333L22.1431 3.21083L15.2806 10.8608L14.1306 9.71083C13.8528 9.42965 13.5219 9.20641 13.1571 9.05404C12.7923 8.90168 12.4009 8.82322 12.0056 8.82322C11.6103 8.82322 11.2189 8.90168 10.8542 9.05404C10.4894 9.20641 10.1585 9.42965 9.88062 9.71083L0.293125 19.2858C0.105344 19.4754 0 19.7315 0 19.9983C0 20.2652 0.105344 20.5212 0.293125 20.7108L10.2931 30.7108C10.4843 30.8957 10.7397 30.999 11.0056 30.999C11.2715 30.999 11.527 30.8957 11.7181 30.7108L21.2931 21.1233C21.5743 20.8455 21.7976 20.5146 21.9499 20.1498C22.1023 19.785 22.1807 19.3936 22.1807 18.9983C22.1807 18.603 22.1023 18.2116 21.9499 17.8469C21.7976 17.4821 21.5743 17.1512 21.2931 16.8733L20.1431 15.7233L27.7931 8.86083L27.8306 8.82333C28.2025 8.45286 28.4976 8.01261 28.699 7.52782C28.9003 7.04304 29.004 6.52327 29.004 5.99833C29.004 5.4734 28.9003 4.95363 28.699 4.46885C28.4976 3.98406 28.2025 3.54381 27.8306 3.17333V3.17333ZM11.0056 28.5858L9.24313 26.8233L12.4306 23.6233C12.603 23.4331 12.6956 23.1839 12.6893 22.9273C12.683 22.6707 12.5782 22.4263 12.3967 22.2448C12.2152 22.0633 11.9708 21.9585 11.7142 21.9522C11.4576 21.9459 11.2084 22.0385 11.0181 22.2108L7.83063 25.4108L5.74313 23.3233L8.93063 20.1233C9.10299 19.9331 9.19559 19.6839 9.18927 19.4273C9.18296 19.1707 9.07819 18.9263 8.89668 18.7448C8.71517 18.5633 8.47081 18.4585 8.21419 18.4522C7.95757 18.4459 7.70835 18.5385 7.51813 18.7108L4.33063 21.9108L2.41813 19.9983L8.00562 14.4108L16.5931 22.9983L11.0056 28.5858ZM26.4431 7.39833L18.8181 14.2358C18.6151 14.4181 18.4508 14.6392 18.3348 14.8861C18.2189 15.133 18.1537 15.4007 18.1431 15.6733C18.1369 15.9442 18.1857 16.2135 18.2867 16.4649C18.3877 16.7163 18.5387 16.9446 18.7306 17.1358L19.8806 18.2858C19.9751 18.3789 20.0501 18.4898 20.1014 18.6121C20.1526 18.7344 20.179 18.8657 20.179 18.9983C20.179 19.1309 20.1526 19.2622 20.1014 19.3846C20.0501 19.5069 19.9751 19.6178 19.8806 19.7108L18.0056 21.5858L9.41813 12.9983L11.2931 11.1233C11.3862 11.0288 11.4971 10.9538 11.6194 10.9026C11.7417 10.8514 11.873 10.825 12.0056 10.825C12.1382 10.825 12.2695 10.8514 12.3918 10.9026C12.5142 10.9538 12.6251 11.0288 12.7181 11.1233L13.8681 12.2733C14.0594 12.4652 14.2877 12.6162 14.5391 12.7172C14.7905 12.8182 15.0598 12.8671 15.3306 12.8608C15.6032 12.8503 15.8709 12.7851 16.1178 12.6692C16.3648 12.5532 16.5859 12.3888 16.7681 12.1858L23.6056 4.56083C23.9907 4.23148 24.4858 4.05948 24.992 4.07918C25.4983 4.09888 25.9786 4.30883 26.3369 4.66711C26.6951 5.02538 26.9051 5.50562 26.9248 6.01191C26.9445 6.51821 26.7725 7.0133 26.4431 7.39833V7.39833Z" fill="#AAAAAA"/>
</svg>
