<svg width="15" height="16" viewBox="0 0 15 16" fill="none" xmlns="http://www.w3.org/2000/svg">
<path d="M0.213125 15.7858C0.0766438 15.6489 0 15.4636 0 15.2703C0 15.077 0.0766438 14.8916 0.213125 14.7548L5.60012 9.37078C4.62071 8.38086 4.05408 7.05574 4.01497 5.66373C3.97586 4.27173 4.46719 2.91688 5.38948 1.87353C6.31176 0.830171 7.59607 0.176284 8.98235 0.0442696C10.3686 -0.0877446 11.7533 0.31198 12.8559 1.1625C13.9586 2.01303 14.6968 3.25079 14.9211 4.62515C15.1454 5.99952 14.8391 7.40777 14.0641 8.56476C13.2892 9.72176 12.1035 10.541 10.7472 10.8567C9.39088 11.1723 7.9653 10.9607 6.75912 10.2648C6.73754 10.2942 6.71381 10.3219 6.68813 10.3478L1.24613 15.7858C1.10924 15.9226 0.923641 15.9994 0.730125 15.9994C0.536609 15.9994 0.351011 15.9226 0.214125 15.7858H0.213125ZM5.13713 5.49978C5.13713 6.36246 5.39293 7.20577 5.87219 7.92308C6.35144 8.64038 7.03264 9.19947 7.82963 9.52965C8.62662 9.85983 9.50362 9.94627 10.3497 9.77804C11.1959 9.60981 11.9731 9.19447 12.5832 8.58454C13.1932 7.9746 13.6088 7.19746 13.7772 6.35138C13.9456 5.5053 13.8594 4.62828 13.5294 3.83121C13.1994 3.03414 12.6404 2.35282 11.9233 1.8734C11.2061 1.39398 10.3628 1.13798 9.50012 1.13778C8.34348 1.13884 7.2345 1.59872 6.41654 2.41649C5.59858 3.23427 5.13845 4.34314 5.13713 5.49978Z" fill="#696969"/>
</svg>
