<svg width="15" height="16" viewBox="0 0 15 16" fill="none" xmlns="http://www.w3.org/2000/svg">
<path d="M0.213003 15.7858C0.0765218 15.6489 -0.00012207 15.4636 -0.00012207 15.2703C-0.00012207 15.077 0.0765218 14.8916 0.213003 14.7548L5.6 9.37078C4.62059 8.38086 4.05396 7.05574 4.01485 5.66373C3.97574 4.27173 4.46707 2.91688 5.38936 1.87353C6.31164 0.830171 7.59595 0.176284 8.98223 0.0442696C10.3685 -0.0877446 11.7532 0.31198 12.8558 1.1625C13.9584 2.01303 14.6967 3.25079 14.921 4.62515C15.1453 5.99952 14.839 7.40777 14.064 8.56476C13.289 9.72176 12.1034 10.541 10.7471 10.8567C9.39075 11.1723 7.96518 10.9607 6.759 10.2648C6.73742 10.2942 6.71369 10.3219 6.688 10.3478L1.246 15.7858C1.10912 15.9226 0.923519 15.9994 0.730003 15.9994C0.536487 15.9994 0.350889 15.9226 0.214003 15.7858H0.213003ZM5.137 5.49978C5.137 6.36246 5.3928 7.20577 5.87206 7.92308C6.35132 8.64038 7.03251 9.19947 7.82951 9.52965C8.6265 9.85983 9.5035 9.94627 10.3496 9.77804C11.1957 9.60982 11.973 9.19447 12.583 8.58454C13.1931 7.9746 13.6086 7.19746 13.7771 6.35138C13.9455 5.5053 13.8592 4.62828 13.5293 3.83121C13.1993 3.03414 12.6403 2.35282 11.9231 1.8734C11.2059 1.39398 10.3627 1.13798 9.5 1.13778C8.34336 1.13884 7.23438 1.59872 6.41642 2.41649C5.59846 3.23427 5.13833 4.34314 5.137 5.49978Z" fill="#696969"/>
</svg>
