<svg width="15" height="16" viewBox="0 0 15 16" fill="none" xmlns="http://www.w3.org/2000/svg">
<path d="M0.213003 15.786C0.0765218 15.6492 -0.00012207 15.4638 -0.00012207 15.2705C-0.00012207 15.0773 0.0765218 14.8919 0.213003 14.755L5.6 9.37103C4.62059 8.3811 4.05396 7.05598 4.01485 5.66398C3.97574 4.27198 4.46707 2.91713 5.38936 1.87377C6.31164 0.830415 7.59595 0.176528 8.98223 0.0445137C10.3685 -0.0875005 11.7532 0.312224 12.8558 1.16275C13.9584 2.01327 14.6967 3.25103 14.921 4.6254C15.1453 5.99976 14.839 7.40802 14.064 8.56501C13.2891 9.722 12.1034 10.5413 10.7471 10.8569C9.39075 11.1725 7.96518 10.961 6.759 10.265C6.73742 10.2944 6.71369 10.3222 6.688 10.348L1.246 15.786C1.10912 15.9228 0.923519 15.9997 0.730003 15.9997C0.536487 15.9997 0.350889 15.9228 0.214003 15.786H0.213003ZM5.137 5.50003C5.137 6.36271 5.3928 7.20602 5.87206 7.92332C6.35132 8.64063 7.03251 9.19972 7.82951 9.5299C8.6265 9.86007 9.5035 9.94652 10.3496 9.77829C11.1957 9.61006 11.973 9.19472 12.583 8.58478C13.1931 7.97484 13.6086 7.19771 13.7771 6.35163C13.9455 5.50555 13.8592 4.62853 13.5293 3.83146C13.1993 3.03439 12.6403 2.35307 11.9231 1.87364C11.2059 1.39422 10.3627 1.13823 9.5 1.13803C8.34336 1.13909 7.23438 1.59896 6.41642 2.41674C5.59846 3.23451 5.13833 4.34339 5.137 5.50003Z" fill="#696969"/>
</svg>
