<svg width="20" height="20" viewBox="0 0 20 20" fill="none" xmlns="http://www.w3.org/2000/svg">
<path fill-rule="evenodd" clip-rule="evenodd" d="M4.28571 14.7L5.71429 13.2714V15.3L4.07143 16.9286L2.85714 16.4286V12.8571H0.714286L0 12.1429V0.714286L0.714286 0H17.8571L18.5714 0.714286V7.14286H17.1429V1.42857H1.42857V11.4286H3.57143L4.28571 12.1429V14.7ZM13.2714 17.1429L15.9286 19.7857L17.1429 19.2857V17.1429H19.2857L20 16.4286V9.28571L19.2857 8.57143H7.85714L7.14286 9.28571V16.4286L7.85714 17.1429H13.2714ZM13.5714 15.7143H8.57143V10H18.5714V15.7143H16.4286L15.7143 16.4286V17.5571L14.0714 15.9286L13.5714 15.7143Z" fill="#605E5C"/>
</svg>
