<svg width="17" height="19" viewBox="0 0 17 19" fill="none" xmlns="http://www.w3.org/2000/svg">
<path fill-rule="evenodd" clip-rule="evenodd" d="M16.3751 12.125V0.96875L15.7189 0.3125H2.90887C2.60785 0.315831 2.30992 0.373638 2.0295 0.483125C1.74683 0.608743 1.49209 0.789546 1.28023 1.01493C1.06837 1.24031 0.903657 1.50573 0.795747 1.79562C0.688389 2.05379 0.630509 2.32983 0.625122 2.60938V15.0781C0.621967 15.3798 0.680012 15.6789 0.795747 15.9575C1.02826 16.5184 1.47111 16.9659 2.0295 17.2044C2.30992 17.3139 2.60785 17.3717 2.90887 17.375H3.25012V16.0625H2.90887C2.77791 16.0629 2.64829 16.0361 2.52825 15.9837C2.29062 15.8852 2.10181 15.6964 2.00325 15.4587C1.96131 15.3362 1.93916 15.2077 1.93762 15.0781V14.4219C1.93916 14.2923 1.96131 14.1638 2.00325 14.0413C2.10181 13.8036 2.29062 13.6148 2.52825 13.5163C2.64649 13.4647 2.77403 13.4379 2.90298 13.4375H2.90887H3.25009H15.0626V16.0625H9.81262V17.375H15.7189L16.3751 16.7188V13.4375V12.125ZM3.25009 12.125V1.625H15.0626V12.125H3.25009ZM4.56259 2.9375H5.87509V4.25H4.56259V2.9375ZM4.56259 5.5625H5.87509V6.875H4.56259V5.5625ZM5.87509 8.1875H4.56259V9.5H5.87509V8.1875ZM6.53134 16.7056L4.93009 18.6875H4.56259V14.75H8.50009V18.6875H8.13259L6.53134 16.7056Z" fill="#605E5C"/>
</svg>
