<svg width="19" height="19" viewBox="0 0 19 19" fill="none" xmlns="http://www.w3.org/2000/svg">
<path fill-rule="evenodd" clip-rule="evenodd" d="M18.0312 1.625H16.0625V0.3125H14.75V1.625H4.25V0.3125H2.9375V1.625H0.96875L0.3125 2.28125V18.0312L0.96875 18.6875H18.0312L18.6875 18.0312V2.28125L18.0312 1.625ZM17.375 17.375H1.625V5.5625H17.375V17.375ZM17.375 4.25H1.625V2.9375H17.375V4.25ZM4.25 9.5H2.9375V10.8125H4.25V9.5ZM2.9375 12.125H4.25V13.4375H2.9375V12.125ZM4.25 14.75H2.9375V16.0625H4.25V14.75ZM6.875 9.5H8.1875V10.8125H6.875V9.5ZM8.1875 12.125H6.875V13.4375H8.1875V12.125ZM6.875 14.75H8.1875V16.0625H6.875V14.75ZM8.1875 6.875H6.875V8.1875H8.1875V6.875ZM10.8125 9.5H12.125V10.8125H10.8125V9.5ZM12.125 12.125H10.8125V13.4375H12.125V12.125ZM10.8125 14.75H12.125V16.0625H10.8125V14.75ZM12.125 6.875H10.8125V8.1875H12.125V6.875ZM14.75 9.5H16.0625V10.8125H14.75V9.5ZM16.0625 12.125H14.75V13.4375H16.0625V12.125ZM14.75 6.875H16.0625V8.1875H14.75V6.875Z" fill="#605E5C"/>
</svg>
