<svg width="23" height="27" viewBox="0 0 23 27" fill="none" xmlns="http://www.w3.org/2000/svg">
<path fill-rule="evenodd" clip-rule="evenodd" d="M16.375 4.8125H20.25H22.1875V6.75H20.25V24.1875L18.3125 26.125H4.75L2.8125 24.1875V6.75H0.875V4.8125H6.6875V2.875C6.6875 2.36114 6.89154 1.86824 7.25489 1.50489C7.61824 1.14154 8.11114 0.9375 8.625 0.9375H14.4375C14.9514 0.9375 15.4443 1.14154 15.8076 1.50489C16.171 1.86824 16.375 2.36114 16.375 2.875V4.8125ZM14.4375 2.875H8.625V4.8125H14.4375V2.875ZM4.75 24.1875H18.3125V6.75H4.75V24.1875ZM8.625 8.6875H6.6875V22.25H8.625V8.6875ZM10.5625 8.6875H12.5V22.25H10.5625V8.6875ZM14.4375 8.6875H16.375V22.25H14.4375V8.6875Z" fill="#605E5C"/>
</svg>
