<svg width="19" height="19" viewBox="0 0 19 19" fill="none" xmlns="http://www.w3.org/2000/svg">
<path fill-rule="evenodd" clip-rule="evenodd" d="M10.9583 5.12013C10.5266 5.40856 10.0191 5.56249 9.49991 5.56249C8.80372 5.56249 8.13608 5.28589 7.6438 4.7936C7.15151 4.30132 6.87491 3.63368 6.87491 2.93749C6.87491 2.41831 7.02883 1.91087 7.31727 1.47919C7.60571 1.04751 8.01569 0.710957 8.49535 0.512277C8.97501 0.313597 9.50285 0.261668 10.012 0.362954C10.5212 0.46424 10.9889 0.714256 11.356 1.08137C11.7231 1.44848 11.9732 1.91623 12.0744 2.42543C12.1757 2.93463 12.1238 3.46239 11.9251 3.94205C11.7264 4.4217 11.39 4.83169 10.9583 5.12013ZM10.2291 1.84625C10.0132 1.70203 9.7595 1.62499 9.49991 1.62499C9.15182 1.62499 8.818 1.76321 8.57185 2.00935C8.32571 2.25549 8.18741 2.58939 8.18741 2.93749C8.18741 3.19707 8.26437 3.45079 8.40859 3.66663C8.55281 3.88247 8.7578 4.05067 8.99763 4.15001C9.23746 4.24935 9.50134 4.27547 9.75594 4.22483C10.0105 4.17419 10.2444 4.04918 10.428 3.86562C10.6115 3.68207 10.7365 3.44811 10.7872 3.19351C10.8378 2.93891 10.8119 2.67503 10.7125 2.4352C10.6132 2.19538 10.4449 1.99047 10.2291 1.84625ZM13.6561 1.88708C13.9799 1.66951 14.3605 1.55338 14.7499 1.55338C15.2721 1.55338 15.7728 1.762 16.142 2.13333C16.5112 2.50466 16.7187 3.0083 16.7187 3.53345C16.7187 3.92507 16.6032 4.30789 16.3869 4.63351C16.1705 4.95913 15.8631 5.21292 15.5033 5.36279C15.1436 5.51266 14.7477 5.55187 14.3658 5.47547C13.9839 5.39907 13.6331 5.21048 13.3578 4.93357C13.0825 4.65665 12.895 4.30383 12.819 3.91974C12.743 3.53564 12.782 3.13752 12.931 2.77571C13.08 2.4139 13.3324 2.10466 13.6561 1.88708ZM14.2859 4.00015C14.4089 4.12393 14.5759 4.19347 14.7499 4.19347C14.924 4.19347 15.0909 4.12393 15.214 4.00015C15.337 3.87638 15.4062 3.7085 15.4062 3.53345C15.4028 3.35946 15.3326 3.19353 15.2102 3.07048C15.0879 2.94743 14.9229 2.87681 14.7499 2.87343C14.5759 2.87343 14.4089 2.94296 14.2859 3.06674C14.1628 3.19052 14.0937 3.3584 14.0937 3.53345C14.0937 3.7085 14.1628 3.87638 14.2859 4.00015ZM3.18681 15.3874H5.56244V16.7075H3.18681C2.77138 16.704 2.37413 16.5356 2.08159 16.2389C1.78906 15.9422 1.62492 15.5413 1.62494 15.1234V12.7473C1.44846 12.7415 1.27497 12.6999 1.11485 12.6251C0.954728 12.5502 0.81127 12.4437 0.693063 12.3117C0.568231 12.1853 0.470152 12.0347 0.404737 11.8691C0.339322 11.7035 0.307924 11.5262 0.312438 11.3481V8.48361C0.316378 7.86494 0.561424 7.2725 0.994938 6.83356C1.42654 6.39834 2.01128 6.15172 2.62244 6.14713H5.03744C4.71196 6.53451 4.46655 6.98328 4.31556 7.46718H2.62244C2.35647 7.47441 2.10316 7.58293 1.91369 7.77079C1.72825 7.96114 1.62456 8.21712 1.62494 8.48361V11.4141H2.93744V15.1234C2.93442 15.1592 2.93869 15.1952 2.94997 15.2292C2.96125 15.2633 2.97932 15.2946 3.00306 15.3214C3.05582 15.3624 3.12016 15.3855 3.18681 15.3874ZM12.7681 6.83356C12.3332 6.39513 11.7431 6.14824 11.1274 6.14713H7.87243C7.26128 6.15172 6.67653 6.39834 6.24493 6.83356C5.81142 7.2725 5.56637 7.86494 5.56243 8.48361V12.6549C5.56057 13.0136 5.697 13.359 5.94306 13.6186C6.06126 13.7505 6.20472 13.8571 6.36484 13.9319C6.52496 14.0068 6.69845 14.0484 6.87493 14.0542V17.1035C6.8737 17.3118 6.91368 17.5183 6.99255 17.7109C7.07141 17.9036 7.18759 18.0785 7.33431 18.2255C7.57032 18.4466 7.86811 18.5894 8.18743 18.6347H10.8124C11.1812 18.589 11.5198 18.4068 11.7624 18.1238C12.005 17.8408 12.1342 17.4771 12.1249 17.1035V14.0542C12.3014 14.0484 12.4749 14.0068 12.635 13.9319C12.7951 13.8571 12.9386 13.7505 13.0568 13.6186C13.1816 13.4921 13.2797 13.3415 13.3451 13.1759C13.4105 13.0103 13.4419 12.8331 13.4374 12.6549V8.48361C13.4384 7.86653 13.198 7.27383 12.7681 6.83356ZM12.1249 12.7209H10.8124V17.1035C10.8114 17.1731 10.7831 17.2396 10.7337 17.2883C10.7113 17.315 10.683 17.336 10.6511 17.3498C10.6192 17.3635 10.5846 17.3696 10.5499 17.3675H8.43681C8.36822 17.3643 8.30329 17.3354 8.25474 17.2866C8.20618 17.2378 8.1775 17.1725 8.17431 17.1035V12.7209H6.87493V8.48361C6.87455 8.21712 6.97824 7.96114 7.16368 7.77079C7.35315 7.58293 7.60647 7.47441 7.87243 7.46718H11.1274C11.394 7.47171 11.6482 7.58063 11.8362 7.77079C11.9298 7.86374 12.0037 7.97485 12.0533 8.09739C12.1029 8.21992 12.1273 8.35132 12.1249 8.48361V12.7209ZM15.813 16.7075H13.4374V15.3874H15.7999C15.8666 15.3855 15.9309 15.3624 15.9837 15.3214C16.0098 15.2957 16.0302 15.2649 16.0438 15.2308C16.0574 15.1967 16.0637 15.1601 16.0624 15.1234V11.4141H17.3749V8.48361C17.3753 8.21712 17.2716 7.96114 17.0862 7.77079C16.8967 7.58293 16.6434 7.47441 16.3774 7.46718H14.6843C14.5333 6.98328 14.2879 6.53451 13.9624 6.14713H16.3774C16.9886 6.15172 17.5733 6.39834 18.0049 6.83356C18.4384 7.2725 18.6835 7.86494 18.6874 8.48361V11.3481C18.688 11.7059 18.5523 12.0503 18.3082 12.3105C18.064 12.5708 17.7301 12.7271 17.3749 12.7473V15.1234C17.3749 15.5413 17.2108 15.9422 16.9183 16.2389C16.6257 16.5356 16.2285 16.704 15.813 16.7075ZM4.24991 1.55338C3.86053 1.55338 3.47989 1.66951 3.15613 1.88708C2.83238 2.10466 2.58004 2.4139 2.43103 2.77571C2.28202 3.13752 2.24303 3.53564 2.31899 3.91974C2.39496 4.30383 2.58246 4.65665 2.8578 4.93357C3.13313 5.21048 3.48393 5.39907 3.86583 5.47547C4.24773 5.55187 4.64358 5.51266 5.00332 5.36279C5.36306 5.21292 5.67054 4.95913 5.88687 4.63351C6.1032 4.30789 6.21866 3.92507 6.21866 3.53345C6.21866 3.0083 6.01124 2.50466 5.64203 2.13333C5.27282 1.762 4.77206 1.55338 4.24991 1.55338ZM4.24991 4.19347C4.07586 4.19347 3.90895 4.12393 3.78587 4.00015C3.6628 3.87638 3.59366 3.7085 3.59366 3.53345C3.59366 3.3584 3.6628 3.19052 3.78587 3.06674C3.90895 2.94296 4.07586 2.87343 4.24991 2.87343C4.42291 2.87681 4.58788 2.94743 4.71023 3.07048C4.83258 3.19353 4.9028 3.35946 4.90616 3.53345C4.90616 3.7085 4.83702 3.87638 4.71395 4.00015C4.59088 4.12393 4.42396 4.19347 4.24991 4.19347Z" fill="#605E5C"/>
</svg>
