<svg width="19" height="11" viewBox="0 0 19 11" fill="none" xmlns="http://www.w3.org/2000/svg">
<g style="mix-blend-mode:multiply" opacity="0.35">
<path d="M18.2501 0.4425L10.3451 5.25L10.2326 5.3175C10.0687 5.39603 9.88932 5.43702 9.70757 5.4375C9.52344 5.43689 9.34167 5.39593 9.17507 5.3175V5.3175C9.13597 5.29779 9.09837 5.27523 9.06257 5.25L0.512572 0.449999C0.43187 0.406144 0.364731 0.341011 0.318451 0.261675C0.272172 0.182339 0.248522 0.0918349 0.250072 0V9.66C0.251048 9.8133 0.282336 9.96489 0.342135 10.106C0.401934 10.2472 0.489062 10.3751 0.598504 10.4825C0.707946 10.5898 0.837541 10.6745 0.979827 10.7316C1.12211 10.7886 1.27428 10.817 1.42757 10.815H17.3126C17.4659 10.817 17.618 10.7886 17.7603 10.7316C17.9026 10.6745 18.0322 10.5898 18.1416 10.4825C18.2511 10.3751 18.3382 10.2472 18.398 10.106C18.4578 9.96489 18.4891 9.8133 18.4901 9.66V0C18.4925 0.0883486 18.4716 0.175778 18.4295 0.253469C18.3873 0.33116 18.3255 0.396364 18.2501 0.4425V0.4425Z" fill="white"/>
</g>
</svg>
