<svg width="19" height="22" viewBox="0 0 19 22" fill="none" xmlns="http://www.w3.org/2000/svg">
<path style="mix-blend-mode:soft-light" opacity="0.75" d="M18.49 11.0376C18.4917 10.9485 18.4696 10.8606 18.4262 10.7828C18.3827 10.705 18.3193 10.6403 18.2425 10.5951L17.155 9.96506V1.31006C17.1693 1.02676 17.0708 0.749331 16.8811 0.538489C16.6913 0.327647 16.4257 0.200566 16.1425 0.185059H2.6425C2.35927 0.200566 2.09371 0.327647 1.90395 0.538489C1.71419 0.749331 1.61569 1.02676 1.63 1.31006V12.0501L0.55 11.4501C0.462293 11.4115 0.387451 11.3486 0.334297 11.2689C0.281143 11.1891 0.251894 11.0959 0.25 11.0001V20.6601C0.250976 20.8134 0.282265 20.9649 0.342063 21.1061C0.401862 21.2473 0.48899 21.3752 0.598433 21.4826C0.707875 21.5899 0.837469 21.6746 0.979755 21.7316C1.12204 21.7887 1.27421 21.817 1.4275 21.8151H17.3125C17.4658 21.817 17.618 21.7887 17.7602 21.7316C17.9025 21.6746 18.0321 21.5899 18.1416 21.4826C18.251 21.3752 18.3381 21.2473 18.3979 21.1061C18.4577 20.9649 18.489 20.8134 18.49 20.6601V11.0376Z" fill="url(#paint0_linear_127_2020)"/>
<defs>
<linearGradient id="paint0_linear_127_2020" x1="2.4325" y1="0.140059" x2="15.625" y2="22.9776" gradientUnits="userSpaceOnUse">
<stop stop-color="white" stop-opacity="0.5"/>
<stop offset="1" stop-opacity="0.7"/>
</linearGradient>
</defs>
</svg>
