<svg width="10" height="12" viewBox="0 0 10 12" fill="none" xmlns="http://www.w3.org/2000/svg">
<g style="mix-blend-mode:multiply" opacity="0.3">
<path d="M8.98924 0.487061H0.970716C0.863989 0.487053 0.758321 0.508226 0.659836 0.549354C0.561352 0.590481 0.472008 0.650744 0.396984 0.726652C0.321959 0.802559 0.262745 0.892602 0.222772 0.99156C0.182799 1.09052 0.162863 1.19643 0.164118 1.30315V6.23763C0.164118 7.51361 0.671002 8.73734 1.57326 9.6396C2.47552 10.5419 3.69925 11.0487 4.97523 11.0487C6.25122 11.0487 7.47495 10.5419 8.37721 9.6396C9.27947 8.73734 9.78635 7.51361 9.78635 6.23763V1.30315C9.78888 1.19688 9.77013 1.09119 9.73121 0.992275C9.69229 0.893365 9.63397 0.803238 9.5597 0.727198C9.48543 0.651158 9.3967 0.59074 9.29873 0.5495C9.20076 0.50826 9.09554 0.48703 8.98924 0.487061V0.487061Z" fill="white"/>
</g>
</svg>
