<svg width="18" height="24" viewBox="0 0 18 24" fill="none" xmlns="http://www.w3.org/2000/svg">
<path d="M17.9744 10.2375V15.875C17.9744 16.3839 17.8742 16.8877 17.6795 17.3579C17.4847 17.828 17.1993 18.2552 16.8395 18.615C16.4796 18.9748 16.0525 19.2603 15.5823 19.455C15.1122 19.6498 14.6083 19.75 14.0994 19.75C13.5468 19.7526 13.0005 19.6331 12.4994 19.4C12.0139 20.5377 11.206 21.5085 10.1754 22.1927C9.14476 22.8768 7.93644 23.2443 6.69943 23.25C5.85625 23.2402 5.02327 23.0642 4.24819 22.7321C3.47311 22.4 2.77115 21.9182 2.18248 21.3145C1.59381 20.7107 1.13001 19.9968 0.817611 19.2135C0.505217 18.4303 0.350368 17.5931 0.361931 16.75V10.25C0.360277 10.1094 0.386538 9.96989 0.439193 9.83954C0.491848 9.70918 0.569848 9.59058 0.668676 9.49059C0.767503 9.3906 0.885192 9.31121 1.01492 9.25704C1.14465 9.20286 1.28384 9.17497 1.42443 9.17498H16.9244C17.0634 9.17497 17.2009 9.20254 17.3292 9.25608C17.4574 9.30963 17.5737 9.38809 17.6714 9.48692C17.769 9.58575 17.8461 9.70298 17.8981 9.83182C17.9501 9.96066 17.9761 10.0985 17.9744 10.2375ZM14.0994 7.73748C14.5939 7.73748 15.0772 7.59086 15.4884 7.31615C15.8995 7.04145 16.2199 6.651 16.4091 6.19419C16.5984 5.73737 16.6479 5.23471 16.5514 4.74975C16.4549 4.2648 16.2168 3.81934 15.8672 3.46971C15.5176 3.12008 15.0721 2.88198 14.5872 2.78552C14.1022 2.68905 13.5995 2.73856 13.1427 2.92778C12.6859 3.117 12.2955 3.43743 12.0208 3.84855C11.7461 4.25968 11.5994 4.74303 11.5994 5.23748C11.5945 5.56893 11.6555 5.89805 11.7789 6.20571C11.9023 6.51336 12.0856 6.79341 12.3183 7.02954C12.5509 7.26567 12.8282 7.45318 13.134 7.58116C13.4398 7.70913 13.7679 7.77502 14.0994 7.77498V7.73748ZM6.69943 7.73748C7.39714 7.73995 8.07989 7.53532 8.66121 7.1495C9.24254 6.76367 9.69629 6.21401 9.96501 5.57012C10.2337 4.92624 10.3053 4.21709 10.1707 3.53248C10.0361 2.84788 9.70139 2.21861 9.20891 1.72438C8.71643 1.23015 8.08836 0.893183 7.40423 0.756154C6.72011 0.619125 6.01071 0.688198 5.36588 0.954625C4.72104 1.22105 4.16977 1.67285 3.78188 2.2528C3.39399 2.83275 3.18694 3.51477 3.18693 4.21248C3.18198 4.67749 3.26909 5.13888 3.44324 5.57007C3.61739 6.00126 3.87513 6.39373 4.20163 6.72488C4.52812 7.05602 4.91691 7.31929 5.3456 7.49951C5.77429 7.67974 6.2344 7.77336 6.69943 7.77498V7.73748Z" fill="#7B83EB"/>
</svg>
