<svg width="19" height="22" viewBox="0 0 19 22" fill="none" xmlns="http://www.w3.org/2000/svg">
<g style="mix-blend-mode:multiply" opacity="0.2">
<path d="M18.4901 11.0025V20.6625C18.4891 20.8158 18.4579 20.9674 18.3981 21.1085C18.3383 21.2497 18.2511 21.3776 18.1417 21.485C18.0322 21.5923 17.9027 21.677 17.7604 21.7341C17.6181 21.7911 17.4659 21.8195 17.3126 21.8175H1.42012C1.26746 21.8185 1.1161 21.7894 0.974679 21.7319C0.833259 21.6744 0.704553 21.5896 0.595908 21.4823C0.487263 21.3751 0.400807 21.2475 0.341477 21.1068C0.282147 20.9661 0.251105 20.8152 0.250123 20.6625V11.0025C0.24994 11.0931 0.274236 11.182 0.320444 11.2599C0.366652 11.3378 0.433053 11.4017 0.512623 11.445L1.59262 12.045V1.3125C1.57831 1.0292 1.67682 0.751773 1.86657 0.540931C2.05633 0.330089 2.32189 0.203008 2.60512 0.1875H16.1051C16.3884 0.203008 16.6539 0.330089 16.8437 0.540931C17.0334 0.751773 17.1319 1.0292 17.1176 1.3125V12.0525L18.2501 11.4525C18.3266 11.4057 18.3893 11.3393 18.4315 11.2602C18.4737 11.1811 18.4939 11.0921 18.4901 11.0025Z" fill="white"/>
</g>
</svg>
