<svg width="10" height="12" viewBox="0 0 10 12" fill="none" xmlns="http://www.w3.org/2000/svg">
<g style="mix-blend-mode:multiply" opacity="0.3">
<path d="M8.989 0.488281H0.970472C0.863745 0.488274 0.758077 0.509447 0.659592 0.550575C0.561108 0.591702 0.471764 0.651965 0.396739 0.727872C0.321715 0.80378 0.2625 0.893822 0.222528 0.992781C0.182555 1.09174 0.162619 1.19765 0.163874 1.30437V6.23885C0.163874 7.51483 0.670758 8.73856 1.57302 9.64082C2.47528 10.5431 3.699 11.05 4.97499 11.05C6.25098 11.05 7.4747 10.5431 8.37696 9.64082C9.27922 8.73856 9.78611 7.51483 9.78611 6.23885V1.30437C9.78864 1.1981 9.76989 1.09241 9.73097 0.993496C9.69204 0.894585 9.63373 0.804459 9.55946 0.728419C9.48518 0.652379 9.39646 0.591961 9.29849 0.550721C9.20052 0.509481 9.09529 0.488251 8.989 0.488281Z" fill="white"/>
</g>
</svg>
