<svg width="14" height="15" viewBox="0 0 14 15" fill="none" xmlns="http://www.w3.org/2000/svg">
<g style="mix-blend-mode:multiply" opacity="0.3">
<path d="M11.9874 0.1875H1.42488C1.28429 0.18749 1.1451 0.215381 1.01537 0.269557C0.885639 0.323732 0.76795 0.403114 0.669123 0.503104C0.570295 0.603094 0.492295 0.721704 0.43964 0.852058C0.386986 0.982413 0.360724 1.12192 0.362378 1.2625V7.7625C0.362378 9.44331 1.03008 11.0553 2.21859 12.2438C3.4071 13.4323 5.01907 14.1 6.69988 14.1C8.38069 14.1 9.99265 13.4323 11.1812 12.2438C12.3697 11.0553 13.0374 9.44331 13.0374 7.7625V1.2625C13.0407 1.12252 13.016 0.983292 12.9647 0.853C12.9135 0.722709 12.8367 0.603989 12.7388 0.503824C12.641 0.403659 12.5241 0.324074 12.3951 0.26975C12.266 0.215426 12.1274 0.18746 11.9874 0.1875V0.1875Z" fill="white"/>
</g>
</svg>
