<svg width="14" height="15" viewBox="0 0 14 15" fill="none" xmlns="http://www.w3.org/2000/svg">
<path d="M11.9875 0.1875H1.425C1.28441 0.18749 1.14522 0.215381 1.01549 0.269557C0.885761 0.323732 0.768072 0.403114 0.669245 0.503104C0.570417 0.603094 0.492417 0.721704 0.439762 0.852058C0.387108 0.982413 0.360846 1.12192 0.3625 1.2625V7.7625C0.3625 9.44331 1.0302 11.0553 2.21871 12.2438C3.40722 13.4323 5.01919 14.1 6.7 14.1C8.38081 14.1 9.99278 13.4323 11.1813 12.2438C12.3698 11.0553 13.0375 9.44331 13.0375 7.7625V1.2625C13.0408 1.12252 13.0161 0.983292 12.9649 0.853C12.9136 0.722709 12.8368 0.603989 12.7389 0.503824C12.6411 0.403659 12.5242 0.324074 12.3952 0.26975C12.2661 0.215426 12.1275 0.18746 11.9875 0.1875V0.1875Z" fill="#7B83EB"/>
</svg>
