<svg width="8" height="8" viewBox="0 0 8 8" fill="none" xmlns="http://www.w3.org/2000/svg">
<path d="M1.16513 2.3275C1.39677 1.83027 1.77322 1.41462 2.24513 1.135C2.77899 0.832049 3.38676 0.684002 4.00013 0.707497C4.55952 0.695008 5.11175 0.835011 5.59763 1.1125C6.04933 1.38441 6.4137 1.78001 6.64763 2.2525C6.89556 2.777 7.01633 3.35257 7.00013 3.9325C7.01265 4.54187 6.88162 5.14563 6.61763 5.69499C6.37275 6.19145 5.98312 6.60201 5.50013 6.8725C4.9997 7.16276 4.42843 7.30818 3.85013 7.2925C3.27995 7.30784 2.71666 7.16507 2.22263 6.88C1.76319 6.61307 1.39272 6.21651 1.15763 5.74C0.89842 5.22399 0.769662 4.6523 0.782629 4.07499C0.77517 3.47094 0.906008 2.8732 1.16513 2.3275ZM2.31263 5.14C2.44707 5.44037 2.65941 5.69932 2.92763 5.89C3.20487 6.0819 3.53551 6.18162 3.87263 6.175C4.23649 6.19085 4.59529 6.08532 4.89263 5.875C5.15799 5.68701 5.36366 5.42666 5.48513 5.125C5.61899 4.76544 5.68264 4.38354 5.67263 4C5.67588 3.63289 5.61757 3.26783 5.50013 2.92C5.3939 2.59775 5.19577 2.31359 4.93013 2.1025C4.64177 1.88417 4.28652 1.77282 3.92513 1.7875C3.57721 1.77824 3.23549 1.88075 2.95013 2.08C2.67813 2.26856 2.46287 2.52792 2.32763 2.83C2.17531 3.20085 2.10126 3.59918 2.11013 4C2.10296 4.38954 2.17174 4.77675 2.31263 5.14Z" fill="white"/>
</svg>
