<svg width="10" height="12" viewBox="0 0 10 12" fill="none" xmlns="http://www.w3.org/2000/svg">
<path d="M8.98973 0.487183H0.971204C0.864477 0.487175 0.758809 0.508348 0.660325 0.549476C0.56184 0.590603 0.472497 0.650866 0.397472 0.726774C0.322447 0.802681 0.263233 0.892724 0.22326 0.991683C0.183287 1.09064 0.163351 1.19655 0.164607 1.30327V6.23775C0.164607 7.51373 0.67149 8.73746 1.57375 9.63972C2.47601 10.542 3.69973 11.0489 4.97572 11.0489C6.25171 11.0489 7.47544 10.542 8.3777 9.63972C9.27995 8.73746 9.78684 7.51373 9.78684 6.23775V1.30327C9.78937 1.19701 9.77062 1.09131 9.7317 0.992397C9.69277 0.893487 9.63446 0.803361 9.56019 0.72732C9.48592 0.65128 9.39719 0.590863 9.29922 0.549623C9.20125 0.508382 9.09603 0.487153 8.98973 0.487183V0.487183Z" fill="#7B83EB"/>
</svg>
