<svg width="8" height="8" viewBox="0 0 8 8" fill="none" xmlns="http://www.w3.org/2000/svg">
<path d="M1.16513 2.32945C1.39677 1.83223 1.77322 1.41657 2.24513 1.13695C2.77899 0.834002 3.38676 0.685955 4.00013 0.70945C4.55952 0.696961 5.11175 0.836964 5.59763 1.11445C6.04933 1.38636 6.4137 1.78196 6.64763 2.25445C6.89556 2.77895 7.01633 3.35453 7.00013 3.93445C7.01265 4.54382 6.88162 5.14759 6.61763 5.69695C6.37275 6.19341 5.98312 6.60397 5.50013 6.87445C4.9997 7.16472 4.42843 7.31013 3.85013 7.29445C3.27995 7.30979 2.71666 7.16702 2.22263 6.88195C1.76319 6.61502 1.39272 6.21846 1.15763 5.74195C0.89842 5.22594 0.769662 4.65426 0.782629 4.07695C0.77517 3.4729 0.906008 2.87515 1.16513 2.32945ZM2.31263 5.14195C2.44707 5.44232 2.65941 5.70127 2.92763 5.89195C3.20487 6.08385 3.53551 6.18357 3.87263 6.17695C4.23649 6.1928 4.59529 6.08727 4.89263 5.87695C5.15799 5.68896 5.36366 5.42861 5.48513 5.12695C5.61899 4.76739 5.68264 4.38549 5.67263 4.00195C5.67588 3.63484 5.61757 3.26978 5.50013 2.92195C5.3939 2.5997 5.19577 2.31554 4.93013 2.10445C4.64177 1.88612 4.28652 1.77477 3.92513 1.78945C3.57721 1.78019 3.23549 1.88271 2.95013 2.08195C2.67813 2.27052 2.46287 2.52987 2.32763 2.83195C2.17531 3.2028 2.10126 3.60113 2.11013 4.00195C2.10296 4.39149 2.17174 4.7787 2.31263 5.14195Z" fill="white"/>
</svg>
