<svg width="18" height="24" viewBox="0 0 18 24" fill="none" xmlns="http://www.w3.org/2000/svg">
<path d="M17.9749 10.2375V15.875C17.9749 16.3839 17.8747 16.8878 17.68 17.3579C17.4852 17.8281 17.1998 18.2553 16.84 18.6151C16.4801 18.9749 16.053 19.2603 15.5828 19.4551C15.1127 19.6498 14.6088 19.75 14.0999 19.75C13.5473 19.7527 13.001 19.6332 12.4999 19.4C12.0144 20.5378 11.2065 21.5086 10.1759 22.1927C9.14525 22.8768 7.93693 23.2444 6.69992 23.25C5.85674 23.2403 5.02376 23.0643 4.24868 22.7321C3.4736 22.4 2.77163 21.9183 2.18297 21.3145C1.5943 20.7108 1.13049 19.9968 0.818099 19.2136C0.505705 18.4304 0.350856 17.5932 0.362419 16.75V10.25C0.360765 10.1095 0.387027 9.96995 0.439681 9.8396C0.492336 9.70924 0.570337 9.59064 0.669164 9.49065C0.767991 9.39066 0.88568 9.31127 1.01541 9.2571C1.14514 9.20292 1.28433 9.17503 1.42492 9.17504H16.9249C17.0639 9.17503 17.2014 9.2026 17.3296 9.25615C17.4579 9.30969 17.5742 9.38816 17.6718 9.48699C17.7695 9.58581 17.8466 9.70305 17.8986 9.83188C17.9506 9.96072 17.9766 10.0986 17.9749 10.2375ZM14.0999 7.73754C14.5944 7.73754 15.0777 7.59092 15.4888 7.31622C15.9 7.04151 16.2204 6.65106 16.4096 6.19425C16.5988 5.73743 16.6483 5.23477 16.5519 4.74982C16.4554 4.26486 16.2173 3.8194 15.8677 3.46977C15.5181 3.12014 15.0726 2.88204 14.5876 2.78558C14.1027 2.68911 13.6 2.73862 13.1432 2.92784C12.6864 3.11706 12.2959 3.43749 12.0212 3.84862C11.7465 4.25974 11.5999 4.74309 11.5999 5.23754C11.5949 5.56899 11.6559 5.89811 11.7793 6.20577C11.9028 6.51343 12.0861 6.79347 12.3188 7.0296C12.5514 7.26573 12.8287 7.45324 13.1345 7.58122C13.4403 7.70919 13.7684 7.77508 14.0999 7.77504V7.73754ZM6.69992 7.73754C7.39763 7.74002 8.08037 7.53538 8.6617 7.14956C9.24302 6.76373 9.69678 6.21407 9.96549 5.57018C10.2342 4.9263 10.3058 4.21715 10.1712 3.53254C10.0366 2.84794 9.70187 2.21867 9.20939 1.72444C8.71692 1.23021 8.08885 0.893244 7.40472 0.756215C6.7206 0.619186 6.0112 0.688259 5.36636 0.954686C4.72153 1.22111 4.17026 1.67291 3.78237 2.25286C3.39448 2.83281 3.18742 3.51483 3.18742 4.21254C3.18247 4.67755 3.26958 5.13894 3.44373 5.57013C3.61788 6.00132 3.87562 6.39379 4.20212 6.72494C4.52861 7.05608 4.9174 7.31935 5.34609 7.49957C5.77478 7.6798 6.23489 7.77342 6.69992 7.77504V7.73754Z" fill="#7B83EB"/>
</svg>
