<svg width="14" height="15" viewBox="0 0 14 15" fill="none" xmlns="http://www.w3.org/2000/svg">
<g style="mix-blend-mode:multiply" opacity="0.3">
<path d="M11.9869 0.1875H1.42439C1.2838 0.18749 1.14461 0.215381 1.01488 0.269557C0.88515 0.323732 0.767462 0.403114 0.668635 0.503104C0.569807 0.603094 0.491806 0.721704 0.439152 0.852058C0.386497 0.982413 0.360236 1.12192 0.36189 1.2625V7.7625C0.36189 9.44331 1.02959 11.0553 2.2181 12.2438C3.40661 13.4323 5.01858 14.1 6.69939 14.1C8.3802 14.1 9.99217 13.4323 11.1807 12.2438C12.3692 11.0553 13.0369 9.44331 13.0369 7.7625V1.2625C13.0402 1.12252 13.0155 0.983292 12.9643 0.853C12.913 0.722709 12.8362 0.603989 12.7383 0.503824C12.6405 0.403659 12.5236 0.324074 12.3946 0.26975C12.2655 0.215426 12.1269 0.18746 11.9869 0.1875Z" fill="white"/>
</g>
</svg>
