<svg width="10" height="12" viewBox="0 0 10 12" fill="none" xmlns="http://www.w3.org/2000/svg">
<g style="mix-blend-mode:multiply" opacity="0.24">
<path d="M8.98949 0.488281H0.97096C0.864233 0.488274 0.758565 0.509447 0.66008 0.550575C0.561596 0.591702 0.472253 0.651965 0.397228 0.727872C0.322203 0.80378 0.262989 0.893822 0.223016 0.992781C0.183043 1.09174 0.163107 1.19765 0.164362 1.30437V6.23885C0.164362 7.51483 0.671246 8.73856 1.57351 9.64082C2.47576 10.5431 3.69949 11.05 4.97548 11.05C6.25147 11.05 7.47519 10.5431 8.37745 9.64082C9.27971 8.73856 9.78659 7.51483 9.78659 6.23885V1.30437C9.78913 1.1981 9.77038 1.09241 9.73145 0.993496C9.69253 0.894585 9.63422 0.804459 9.55994 0.728419C9.48567 0.652379 9.39694 0.591961 9.29898 0.550721C9.20101 0.509481 9.09578 0.488251 8.98949 0.488281V0.488281Z" fill="white"/>
</g>
</svg>
