<svg width="14" height="15" viewBox="0 0 14 15" fill="none" xmlns="http://www.w3.org/2000/svg">
<g style="mix-blend-mode:multiply" opacity="0.3">
<path d="M11.9876 0.1875H1.42512C1.28454 0.18749 1.14534 0.215381 1.01561 0.269557C0.885883 0.323732 0.768194 0.403114 0.669367 0.503104C0.57054 0.603094 0.492539 0.721704 0.439884 0.852058C0.38723 0.982413 0.360968 1.12192 0.362622 1.2625V7.7625C0.362622 9.44331 1.03032 11.0553 2.21883 12.2438C3.40734 13.4323 5.01931 14.1 6.70012 14.1C8.38093 14.1 9.9929 13.4323 11.1814 12.2438C12.3699 11.0553 13.0376 9.44331 13.0376 7.7625V1.2625C13.041 1.12252 13.0163 0.983292 12.965 0.853C12.9137 0.722709 12.8369 0.603989 12.7391 0.503824C12.6412 0.403659 12.5243 0.324074 12.3953 0.26975C12.2663 0.215426 12.1276 0.18746 11.9876 0.1875Z" fill="white"/>
</g>
</svg>
