<svg width="14" height="18" viewBox="0 0 14 18" fill="none" xmlns="http://www.w3.org/2000/svg">
<path d="M13.5351 7.28503V11.5647C13.5351 11.9511 13.459 12.3336 13.3111 12.6905C13.1633 13.0474 12.9466 13.3717 12.6735 13.6448C12.4003 13.918 12.076 14.1347 11.7191 14.2825C11.3622 14.4304 10.9797 14.5064 10.5934 14.5064C10.1738 14.5085 9.75907 14.4177 9.37871 14.2407C9.01012 15.1045 8.39682 15.8415 7.61441 16.3608C6.83201 16.8802 5.91471 17.1592 4.97564 17.1635C4.33553 17.156 3.70318 17.0224 3.11478 16.7703C2.52637 16.5182 1.99348 16.1525 1.54659 15.6941C1.0997 15.2358 0.747604 14.6938 0.51045 14.0992C0.273295 13.5046 0.155742 12.8691 0.16452 12.229V7.29452C0.163265 7.1878 0.183201 7.08189 0.223174 6.98293C0.263146 6.88397 0.322361 6.79393 0.397386 6.71802C0.47241 6.64212 0.561754 6.58185 0.660238 6.54072C0.758723 6.4996 0.864391 6.47842 0.971118 6.47843H12.738C12.8434 6.47842 12.9479 6.49935 13.0452 6.54C13.1425 6.58065 13.2308 6.64022 13.305 6.71524C13.3791 6.79027 13.4376 6.87927 13.4771 6.97707C13.5166 7.07488 13.5363 7.17956 13.5351 7.28503V7.28503ZM10.5934 5.38715C10.9687 5.38715 11.3357 5.27584 11.6478 5.0673C11.9599 4.85876 12.2031 4.56235 12.3468 4.21556C12.4904 3.86877 12.528 3.48717 12.4548 3.11902C12.3815 2.75087 12.2008 2.4127 11.9354 2.14727C11.6699 1.88185 11.3318 1.7011 10.9636 1.62787C10.5955 1.55464 10.2139 1.59222 9.86707 1.73587C9.52027 1.87951 9.22387 2.12277 9.01532 2.43487C8.80678 2.74698 8.69547 3.11391 8.69547 3.48928C8.6917 3.74089 8.738 3.99075 8.83169 4.22431C8.92537 4.45786 9.06457 4.67046 9.24118 4.84972C9.41779 5.02898 9.62829 5.17133 9.86043 5.26848C10.0926 5.36563 10.3417 5.41565 10.5934 5.41562V5.38715ZM4.97564 5.38715C5.5053 5.38903 6.02361 5.23368 6.46492 4.94078C6.90624 4.64789 7.2507 4.23061 7.4547 3.7418C7.6587 3.25299 7.71305 2.71464 7.61087 2.19493C7.50869 1.67521 7.25457 1.1975 6.88071 0.822306C6.50684 0.44711 6.03004 0.1913 5.51069 0.0872748C4.99134 -0.016751 4.4528 0.0356858 3.96327 0.237945C3.47374 0.440203 3.05524 0.783185 2.76078 1.22346C2.46631 1.66373 2.30912 2.18148 2.30912 2.71115C2.30536 3.06416 2.37149 3.41442 2.5037 3.74176C2.6359 4.0691 2.83157 4.36705 3.07943 4.61843C3.32729 4.86982 3.62244 5.06968 3.94788 5.2065C4.27332 5.34332 4.62261 5.41439 4.97564 5.41562V5.38715Z" fill="#7B83EB"/>
</svg>
