<svg width="19" height="22" viewBox="0 0 19 22" fill="none" xmlns="http://www.w3.org/2000/svg">
<g style="mix-blend-mode:multiply" opacity="0.2">
<path d="M18.49 11.0025V20.6625C18.4891 20.8158 18.4578 20.9674 18.398 21.1085C18.3382 21.2497 18.251 21.3776 18.1416 21.485C18.0322 21.5923 17.9026 21.677 17.7603 21.7341C17.618 21.7911 17.4658 21.8195 17.3125 21.8175H1.42003C1.26737 21.8185 1.11601 21.7894 0.974587 21.7319C0.833168 21.6744 0.704461 21.5896 0.595816 21.4823C0.487171 21.3751 0.400715 21.2475 0.341385 21.1068C0.282056 20.9661 0.251013 20.8152 0.250032 20.6625V11.0025C0.249848 11.0931 0.274145 11.182 0.320353 11.2599C0.36656 11.3378 0.432962 11.4017 0.512532 11.445L1.59253 12.045V1.3125C1.57822 1.0292 1.67672 0.751773 1.86648 0.540931C2.05624 0.330089 2.3218 0.203008 2.60503 0.1875H16.105C16.3883 0.203008 16.6538 0.330089 16.8436 0.540931C17.0333 0.751773 17.1318 1.0292 17.1175 1.3125V12.0525L18.25 11.4525C18.3266 11.4057 18.3892 11.3393 18.4314 11.2602C18.4736 11.1811 18.4938 11.0921 18.49 11.0025V11.0025Z" fill="white"/>
</g>
</svg>
