<svg width="19" height="22" viewBox="0 0 19 22" fill="none" xmlns="http://www.w3.org/2000/svg">
<path style="mix-blend-mode:soft-light" opacity="0.75" d="M18.49 11.0375C18.4917 10.9484 18.4696 10.8605 18.4262 10.7827C18.3827 10.705 18.3193 10.6402 18.2425 10.595L17.155 9.965V1.31C17.1693 1.0267 17.0708 0.74927 16.8811 0.538428C16.6913 0.327586 16.4257 0.200505 16.1425 0.184998H2.6425C2.35927 0.200505 2.09371 0.327586 1.90395 0.538428C1.71419 0.74927 1.61569 1.0267 1.63 1.31V12.05L0.55 11.45C0.462293 11.4114 0.387451 11.3485 0.334297 11.2688C0.281143 11.1891 0.251894 11.0958 0.25 11V20.66C0.250976 20.8133 0.282265 20.9649 0.342063 21.106C0.401862 21.2472 0.48899 21.3751 0.598433 21.4825C0.707875 21.5898 0.837469 21.6745 0.979755 21.7316C1.12204 21.7886 1.27421 21.817 1.4275 21.815H17.3125C17.4658 21.817 17.618 21.7886 17.7602 21.7316C17.9025 21.6745 18.0321 21.5898 18.1416 21.4825C18.251 21.3751 18.3381 21.2472 18.3979 21.106C18.4577 20.9649 18.489 20.8133 18.49 20.66V11.0375Z" fill="url(#paint0_linear_127_15226)"/>
<defs>
<linearGradient id="paint0_linear_127_15226" x1="2.4325" y1="0.139998" x2="15.625" y2="22.9775" gradientUnits="userSpaceOnUse">
<stop stop-color="white" stop-opacity="0.5"/>
<stop offset="1" stop-opacity="0.7"/>
</linearGradient>
</defs>
</svg>
