<svg width="18" height="24" viewBox="0 0 18 24" fill="none" xmlns="http://www.w3.org/2000/svg">
<path d="M17.9752 10.2375V15.875C17.9752 16.3839 17.8749 16.8878 17.6802 17.3579C17.4855 17.8281 17.2 18.2553 16.8402 18.6151C16.4804 18.9749 16.0532 19.2603 15.5831 19.4551C15.1129 19.6498 14.609 19.75 14.1002 19.75C13.5476 19.7527 13.0012 19.6332 12.5002 19.4C12.0146 20.5378 11.2068 21.5086 10.1761 22.1927C9.14549 22.8768 7.93718 23.2444 6.70016 23.25C5.85698 23.2403 5.02401 23.0643 4.24892 22.7321C3.47384 22.4 2.77188 21.9183 2.18321 21.3145C1.59454 20.7108 1.13074 19.9968 0.818343 19.2136C0.505949 18.4304 0.351101 17.5932 0.362664 16.75V10.25C0.36101 10.1095 0.387271 9.96995 0.439925 9.8396C0.49258 9.70924 0.570581 9.59064 0.669408 9.49065C0.768235 9.39066 0.885924 9.31127 1.01565 9.2571C1.14538 9.20292 1.28458 9.17503 1.42516 9.17504H16.9252C17.0641 9.17503 17.2017 9.2026 17.3299 9.25615C17.4581 9.30969 17.5744 9.38816 17.6721 9.48699C17.7698 9.58581 17.8468 9.70305 17.8989 9.83188C17.9509 9.96072 17.9768 10.0986 17.9752 10.2375ZM14.1002 7.73754C14.5946 7.73754 15.078 7.59092 15.4891 7.31622C15.9002 7.04151 16.2206 6.65106 16.4099 6.19425C16.5991 5.73743 16.6486 5.23477 16.5521 4.74982C16.4557 4.26486 16.2176 3.8194 15.8679 3.46977C15.5183 3.12014 15.0728 2.88204 14.5879 2.78558C14.1029 2.68911 13.6003 2.73862 13.1435 2.92784C12.6866 3.11706 12.2962 3.43749 12.0215 3.84862C11.7468 4.25974 11.6002 4.74309 11.6002 5.23754C11.5952 5.56899 11.6562 5.89811 11.7796 6.20577C11.903 6.51343 12.0864 6.79347 12.319 7.0296C12.5516 7.26573 12.8289 7.45324 13.1347 7.58122C13.4405 7.70919 13.7687 7.77508 14.1002 7.77504V7.73754ZM6.70016 7.73754C7.39787 7.74002 8.08062 7.53538 8.66194 7.14956C9.24327 6.76373 9.69702 6.21407 9.96574 5.57018C10.2345 4.9263 10.306 4.21715 10.1715 3.53254C10.0369 2.84794 9.70212 2.21867 9.20964 1.72444C8.71716 1.23021 8.08909 0.893244 7.40497 0.756215C6.72085 0.619186 6.01145 0.688259 5.36661 0.954686C4.72177 1.22111 4.1705 1.67291 3.78261 2.25286C3.39473 2.83281 3.18767 3.51483 3.18766 4.21254C3.18271 4.67755 3.26982 5.13894 3.44397 5.57013C3.61812 6.00132 3.87587 6.39379 4.20236 6.72494C4.52886 7.05608 4.91765 7.31935 5.34633 7.49957C5.77502 7.6798 6.23514 7.77342 6.70016 7.77504V7.73754Z" fill="#7B83EB"/>
</svg>
