<svg width="18" height="24" viewBox="0 0 18 24" fill="none" xmlns="http://www.w3.org/2000/svg">
<path d="M17.9749 10.2375V15.875C17.9749 16.3839 17.8747 16.8877 17.68 17.3579C17.4852 17.828 17.1998 18.2552 16.84 18.615C16.4801 18.9748 16.053 19.2603 15.5828 19.455C15.1127 19.6498 14.6088 19.75 14.0999 19.75C13.5473 19.7526 13.001 19.6331 12.4999 19.4C12.0144 20.5377 11.2065 21.5085 10.1759 22.1927C9.14525 22.8768 7.93693 23.2443 6.69992 23.25C5.85674 23.2402 5.02376 23.0642 4.24868 22.7321C3.4736 22.4 2.77163 21.9182 2.18297 21.3145C1.5943 20.7107 1.13049 19.9968 0.818099 19.2135C0.505705 18.4303 0.350856 17.5931 0.362419 16.75V10.25C0.360765 10.1094 0.387027 9.96989 0.439681 9.83954C0.492336 9.70918 0.570337 9.59058 0.669164 9.49059C0.767991 9.3906 0.88568 9.31121 1.01541 9.25704C1.14514 9.20286 1.28433 9.17497 1.42492 9.17498H16.9249C17.0639 9.17497 17.2014 9.20254 17.3296 9.25608C17.4579 9.30963 17.5742 9.38809 17.6718 9.48692C17.7695 9.58575 17.8466 9.70298 17.8986 9.83182C17.9506 9.96066 17.9766 10.0985 17.9749 10.2375V10.2375ZM14.0999 7.73748C14.5944 7.73748 15.0777 7.59086 15.4888 7.31615C15.9 7.04145 16.2204 6.651 16.4096 6.19419C16.5988 5.73737 16.6483 5.23471 16.5519 4.74975C16.4554 4.2648 16.2173 3.81934 15.8677 3.46971C15.5181 3.12008 15.0726 2.88198 14.5876 2.78552C14.1027 2.68905 13.6 2.73856 13.1432 2.92778C12.6864 3.117 12.296 3.43743 12.0212 3.84855C11.7465 4.25968 11.5999 4.74303 11.5999 5.23748C11.5949 5.56893 11.6559 5.89805 11.7793 6.20571C11.9028 6.51336 12.0861 6.79341 12.3188 7.02954C12.5514 7.26567 12.8287 7.45318 13.1345 7.58116C13.4403 7.70913 13.7684 7.77502 14.0999 7.77498V7.73748ZM6.69992 7.73748C7.39763 7.73995 8.08037 7.53532 8.6617 7.1495C9.24302 6.76367 9.69678 6.21401 9.96549 5.57012C10.2342 4.92624 10.3058 4.21709 10.1712 3.53248C10.0366 2.84788 9.70187 2.21861 9.20939 1.72438C8.71692 1.23015 8.08885 0.893183 7.40472 0.756154C6.7206 0.619125 6.0112 0.688198 5.36636 0.954625C4.72153 1.22105 4.17026 1.67285 3.78237 2.2528C3.39448 2.83275 3.18742 3.51477 3.18742 4.21248C3.18247 4.67749 3.26958 5.13888 3.44373 5.57007C3.61788 6.00126 3.87562 6.39373 4.20212 6.72488C4.52861 7.05602 4.9174 7.31929 5.34609 7.49951C5.77478 7.67974 6.23489 7.77336 6.69992 7.77498V7.73748Z" fill="#7B83EB"/>
</svg>
