<svg width="8" height="8" viewBox="0 0 8 8" fill="none" xmlns="http://www.w3.org/2000/svg">
<path d="M1.16501 2.3275C1.39665 1.83027 1.77309 1.41462 2.24501 1.135C2.77886 0.832049 3.38663 0.684002 4.00001 0.707497C4.5594 0.695008 5.11163 0.835011 5.59751 1.1125C6.04921 1.38441 6.41358 1.78001 6.64751 2.2525C6.89544 2.777 7.01621 3.35257 7.00001 3.9325C7.01253 4.54187 6.8815 5.14563 6.61751 5.69499C6.37263 6.19145 5.98299 6.60201 5.50001 6.8725C4.99958 7.16276 4.42831 7.30818 3.85001 7.2925C3.27983 7.30784 2.71654 7.16507 2.22251 6.88C1.76307 6.61307 1.3926 6.21651 1.15751 5.74C0.898298 5.22399 0.76954 4.6523 0.782507 4.07499C0.775048 3.47094 0.905886 2.8732 1.16501 2.3275ZM2.31251 5.14C2.44695 5.44037 2.65929 5.69932 2.92751 5.89C3.20475 6.0819 3.53539 6.18162 3.87251 6.175C4.23636 6.19085 4.59517 6.08532 4.89251 5.875C5.15786 5.68701 5.36354 5.42666 5.48501 5.125C5.61887 4.76544 5.68252 4.38354 5.67251 4C5.67576 3.63289 5.61745 3.26783 5.50001 2.92C5.39378 2.59775 5.19565 2.31359 4.93001 2.1025C4.64165 1.88417 4.28639 1.77282 3.92501 1.7875C3.57709 1.77824 3.23537 1.88075 2.95001 2.08C2.67801 2.26856 2.46274 2.52792 2.32751 2.83C2.17519 3.20085 2.10114 3.59918 2.11001 4C2.10284 4.38954 2.17162 4.77675 2.31251 5.14Z" fill="white"/>
</svg>
