<svg width="19" height="22" viewBox="0 0 19 22" fill="none" xmlns="http://www.w3.org/2000/svg">
<g style="mix-blend-mode:multiply" opacity="0.12">
<path d="M18.49 11V20.66C18.489 20.8133 18.4577 20.9649 18.3979 21.106C18.3381 21.2472 18.251 21.3751 18.1416 21.4825C18.0321 21.5898 17.9025 21.6745 17.7602 21.7316C17.618 21.7886 17.4658 21.817 17.3125 21.815H1.42C1.26734 21.816 1.11598 21.7869 0.974557 21.7294C0.833137 21.6719 0.704431 21.5871 0.595786 21.4798C0.487141 21.3726 0.400685 21.245 0.341355 21.1043C0.282025 20.9636 0.250983 20.8127 0.250001 20.66V11C0.249818 11.0906 0.274114 11.1795 0.320322 11.2574C0.36653 11.3353 0.432931 11.3992 0.512501 11.4425L1.5925 12.0425V1.31C1.57819 1.0267 1.67669 0.74927 1.86645 0.538428C2.05621 0.327586 2.32177 0.200505 2.605 0.184998H16.105C16.3882 0.200505 16.6538 0.327586 16.8436 0.538428C17.0333 0.74927 17.1318 1.0267 17.1175 1.31V12.05L18.25 11.45C18.3265 11.4032 18.3891 11.3368 18.4313 11.2577C18.4735 11.1786 18.4938 11.0896 18.49 11V11Z" fill="white"/>
</g>
</svg>
