<svg width="14" height="18" viewBox="0 0 14 18" fill="none" xmlns="http://www.w3.org/2000/svg">
<path d="M13.5351 7.2843V11.564C13.5351 11.9503 13.459 12.3328 13.3111 12.6897C13.1633 13.0467 12.9466 13.3709 12.6735 13.6441C12.4003 13.9173 12.076 14.134 11.7191 14.2818C11.3622 14.4296 10.9797 14.5057 10.5934 14.5057C10.1738 14.5077 9.75907 14.417 9.37871 14.24C9.01012 15.1037 8.39682 15.8407 7.61441 16.3601C6.83201 16.8794 5.91471 17.1585 4.97564 17.1627C4.33553 17.1553 3.70318 17.0217 3.11478 16.7696C2.52637 16.5175 1.99348 16.1518 1.54659 15.6934C1.0997 15.2351 0.747604 14.6931 0.51045 14.0985C0.273295 13.5039 0.155742 12.8683 0.16452 12.2283V7.29379C0.163265 7.18707 0.183201 7.08116 0.223174 6.9822C0.263146 6.88324 0.322361 6.7932 0.397386 6.71729C0.47241 6.64138 0.561754 6.58112 0.660238 6.53999C0.758723 6.49886 0.864391 6.47769 0.971118 6.4777H12.738C12.8434 6.47769 12.9479 6.49862 13.0452 6.53927C13.1425 6.57992 13.2308 6.63949 13.305 6.71451C13.3791 6.78954 13.4376 6.87853 13.4771 6.97634C13.5166 7.07415 13.5363 7.17882 13.5351 7.2843V7.2843ZM10.5934 5.38642C10.9687 5.38642 11.3357 5.27511 11.6478 5.06657C11.9599 4.85803 12.2031 4.56162 12.3468 4.21483C12.4904 3.86804 12.528 3.48644 12.4548 3.11829C12.3815 2.75013 12.2008 2.41196 11.9354 2.14654C11.6699 1.88112 11.3318 1.70036 10.9636 1.62713C10.5955 1.5539 10.2139 1.59149 9.86707 1.73513C9.52027 1.87878 9.22387 2.12204 9.01532 2.43414C8.80678 2.74624 8.69547 3.11318 8.69547 3.48854C8.6917 3.74016 8.738 3.99002 8.83169 4.22358C8.92537 4.45713 9.06457 4.66973 9.24118 4.84899C9.41779 5.02825 9.62829 5.17059 9.86043 5.26775C10.0926 5.3649 10.3417 5.41492 10.5934 5.41489V5.38642ZM4.97564 5.38642C5.5053 5.3883 6.02361 5.23295 6.46492 4.94005C6.90624 4.64715 7.2507 4.22988 7.4547 3.74107C7.6587 3.25226 7.71305 2.71391 7.61087 2.19419C7.50869 1.67447 7.25457 1.19677 6.88071 0.821574C6.50684 0.446378 6.03004 0.190568 5.51069 0.0865423C4.99134 -0.0174834 4.4528 0.0349534 3.96327 0.237212C3.47374 0.439471 3.05524 0.782453 2.76078 1.22272C2.46631 1.66299 2.30912 2.18075 2.30912 2.71041C2.30536 3.06342 2.37149 3.41369 2.5037 3.74103C2.6359 4.06837 2.83157 4.36631 3.07943 4.6177C3.32729 4.86909 3.62244 5.06895 3.94788 5.20577C4.27332 5.34258 4.62261 5.41366 4.97564 5.41489V5.38642Z" fill="#7B83EB"/>
</svg>
