<svg width="19" height="12" viewBox="0 0 19 12" fill="none" xmlns="http://www.w3.org/2000/svg">
<path d="M18.4898 5.99998C18.4915 5.9109 18.4695 5.82298 18.426 5.74523C18.3825 5.66747 18.3191 5.60268 18.2423 5.55748L10.6598 0.749982H10.5473C10.3903 0.670856 10.2169 0.629639 10.0411 0.629639C9.86524 0.629639 9.69185 0.670856 9.53483 0.749982L9.42233 0.817482L1.17233 5.58748C1.09362 5.63109 1.02828 5.69534 0.983355 5.77331C0.938425 5.85127 0.915597 5.94001 0.917328 6.02998C0.915778 6.12182 0.939428 6.21232 0.985708 6.29166C1.03199 6.37099 1.09913 6.43613 1.17983 6.47998L9.42983 11.25L9.54233 11.3175C9.69935 11.3966 9.87274 11.4378 10.0486 11.4378C10.2244 11.4378 10.3978 11.3966 10.5548 11.3175L10.6673 11.25L18.2498 6.44998C18.3263 6.40321 18.389 6.33682 18.4312 6.25769C18.4734 6.17856 18.4936 6.08958 18.4898 5.99998Z" fill="#123B6D"/>
</svg>
