<svg width="19" height="22" viewBox="0 0 19 22" fill="none" xmlns="http://www.w3.org/2000/svg">
<g style="mix-blend-mode:multiply" opacity="0.2">
<path d="M18.49 11.0025V20.6625C18.489 20.8158 18.4577 20.9674 18.3979 21.1085C18.3381 21.2497 18.251 21.3776 18.1416 21.485C18.0321 21.5923 17.9025 21.677 17.7602 21.7341C17.618 21.7911 17.4658 21.8195 17.3125 21.8175H1.42C1.26734 21.8185 1.11598 21.7894 0.974557 21.7319C0.833137 21.6744 0.704431 21.5896 0.595786 21.4823C0.487141 21.3751 0.400685 21.2475 0.341355 21.1068C0.282025 20.9661 0.250983 20.8152 0.250001 20.6625V11.0025C0.249818 11.0931 0.274114 11.182 0.320322 11.2599C0.36653 11.3378 0.432931 11.4017 0.512501 11.445L1.5925 12.045V1.3125C1.57819 1.0292 1.67669 0.751773 1.86645 0.540931C2.05621 0.330089 2.32177 0.203008 2.605 0.1875H16.105C16.3882 0.203008 16.6538 0.330089 16.8436 0.540931C17.0333 0.751773 17.1318 1.0292 17.1175 1.3125V12.0525L18.25 11.4525C18.3265 11.4057 18.3891 11.3393 18.4313 11.2602C18.4735 11.1811 18.4938 11.0921 18.49 11.0025V11.0025Z" fill="white"/>
</g>
</svg>
