<svg width="18" height="24" viewBox="0 0 18 24" fill="none" xmlns="http://www.w3.org/2000/svg">
<g style="mix-blend-mode:multiply" opacity="0.12">
<path d="M17.975 10.2375V15.875C17.975 16.3839 17.8748 16.8877 17.68 17.3579C17.4853 17.828 17.1998 18.2552 16.84 18.615C16.4802 18.9748 16.053 19.2603 15.5829 19.455C15.1127 19.6498 14.6089 19.75 14.1 19.75C13.5474 19.7526 13.001 19.6331 12.5 19.4C12.0145 20.5377 11.2066 21.5085 10.1759 22.1927C9.14531 22.8768 7.93699 23.2443 6.69998 23.25C5.8568 23.2402 5.02382 23.0642 4.24874 22.7321C3.47366 22.4 2.77169 21.9182 2.18303 21.3145C1.59436 20.7107 1.13055 19.9968 0.81816 19.2135C0.505766 18.4303 0.350917 17.5931 0.36248 16.75V10.25C0.360826 10.1094 0.387088 9.96989 0.439742 9.83954C0.492397 9.70918 0.570398 9.59058 0.669225 9.49059C0.768052 9.3906 0.885741 9.31121 1.01547 9.25704C1.1452 9.20286 1.28439 9.17497 1.42498 9.17498H16.925C17.0639 9.17497 17.2015 9.20254 17.3297 9.25608C17.4579 9.30963 17.5742 9.38809 17.6719 9.48692C17.7696 9.58575 17.8466 9.70298 17.8987 9.83182C17.9507 9.96066 17.9766 10.0985 17.975 10.2375ZM14.1 7.73748C14.5944 7.73748 15.0778 7.59086 15.4889 7.31615C15.9 7.04145 16.2205 6.651 16.4097 6.19419C16.5989 5.73737 16.6484 5.23471 16.5519 4.74975C16.4555 4.2648 16.2174 3.81934 15.8677 3.46971C15.5181 3.12008 15.0727 2.88198 14.5877 2.78552C14.1028 2.68905 13.6001 2.73856 13.1433 2.92778C12.6865 3.117 12.296 3.43743 12.0213 3.84855C11.7466 4.25968 11.6 4.74303 11.6 5.23748C11.595 5.56893 11.656 5.89805 11.7794 6.20571C11.9028 6.51336 12.0862 6.79341 12.3188 7.02954C12.5515 7.26567 12.8287 7.45318 13.1345 7.58116C13.4403 7.70913 13.7685 7.77502 14.1 7.77498V7.73748ZM6.69998 7.73748C7.39769 7.73995 8.08044 7.53532 8.66176 7.1495C9.24309 6.76367 9.69684 6.21401 9.96556 5.57012C10.2343 4.92624 10.3059 4.21709 10.1713 3.53248C10.0367 2.84788 9.70193 2.21861 9.20946 1.72438C8.71698 1.23015 8.08891 0.893183 7.40478 0.756154C6.72066 0.619125 6.01126 0.688198 5.36642 0.954625C4.72159 1.22105 4.17032 1.67285 3.78243 2.2528C3.39454 2.83275 3.18749 3.51477 3.18748 4.21248C3.18253 4.67749 3.26964 5.13888 3.44379 5.57007C3.61794 6.00126 3.87568 6.39373 4.20218 6.72488C4.52867 7.05602 4.91746 7.31929 5.34615 7.49951C5.77484 7.67974 6.23495 7.77336 6.69998 7.77498V7.73748Z" fill="white"/>
</g>
</svg>
