<svg width="19" height="22" viewBox="0 0 19 22" fill="none" xmlns="http://www.w3.org/2000/svg">
<path style="mix-blend-mode:soft-light" opacity="0.75" d="M18.49 11.04C18.4917 10.9509 18.4696 10.863 18.4262 10.7852C18.3827 10.7075 18.3193 10.6427 18.2425 10.5975L17.155 9.9675V1.3125C17.1693 1.0292 17.0708 0.751773 16.8811 0.540931C16.6913 0.330089 16.4257 0.203008 16.1425 0.1875H2.6425C2.35927 0.203008 2.09371 0.330089 1.90395 0.540931C1.71419 0.751773 1.61569 1.0292 1.63 1.3125V12.0525L0.55 11.4525C0.462293 11.4139 0.387451 11.351 0.334297 11.2713C0.281143 11.1916 0.251894 11.0983 0.25 11.0025V11.0025V20.6625C0.250976 20.8158 0.282265 20.9674 0.342063 21.1085C0.401862 21.2497 0.48899 21.3776 0.598433 21.485C0.707875 21.5923 0.837469 21.677 0.979755 21.7341C1.12204 21.7911 1.27421 21.8195 1.4275 21.8175H17.3125C17.4658 21.8195 17.618 21.7911 17.7602 21.7341C17.9025 21.677 18.0321 21.5923 18.1416 21.485C18.251 21.3776 18.3381 21.2497 18.3979 21.1085C18.4577 20.9674 18.489 20.8158 18.49 20.6625V11.04Z" fill="url(#paint0_linear_146_16647)"/>
<defs>
<linearGradient id="paint0_linear_146_16647" x1="2.4325" y1="0.1425" x2="15.625" y2="22.98" gradientUnits="userSpaceOnUse">
<stop stop-color="white" stop-opacity="0.5"/>
<stop offset="1" stop-opacity="0.7"/>
</linearGradient>
</defs>
</svg>
