<svg width="14" height="18" viewBox="0 0 14 18" fill="none" xmlns="http://www.w3.org/2000/svg">
<g style="mix-blend-mode:multiply" opacity="0.2">
<path d="M13.5346 7.2843V11.564C13.5346 11.9503 13.4585 12.3328 13.3106 12.6897C13.1628 13.0467 12.9461 13.3709 12.673 13.6441C12.3998 13.9173 12.0755 14.134 11.7186 14.2818C11.3617 14.4296 10.9792 14.5057 10.5929 14.5057C10.1734 14.5077 9.75858 14.417 9.37822 14.24C9.00964 15.1037 8.39633 15.8407 7.61392 16.3601C6.83152 16.8794 5.91423 17.1585 4.97515 17.1627C4.33505 17.1553 3.70269 17.0217 3.11429 16.7696C2.52589 16.5175 1.99299 16.1518 1.5461 15.6934C1.09922 15.2351 0.747116 14.6931 0.509962 14.0985C0.272807 13.5039 0.155254 12.8683 0.164032 12.2283V7.29379C0.162776 7.18707 0.182713 7.08116 0.222685 6.9822C0.262658 6.88324 0.321872 6.7932 0.396897 6.71729C0.471922 6.64138 0.561265 6.58112 0.65975 6.53999C0.758235 6.49886 0.863903 6.47769 0.97063 6.4777H12.7375C12.8429 6.47769 12.9474 6.49862 13.0447 6.53927C13.142 6.57992 13.2303 6.63949 13.3045 6.71451C13.3786 6.78954 13.4371 6.87853 13.4766 6.97634C13.5161 7.07415 13.5358 7.17882 13.5346 7.2843V7.2843ZM10.5929 5.38642C10.9682 5.38642 11.3352 5.27511 11.6473 5.06657C11.9594 4.85803 12.2026 4.56162 12.3463 4.21483C12.4899 3.86804 12.5275 3.48644 12.4543 3.11829C12.381 2.75013 12.2003 2.41196 11.9349 2.14654C11.6694 1.88112 11.3313 1.70036 10.9631 1.62713C10.595 1.5539 10.2134 1.59149 9.86658 1.73513C9.51979 1.87878 9.22338 2.12204 9.01484 2.43414C8.80629 2.74624 8.69499 3.11318 8.69499 3.48854C8.69121 3.74016 8.73751 3.99002 8.8312 4.22358C8.92489 4.45713 9.06408 4.66973 9.2407 4.84899C9.41731 5.02825 9.6278 5.17059 9.85994 5.26775C10.0921 5.3649 10.3412 5.41492 10.5929 5.41489V5.38642ZM4.97515 5.38642C5.50481 5.3883 6.02312 5.23295 6.46443 4.94005C6.90575 4.64715 7.25021 4.22988 7.45421 3.74107C7.65821 3.25226 7.71256 2.71391 7.61038 2.19419C7.5082 1.67447 7.25408 1.19677 6.88022 0.821574C6.50635 0.446378 6.02955 0.190568 5.5102 0.0865423C4.99085 -0.0174834 4.45231 0.0349534 3.96278 0.237212C3.47325 0.439471 3.05475 0.782453 2.76029 1.22272C2.46582 1.66299 2.30864 2.18075 2.30863 2.71041C2.30487 3.06342 2.371 3.41369 2.50321 3.74103C2.63541 4.06837 2.83108 4.36631 3.07894 4.6177C3.3268 4.86909 3.62195 5.06895 3.94739 5.20577C4.27283 5.34258 4.62212 5.41366 4.97515 5.41489V5.38642Z" fill="white"/>
</g>
</svg>
