<svg width="23" height="27" viewBox="0 0 23 27" fill="none" xmlns="http://www.w3.org/2000/svg">
<path d="M22.276 5.10163L17.5627 0.390962C17.3142 0.142049 16.9774 0.00151085 16.6256 1.21106e-05C16.2739 -0.00148663 15.9359 0.136175 15.6853 0.382962L4.128 11.7603C3.94785 11.9386 3.82168 12.1641 3.764 12.411L2.39867 18.327L0 21.3336H3.77067L5.29333 19.8283L10.0773 18.7243C10.3173 18.6683 10.5373 18.547 10.7133 18.375L22.2693 6.99496C22.3947 6.87145 22.4945 6.72433 22.5627 6.56209C22.631 6.39985 22.6664 6.2257 22.6671 6.04968C22.6677 5.87367 22.6335 5.69927 22.5663 5.53655C22.4992 5.37384 22.4005 5.22602 22.276 5.10163ZM9.784 15.5456L6.956 12.719L16.6133 3.21096L19.44 6.03763L9.784 15.5456ZM0 24.0003H21.3333V26.667H0V24.0003Z" fill="#AAAAAA"/>
</svg>
