<svg width="8" height="8" viewBox="0 0 8 8" fill="none" xmlns="http://www.w3.org/2000/svg">
<path d="M1.16501 2.32945C1.39665 1.83223 1.77309 1.41657 2.24501 1.13695C2.77886 0.834002 3.38663 0.685955 4.00001 0.70945C4.55939 0.696961 5.11163 0.836964 5.59751 1.11445C6.04921 1.38636 6.41357 1.78196 6.64751 2.25445C6.89544 2.77895 7.01621 3.35453 7.00001 3.93445C7.01253 4.54382 6.8815 5.14759 6.61751 5.69695C6.37263 6.19341 5.98299 6.60397 5.50001 6.87445C4.99958 7.16472 4.42831 7.31013 3.85001 7.29445C3.27983 7.30979 2.71654 7.16702 2.22251 6.88195C1.76307 6.61502 1.3926 6.21846 1.15751 5.74195C0.898298 5.22594 0.76954 4.65426 0.782507 4.07695C0.775048 3.4729 0.905886 2.87515 1.16501 2.32945ZM2.31251 5.14195C2.44695 5.44232 2.65929 5.70127 2.92751 5.89195C3.20475 6.08385 3.53539 6.18357 3.87251 6.17695C4.23636 6.1928 4.59517 6.08727 4.89251 5.87695C5.15786 5.68896 5.36354 5.42861 5.48501 5.12695C5.61887 4.76739 5.68252 4.38549 5.67251 4.00195C5.67576 3.63484 5.61745 3.26978 5.50001 2.92195C5.39378 2.5997 5.19565 2.31554 4.93001 2.10445C4.64165 1.88612 4.28639 1.77477 3.92501 1.78945C3.57709 1.78019 3.23537 1.88271 2.95001 2.08195C2.67801 2.27052 2.46274 2.52987 2.32751 2.83195C2.17519 3.2028 2.10114 3.60113 2.11001 4.00195C2.10284 4.39149 2.17162 4.7787 2.31251 5.14195V5.14195Z" fill="white"/>
</svg>
