<svg width="14" height="18" viewBox="0 0 14 18" fill="none" xmlns="http://www.w3.org/2000/svg">
<g style="mix-blend-mode:multiply" opacity="0.12">
<path d="M13.5351 7.28112V11.5608C13.5351 11.9471 13.459 12.3297 13.3111 12.6866C13.1633 13.0435 12.9466 13.3678 12.6735 13.6409C12.4003 13.9141 12.076 14.1308 11.7191 14.2786C11.3622 14.4265 10.9797 14.5025 10.5934 14.5025C10.1738 14.5046 9.75907 14.4138 9.37871 14.2368C9.01012 15.1006 8.39682 15.8375 7.61441 16.3569C6.83201 16.8763 5.91471 17.1553 4.97564 17.1596C4.33553 17.1521 3.70318 17.0185 3.11478 16.7664C2.52637 16.5143 1.99348 16.1486 1.54659 15.6902C1.0997 15.2319 0.747604 14.6899 0.51045 14.0953C0.273295 13.5007 0.155742 12.8652 0.16452 12.2251V7.29061C0.163265 7.18389 0.183201 7.07798 0.223174 6.97902C0.263146 6.88007 0.322361 6.79003 0.397386 6.71412C0.47241 6.63821 0.561754 6.57795 0.660238 6.53682C0.758723 6.49569 0.864391 6.47452 0.971118 6.47452H12.738C12.8434 6.47452 12.9479 6.49545 13.0452 6.5361C13.1425 6.57675 13.2308 6.63631 13.305 6.71134C13.3791 6.78636 13.4376 6.87536 13.4771 6.97317C13.5166 7.07098 13.5363 7.17565 13.5351 7.28112ZM10.5934 5.38325C10.9687 5.38325 11.3357 5.27194 11.6478 5.0634C11.9599 4.85486 12.2031 4.55845 12.3468 4.21166C12.4904 3.86486 12.528 3.48326 12.4548 3.11511C12.3815 2.74696 12.2008 2.40879 11.9354 2.14337C11.6699 1.87795 11.3318 1.69719 10.9636 1.62396C10.5955 1.55073 10.2139 1.58831 9.86707 1.73196C9.52028 1.87561 9.22387 2.11886 9.01532 2.43097C8.80678 2.74307 8.69547 3.11001 8.69547 3.48537C8.6917 3.73699 8.738 3.98684 8.83169 4.2204C8.92537 4.45396 9.06457 4.66655 9.24118 4.84581C9.4178 5.02507 9.62829 5.16742 9.86043 5.26457C10.0926 5.36173 10.3417 5.41174 10.5934 5.41172V5.38325ZM4.97564 5.38325C5.5053 5.38512 6.02361 5.22978 6.46492 4.93688C6.90624 4.64398 7.2507 4.2267 7.4547 3.7379C7.6587 3.24909 7.71305 2.71074 7.61087 2.19102C7.50869 1.6713 7.25457 1.1936 6.88071 0.8184C6.50684 0.443204 6.03004 0.187394 5.51069 0.0833685C4.99134 -0.0206572 4.4528 0.0317796 3.96327 0.234038C3.47374 0.436297 3.05524 0.779279 2.76078 1.21955C2.46631 1.65982 2.30912 2.17757 2.30912 2.70724C2.30536 3.06025 2.37149 3.41051 2.5037 3.73785C2.6359 4.06519 2.83157 4.36314 3.07943 4.61453C3.32729 4.86591 3.62244 5.06577 3.94788 5.20259C4.27332 5.33941 4.62261 5.41048 4.97564 5.41172V5.38325Z" fill="white"/>
</g>
</svg>
