<svg width="14" height="18" viewBox="0 0 14 18" fill="none" xmlns="http://www.w3.org/2000/svg">
<g style="mix-blend-mode:multiply" opacity="0.2">
<path d="M13.5346 7.28503V11.5647C13.5346 11.9511 13.4585 12.3336 13.3106 12.6905C13.1628 13.0474 12.9461 13.3717 12.673 13.6448C12.3998 13.918 12.0755 14.1347 11.7186 14.2825C11.3617 14.4304 10.9792 14.5064 10.5929 14.5064C10.1734 14.5085 9.75858 14.4177 9.37822 14.2407C9.00964 15.1045 8.39633 15.8415 7.61392 16.3608C6.83152 16.8802 5.91423 17.1592 4.97515 17.1635C4.33505 17.156 3.70269 17.0224 3.11429 16.7703C2.52589 16.5182 1.99299 16.1525 1.5461 15.6941C1.09922 15.2358 0.747116 14.6938 0.509962 14.0992C0.272807 13.5046 0.155254 12.8691 0.164032 12.229V7.29452C0.162776 7.1878 0.182713 7.08189 0.222685 6.98293C0.262658 6.88397 0.321872 6.79393 0.396897 6.71802C0.471922 6.64212 0.561265 6.58185 0.65975 6.54072C0.758235 6.4996 0.863903 6.47842 0.97063 6.47843H12.7375C12.8429 6.47842 12.9474 6.49935 13.0447 6.54C13.142 6.58065 13.2303 6.64022 13.3045 6.71524C13.3786 6.79027 13.4371 6.87927 13.4766 6.97707C13.5161 7.07488 13.5358 7.17956 13.5346 7.28503ZM10.5929 5.38715C10.9682 5.38715 11.3352 5.27584 11.6473 5.0673C11.9594 4.85876 12.2026 4.56235 12.3463 4.21556C12.4899 3.86877 12.5275 3.48717 12.4543 3.11902C12.381 2.75087 12.2003 2.4127 11.9349 2.14727C11.6694 1.88185 11.3313 1.7011 10.9631 1.62787C10.595 1.55464 10.2134 1.59222 9.86658 1.73587C9.51979 1.87951 9.22338 2.12277 9.01484 2.43487C8.80629 2.74698 8.69499 3.11391 8.69499 3.48928C8.69121 3.74089 8.73751 3.99075 8.8312 4.22431C8.92489 4.45786 9.06408 4.67046 9.24069 4.84972C9.41731 5.02898 9.6278 5.17133 9.85994 5.26848C10.0921 5.36563 10.3412 5.41565 10.5929 5.41562V5.38715ZM4.97515 5.38715C5.50481 5.38903 6.02312 5.23368 6.46443 4.94078C6.90575 4.64789 7.25021 4.23061 7.45421 3.7418C7.65821 3.25299 7.71256 2.71464 7.61038 2.19493C7.5082 1.67521 7.25408 1.1975 6.88022 0.822306C6.50635 0.44711 6.02955 0.1913 5.5102 0.0872748C4.99085 -0.016751 4.45231 0.0356858 3.96278 0.237945C3.47325 0.440203 3.05475 0.783185 2.76029 1.22346C2.46582 1.66373 2.30864 2.18148 2.30863 2.71115C2.30487 3.06416 2.371 3.41442 2.50321 3.74176C2.63541 4.0691 2.83108 4.36705 3.07894 4.61843C3.3268 4.86982 3.62195 5.06968 3.94739 5.2065C4.27283 5.34332 4.62212 5.41439 4.97515 5.41562V5.38715Z" fill="white"/>
</g>
</svg>
