<svg width="10" height="12" viewBox="0 0 10 12" fill="none" xmlns="http://www.w3.org/2000/svg">
<g style="mix-blend-mode:multiply" opacity="0.24">
<path d="M8.98973 0.487061H0.971204C0.864477 0.487053 0.758809 0.508226 0.660325 0.549354C0.56184 0.590481 0.472497 0.650744 0.397472 0.726652C0.322447 0.802559 0.263233 0.892602 0.22326 0.99156C0.183287 1.09052 0.163351 1.19643 0.164607 1.30315V6.23763C0.164607 7.51361 0.67149 8.73734 1.57375 9.6396C2.47601 10.5419 3.69973 11.0487 4.97572 11.0487C6.25171 11.0487 7.47544 10.5419 8.3777 9.6396C9.27995 8.73734 9.78684 7.51361 9.78684 6.23763V1.30315C9.78937 1.19688 9.77062 1.09119 9.7317 0.992275C9.69277 0.893365 9.63446 0.803238 9.56019 0.727198C9.48592 0.651158 9.39719 0.59074 9.29922 0.5495C9.20125 0.50826 9.09603 0.48703 8.98973 0.487061V0.487061Z" fill="white"/>
</g>
</svg>
