<svg width="18" height="24" viewBox="0 0 18 24" fill="none" xmlns="http://www.w3.org/2000/svg">
<g style="mix-blend-mode:multiply" opacity="0.12">
<path d="M17.9752 10.2375V15.875C17.9752 16.3839 17.8749 16.8877 17.6802 17.3579C17.4855 17.828 17.2 18.2552 16.8402 18.615C16.4804 18.9748 16.0532 19.2603 15.5831 19.455C15.1129 19.6498 14.609 19.75 14.1002 19.75C13.5476 19.7526 13.0012 19.6331 12.5002 19.4C12.0146 20.5377 11.2068 21.5085 10.1761 22.1927C9.14549 22.8768 7.93718 23.2443 6.70016 23.25C5.85698 23.2402 5.02401 23.0642 4.24892 22.7321C3.47384 22.4 2.77188 21.9182 2.18321 21.3145C1.59454 20.7107 1.13074 19.9968 0.818343 19.2135C0.505949 18.4303 0.351101 17.5931 0.362664 16.75V10.25C0.36101 10.1094 0.387271 9.96989 0.439925 9.83954C0.49258 9.70918 0.570581 9.59058 0.669408 9.49059C0.768235 9.3906 0.885924 9.31121 1.01565 9.25704C1.14538 9.20286 1.28458 9.17497 1.42516 9.17498H16.9252C17.0641 9.17497 17.2017 9.20254 17.3299 9.25608C17.4581 9.30963 17.5744 9.38809 17.6721 9.48692C17.7697 9.58575 17.8468 9.70298 17.8989 9.83182C17.9509 9.96066 17.9768 10.0985 17.9752 10.2375V10.2375ZM14.1002 7.73748C14.5946 7.73748 15.078 7.59086 15.4891 7.31615C15.9002 7.04145 16.2206 6.651 16.4099 6.19419C16.5991 5.73737 16.6486 5.23471 16.5521 4.74975C16.4557 4.2648 16.2176 3.81934 15.8679 3.46971C15.5183 3.12008 15.0728 2.88198 14.5879 2.78552C14.1029 2.68905 13.6003 2.73856 13.1435 2.92778C12.6866 3.117 12.2962 3.43743 12.0215 3.84855C11.7468 4.25968 11.6002 4.74303 11.6002 5.23748C11.5952 5.56893 11.6562 5.89805 11.7796 6.20571C11.903 6.51336 12.0864 6.79341 12.319 7.02954C12.5516 7.26567 12.8289 7.45318 13.1347 7.58116C13.4405 7.70913 13.7687 7.77502 14.1002 7.77498V7.73748ZM6.70016 7.73748C7.39787 7.73995 8.08062 7.53532 8.66194 7.1495C9.24327 6.76367 9.69702 6.21401 9.96574 5.57012C10.2345 4.92624 10.306 4.21709 10.1715 3.53248C10.0369 2.84788 9.70212 2.21861 9.20964 1.72438C8.71716 1.23015 8.08909 0.893183 7.40497 0.756154C6.72085 0.619125 6.01145 0.688198 5.36661 0.954625C4.72177 1.22105 4.1705 1.67285 3.78261 2.2528C3.39473 2.83275 3.18767 3.51477 3.18766 4.21248C3.18271 4.67749 3.26982 5.13888 3.44397 5.57007C3.61812 6.00126 3.87587 6.39373 4.20236 6.72488C4.52886 7.05602 4.91765 7.31929 5.34633 7.49951C5.77502 7.67974 6.23513 7.77336 6.70016 7.77498V7.73748Z" fill="white"/>
</g>
</svg>
