<svg width="19" height="11" viewBox="0 0 19 11" fill="none" xmlns="http://www.w3.org/2000/svg">
<g style="mix-blend-mode:multiply" opacity="0.35">
<path d="M18.2498 0.442561L10.3448 5.25006L10.2323 5.31756C10.0684 5.39609 9.88907 5.43708 9.70733 5.43756C9.52319 5.43695 9.34143 5.39599 9.17483 5.31756C9.13572 5.29785 9.09812 5.27529 9.06233 5.25006L0.512328 0.45006C0.431626 0.406205 0.364487 0.341072 0.318207 0.261736C0.271928 0.1824 0.248278 0.0918959 0.249827 6.10352e-05V9.66006C0.250804 9.81336 0.282092 9.96495 0.341891 10.1061C0.40169 10.2473 0.488818 10.3752 0.59826 10.4826C0.707702 10.5899 0.837296 10.6746 0.979583 10.7316C1.12187 10.7887 1.27404 10.817 1.42733 10.8151H17.3123C17.4656 10.817 17.6178 10.7887 17.7601 10.7316C17.9024 10.6746 18.032 10.5899 18.1414 10.4826C18.2508 10.3752 18.338 10.2473 18.3978 10.1061C18.4576 9.96495 18.4889 9.81336 18.4898 9.66006V6.10352e-05C18.4923 0.0884096 18.4714 0.17584 18.4292 0.25353C18.3871 0.331221 18.3252 0.396425 18.2498 0.442561Z" fill="white"/>
</g>
</svg>
