<svg width="19" height="11" viewBox="0 0 19 11" fill="none" xmlns="http://www.w3.org/2000/svg">
<g style="mix-blend-mode:multiply" opacity="0.35">
<path d="M18.25 0.4425L10.345 5.25L10.2325 5.3175C10.0686 5.39603 9.88926 5.43702 9.70751 5.4375C9.52338 5.43689 9.34161 5.39593 9.17501 5.3175C9.13591 5.29779 9.0983 5.27523 9.06251 5.25L0.512511 0.449999C0.431809 0.406144 0.36467 0.341011 0.31839 0.261675C0.272111 0.182339 0.248461 0.0918349 0.250011 0V9.66C0.250987 9.8133 0.282275 9.96489 0.342074 10.106C0.401873 10.2472 0.489001 10.3751 0.598443 10.4825C0.707885 10.5898 0.83748 10.6745 0.979766 10.7316C1.12205 10.7886 1.27422 10.817 1.42751 10.815H17.3125C17.4658 10.817 17.618 10.7886 17.7603 10.7316C17.9025 10.6745 18.0321 10.5898 18.1416 10.4825C18.251 10.3751 18.3382 10.2472 18.3979 10.106C18.4577 9.96489 18.489 9.8133 18.49 9.66V0C18.4925 0.0883486 18.4716 0.175778 18.4294 0.253469C18.3873 0.33116 18.3254 0.396364 18.25 0.4425Z" fill="white"/>
</g>
</svg>
