<svg width="19" height="12" viewBox="0 0 19 12" fill="none" xmlns="http://www.w3.org/2000/svg">
<path d="M18.4901 6.00004C18.4917 5.91097 18.4697 5.82304 18.4262 5.74529C18.3827 5.66753 18.3193 5.60274 18.2426 5.55754L10.6601 0.750043H10.5476C10.3905 0.670917 10.2172 0.6297 10.0413 0.6297C9.86549 0.6297 9.6921 0.670917 9.53507 0.750043L9.42257 0.817543L1.17257 5.58754C1.09386 5.63116 1.02853 5.6954 0.983599 5.77337C0.938669 5.85133 0.915841 5.94007 0.917572 6.03004C0.916022 6.12188 0.939672 6.21238 0.985952 6.29172C1.03223 6.37105 1.09937 6.43619 1.18007 6.48004L9.43007 11.25L9.54257 11.3175C9.6996 11.3967 9.87298 11.4379 10.0488 11.4379C10.2247 11.4379 10.398 11.3967 10.5551 11.3175L10.6676 11.25L18.2501 6.45004C18.3266 6.40327 18.3892 6.33688 18.4314 6.25775C18.4736 6.17862 18.4939 6.08964 18.4901 6.00004Z" fill="#123B6D"/>
</svg>
