<svg width="10" height="12" viewBox="0 0 10 12" fill="none" xmlns="http://www.w3.org/2000/svg">
<path d="M8.98973 0.488281H0.971204C0.864477 0.488274 0.758809 0.509447 0.660325 0.550575C0.56184 0.591702 0.472497 0.651965 0.397472 0.727872C0.322447 0.80378 0.263233 0.893822 0.22326 0.992781C0.183287 1.09174 0.163351 1.19765 0.164607 1.30437V6.23885C0.164607 7.51483 0.67149 8.73856 1.57375 9.64082C2.47601 10.5431 3.69973 11.05 4.97572 11.05C6.25171 11.05 7.47544 10.5431 8.3777 9.64082C9.27995 8.73856 9.78684 7.51483 9.78684 6.23885V1.30437C9.78937 1.1981 9.77062 1.09241 9.7317 0.993496C9.69277 0.894585 9.63446 0.804459 9.56019 0.728419C9.48592 0.652379 9.39719 0.591961 9.29922 0.550721C9.20125 0.509481 9.09603 0.488251 8.98973 0.488281V0.488281Z" fill="#7B83EB"/>
</svg>
