<svg width="19" height="22" viewBox="0 0 19 22" fill="none" xmlns="http://www.w3.org/2000/svg">
<g style="mix-blend-mode:multiply" opacity="0.12">
<path d="M18.4898 11.0025V20.6625C18.4888 20.8158 18.4575 20.9674 18.3977 21.1085C18.3379 21.2497 18.2508 21.3776 18.1413 21.485C18.0319 21.5923 17.9023 21.677 17.76 21.7341C17.6177 21.7911 17.4655 21.8195 17.3123 21.8175H1.41976C1.26709 21.8185 1.11573 21.7894 0.974312 21.7319C0.832893 21.6744 0.704187 21.5896 0.595542 21.4823C0.486896 21.3751 0.400441 21.2475 0.341111 21.1068C0.281781 20.9661 0.250739 20.8152 0.249757 20.6625V11.0025C0.249573 11.0931 0.27387 11.182 0.320078 11.2599C0.366286 11.3378 0.432687 11.4017 0.512257 11.445L1.59226 12.045V1.3125C1.57795 1.0292 1.67645 0.751773 1.86621 0.540931C2.05597 0.330089 2.32152 0.203008 2.60476 0.1875H16.1048C16.388 0.203008 16.6535 0.330089 16.8433 0.540931C17.0331 0.751773 17.1316 1.0292 17.1173 1.3125V12.0525L18.2498 11.4525C18.3263 11.4057 18.3889 11.3393 18.4311 11.2602C18.4733 11.1811 18.4935 11.0921 18.4898 11.0025V11.0025Z" fill="white"/>
</g>
</svg>
