<svg width="18" height="24" viewBox="0 0 18 24" fill="none" xmlns="http://www.w3.org/2000/svg">
<g style="mix-blend-mode:multiply" opacity="0.12">
<path d="M17.975 10.2375V15.875C17.975 16.3839 17.8748 16.8877 17.6801 17.3579C17.4853 17.828 17.1999 18.2552 16.8401 18.615C16.4803 18.9748 16.0531 19.2603 15.5829 19.455C15.1128 19.6498 14.6089 19.75 14.1 19.75C13.5474 19.7526 13.0011 19.6331 12.5 19.4C12.0145 20.5377 11.2066 21.5085 10.176 22.1927C9.14537 22.8768 7.93705 23.2443 6.70004 23.25C5.85686 23.2402 5.02388 23.0642 4.2488 22.7321C3.47372 22.4 2.77176 21.9182 2.18309 21.3145C1.59442 20.7107 1.13062 19.9968 0.818221 19.2135C0.505827 18.4303 0.350978 17.5931 0.362541 16.75V10.25C0.360887 10.1094 0.387149 9.96989 0.439803 9.83954C0.492458 9.70918 0.570459 9.59058 0.669286 9.49059C0.768113 9.3906 0.885802 9.31121 1.01553 9.25704C1.14526 9.20286 1.28445 9.17497 1.42504 9.17498H16.925C17.064 9.17497 17.2016 9.20254 17.3298 9.25608C17.458 9.30963 17.5743 9.38809 17.672 9.48692C17.7696 9.58575 17.8467 9.70298 17.8987 9.83182C17.9508 9.96066 17.9767 10.0985 17.975 10.2375V10.2375ZM14.1 7.73748C14.5945 7.73748 15.0778 7.59086 15.489 7.31615C15.9001 7.04145 16.2205 6.651 16.4097 6.19419C16.599 5.73737 16.6485 5.23471 16.552 4.74975C16.4555 4.2648 16.2174 3.81934 15.8678 3.46971C15.5182 3.12008 15.0727 2.88198 14.5878 2.78552C14.1028 2.68905 13.6002 2.73856 13.1433 2.92778C12.6865 3.117 12.2961 3.43743 12.0214 3.84855C11.7467 4.25968 11.6 4.74303 11.6 5.23748C11.5951 5.56893 11.6561 5.89805 11.7795 6.20571C11.9029 6.51336 12.0862 6.79341 12.3189 7.02954C12.5515 7.26567 12.8288 7.45318 13.1346 7.58116C13.4404 7.70913 13.7686 7.77502 14.1 7.77498V7.73748ZM6.70004 7.73748C7.39775 7.73995 8.0805 7.53532 8.66182 7.1495C9.24315 6.76367 9.6969 6.21401 9.96562 5.57012C10.2343 4.92624 10.3059 4.21709 10.1713 3.53248C10.0367 2.84788 9.702 2.21861 9.20952 1.72438C8.71704 1.23015 8.08897 0.893183 7.40485 0.756154C6.72072 0.619125 6.01132 0.688198 5.36649 0.954625C4.72165 1.22105 4.17038 1.67285 3.78249 2.2528C3.3946 2.83275 3.18755 3.51477 3.18754 4.21248C3.18259 4.67749 3.2697 5.13888 3.44385 5.57007C3.618 6.00126 3.87574 6.39373 4.20224 6.72488C4.52873 7.05602 4.91752 7.31929 5.34621 7.49951C5.7749 7.67974 6.23501 7.77336 6.70004 7.77498V7.73748Z" fill="white"/>
</g>
</svg>
