<svg width="19" height="12" viewBox="0 0 19 12" fill="none" xmlns="http://www.w3.org/2000/svg">
<path d="M18.4901 5.99998C18.4917 5.9109 18.4697 5.82298 18.4262 5.74523C18.3827 5.66747 18.3194 5.60268 18.2426 5.55748L10.6601 0.749982H10.5476C10.3905 0.670856 10.2172 0.629639 10.0413 0.629639C9.86549 0.629639 9.6921 0.670856 9.53507 0.749982L9.42257 0.817482L1.17257 5.58748C1.09386 5.6311 1.02853 5.69534 0.983599 5.77331C0.938669 5.85127 0.915841 5.94001 0.917572 6.02998C0.916022 6.12182 0.939672 6.21232 0.985952 6.29166C1.03223 6.37099 1.09937 6.43613 1.18007 6.47998L9.43007 11.25L9.54257 11.3175C9.6996 11.3966 9.87298 11.4378 10.0488 11.4378C10.2247 11.4378 10.398 11.3966 10.5551 11.3175V11.3175L10.6676 11.25L18.2501 6.44998C18.3266 6.40321 18.3892 6.33682 18.4314 6.25769C18.4736 6.17856 18.4939 6.08958 18.4901 5.99998V5.99998Z" fill="#123B6D"/>
</svg>
