<svg width="19" height="12" viewBox="0 0 19 12" fill="none" xmlns="http://www.w3.org/2000/svg">
<path d="M18.4901 5.99925C18.4917 5.91017 18.4697 5.82225 18.4262 5.74449C18.3827 5.66674 18.3193 5.60194 18.2426 5.55675L10.6601 0.749249H10.5476C10.3905 0.670123 10.2172 0.628906 10.0413 0.628906C9.86549 0.628906 9.6921 0.670123 9.53507 0.749249L9.42257 0.81675L1.17257 5.58675C1.09386 5.63036 1.02853 5.69461 0.983599 5.77257C0.938669 5.85054 0.915841 5.93928 0.917572 6.02925C0.916022 6.12108 0.939672 6.21159 0.985952 6.29092C1.03223 6.37026 1.09937 6.43539 1.18007 6.47925L9.43007 11.2492L9.54257 11.3167C9.6996 11.3959 9.87298 11.4371 10.0488 11.4371C10.2247 11.4371 10.398 11.3959 10.5551 11.3167L10.6676 11.2492L18.2501 6.44925C18.3266 6.40248 18.3892 6.33609 18.4314 6.25696C18.4736 6.17783 18.4939 6.08885 18.4901 5.99925Z" fill="#123B6D"/>
</svg>
