<svg width="19" height="11" viewBox="0 0 19 11" fill="none" xmlns="http://www.w3.org/2000/svg">
<g style="mix-blend-mode:multiply" opacity="0.35">
<path d="M18.2501 0.442561L10.3451 5.25006L10.2326 5.31756C10.0687 5.39609 9.88932 5.43708 9.70757 5.43756C9.52344 5.43695 9.34167 5.39599 9.17507 5.31756C9.13597 5.29785 9.09837 5.27529 9.06257 5.25006L0.512572 0.45006C0.43187 0.406205 0.364731 0.341072 0.318451 0.261736C0.272172 0.1824 0.248522 0.0918959 0.250072 6.10352e-05V9.66006C0.251048 9.81336 0.282336 9.96495 0.342135 10.1061C0.401934 10.2473 0.489062 10.3752 0.598504 10.4826C0.707946 10.5899 0.837541 10.6746 0.979827 10.7316C1.12211 10.7887 1.27428 10.817 1.42757 10.8151H17.3126C17.4659 10.817 17.618 10.7887 17.7603 10.7316C17.9026 10.6746 18.0322 10.5899 18.1416 10.4826C18.2511 10.3752 18.3382 10.2473 18.398 10.1061C18.4578 9.96495 18.4891 9.81336 18.4901 9.66006V6.10352e-05C18.4925 0.0884096 18.4716 0.17584 18.4295 0.25353C18.3873 0.331221 18.3255 0.396425 18.2501 0.442561Z" fill="white"/>
</g>
</svg>
