<svg width="19" height="22" viewBox="0 0 19 22" fill="none" xmlns="http://www.w3.org/2000/svg">
<g style="mix-blend-mode:multiply" opacity="0.12">
<path d="M18.4898 11V20.66C18.4888 20.8133 18.4575 20.9649 18.3977 21.106C18.3379 21.2472 18.2508 21.3751 18.1413 21.4825C18.0319 21.5898 17.9023 21.6745 17.76 21.7316C17.6177 21.7886 17.4655 21.817 17.3123 21.815H1.41976C1.26709 21.816 1.11573 21.7869 0.974312 21.7294C0.832893 21.6719 0.704187 21.5871 0.595542 21.4798C0.486896 21.3726 0.400441 21.245 0.341111 21.1043C0.281781 20.9636 0.250739 20.8127 0.249757 20.66V11C0.249573 11.0906 0.27387 11.1795 0.320078 11.2574C0.366286 11.3353 0.432687 11.3992 0.512257 11.4425L1.59226 12.0425V1.31C1.57795 1.0267 1.67645 0.74927 1.86621 0.538428C2.05597 0.327586 2.32152 0.200505 2.60476 0.184998H16.1048C16.388 0.200505 16.6535 0.327586 16.8433 0.538428C17.0331 0.74927 17.1316 1.0267 17.1173 1.31V12.05L18.2498 11.45C18.3263 11.4032 18.3889 11.3368 18.4311 11.2577C18.4733 11.1786 18.4935 11.0896 18.4898 11V11Z" fill="white"/>
</g>
</svg>
