<svg width="19" height="12" viewBox="0 0 19 12" fill="none" xmlns="http://www.w3.org/2000/svg">
<path d="M18.4898 5.99974C18.4915 5.91066 18.4695 5.82274 18.426 5.74498C18.3825 5.66723 18.3191 5.60243 18.2423 5.55724L10.6598 0.749738H10.5473C10.3903 0.670612 10.2169 0.629395 10.0411 0.629395C9.86524 0.629395 9.69185 0.670612 9.53483 0.749738L9.42233 0.817238L1.17233 5.58724C1.09362 5.63085 1.02828 5.69509 0.983355 5.77306C0.938425 5.85103 0.915597 5.93977 0.917328 6.02974C0.915778 6.12157 0.939428 6.21208 0.985708 6.29141C1.03199 6.37075 1.09913 6.43588 1.17983 6.47974L9.42983 11.2497L9.54233 11.3172C9.69935 11.3964 9.87274 11.4376 10.0486 11.4376C10.2244 11.4376 10.3978 11.3964 10.5548 11.3172L10.6673 11.2497L18.2498 6.44974C18.3263 6.40297 18.389 6.33658 18.4312 6.25745C18.4734 6.17832 18.4936 6.08934 18.4898 5.99974Z" fill="#123B6D"/>
</svg>
