<svg width="19" height="11" viewBox="0 0 19 11" fill="none" xmlns="http://www.w3.org/2000/svg">
<g style="mix-blend-mode:multiply" opacity="0.06">
<path d="M18.2498 0.4425L10.3448 5.25L10.2323 5.3175C10.0684 5.39603 9.88907 5.43702 9.70733 5.4375C9.52319 5.43689 9.34143 5.39593 9.17483 5.3175V5.3175C9.13572 5.29779 9.09812 5.27523 9.06233 5.25L0.512328 0.449999C0.431626 0.406144 0.364487 0.341011 0.318207 0.261675C0.271928 0.182339 0.248278 0.0918349 0.249827 0V9.66C0.250804 9.8133 0.282092 9.96489 0.341891 10.106C0.40169 10.2472 0.488818 10.3751 0.59826 10.4825C0.707702 10.5898 0.837296 10.6745 0.979583 10.7316C1.12187 10.7886 1.27404 10.817 1.42733 10.815H17.3123C17.4656 10.817 17.6178 10.7886 17.7601 10.7316C17.9024 10.6745 18.032 10.5898 18.1414 10.4825C18.2508 10.3751 18.338 10.2472 18.3978 10.106C18.4576 9.96489 18.4889 9.8133 18.4898 9.66V0C18.4923 0.0883486 18.4714 0.175778 18.4292 0.253469C18.3871 0.33116 18.3252 0.396364 18.2498 0.4425V0.4425Z" fill="white"/>
</g>
</svg>
