<svg width="8" height="8" viewBox="0 0 8 8" fill="none" xmlns="http://www.w3.org/2000/svg">
<path d="M1.16489 2.32945C1.39653 1.83223 1.77297 1.41657 2.24489 1.13695C2.77874 0.834002 3.38651 0.685955 3.99988 0.70945C4.55927 0.696961 5.11151 0.836964 5.59738 1.11445C6.04908 1.38636 6.41345 1.78196 6.64738 2.25445C6.89532 2.77895 7.01608 3.35453 6.99988 3.93445C7.0124 4.54382 6.88137 5.14759 6.61738 5.69695C6.37251 6.19341 5.98287 6.60397 5.49988 6.87445C4.99946 7.16472 4.42819 7.31013 3.84988 7.29445C3.27971 7.30979 2.71642 7.16702 2.22238 6.88195C1.76294 6.61502 1.39248 6.21846 1.15738 5.74195C0.898176 5.22594 0.769418 4.65426 0.782385 4.07695C0.774926 3.4729 0.905764 2.87515 1.16489 2.32945ZM2.31239 5.14195C2.44683 5.44232 2.65917 5.70127 2.92738 5.89195C3.20463 6.08385 3.53527 6.18357 3.87238 6.17695C4.23624 6.1928 4.59505 6.08727 4.89239 5.87695C5.15774 5.68896 5.36342 5.42861 5.48488 5.12695C5.61875 4.76739 5.6824 4.38549 5.67238 4.00195C5.67564 3.63484 5.61733 3.26978 5.49988 2.92195C5.39366 2.5997 5.19553 2.31554 4.92988 2.10445C4.64153 1.88612 4.28627 1.77477 3.92488 1.78945C3.57697 1.78019 3.23525 1.88271 2.94989 2.08195C2.67788 2.27052 2.46262 2.52987 2.32739 2.83195C2.17506 3.2028 2.10101 3.60113 2.10989 4.00195C2.10272 4.39149 2.1715 4.7787 2.31239 5.14195V5.14195Z" fill="white"/>
</svg>
