<svg width="32" height="32" viewBox="0 0 32 32" fill="none" xmlns="http://www.w3.org/2000/svg">
<path d="M16.621 2.32617H18.521V4.87317C21.497 4.98717 24.509 4.63117 27.463 5.07317C27.563 5.41017 27.679 5.74417 27.791 6.07317C28.541 6.20717 29.75 6.11417 29.868 7.13217C30.0333 8.998 30.0172 10.8754 29.82 12.7382C30.0602 14.7195 30.0411 16.7238 29.763 18.7002C30.0378 20.5279 30.0714 22.3837 29.863 24.2202C29.726 25.2092 28.553 25.1392 27.812 25.2792C27.7746 25.8132 27.6467 26.3369 27.434 26.8282C26.8305 27.0931 26.1685 27.1965 25.513 27.1282C23.182 27.1062 20.851 27.1152 18.523 27.1152V29.6622H16.532C11.7 28.7872 6.846 27.9762 2 27.1302V4.87617C6.875 4.02717 11.75 3.19417 16.621 2.32617V2.32617Z" fill="#733781"/>
<path d="M18.523 5.8208H26.794V7.0868C27.525 7.0868 28.257 7.1028 28.994 7.1348C29.035 8.8078 29.051 10.4798 28.981 12.1528C28.253 12.1778 27.521 12.1908 26.796 12.1938V26.1788H18.525V23.6288H24.567V22.3628H18.525V20.7628H24.567V19.4968H18.525V17.8998H24.567V16.6338H18.525V15.0338H24.564V13.7678H18.522V12.1678H24.564V10.9018H18.522V9.3018H24.564V8.0358H18.522V5.8208H18.523ZM11.826 10.6668C12.459 10.6318 13.095 10.5968 13.734 10.5668V21.0998C13.047 21.0708 12.367 21.0328 11.686 20.9998C10.42 18.5668 9.05003 16.1888 7.82603 13.7338C7.89603 16.0868 7.85503 18.4438 7.86103 20.7968C7.28203 20.7588 6.71003 20.7238 6.13403 20.6888C6.14337 17.4581 6.14337 14.2248 6.13403 10.9888L8.09903 10.8888C9.34203 13.1658 10.605 15.4328 11.813 17.7318C11.839 15.3768 11.813 13.0198 11.826 10.6668V10.6668Z" fill="white"/>
<path d="M27.742 13.1221C28.155 13.1381 28.569 13.1571 28.985 13.1761C29.0457 14.8463 29.0424 16.5181 28.975 18.1881C28.562 18.2071 28.151 18.2261 27.741 18.2421C27.7384 16.5341 27.7387 14.8274 27.742 13.1221V13.1221ZM27.742 19.1611C28.155 19.1801 28.572 19.2021 28.992 19.2251C29.0385 20.8877 29.0385 22.5514 28.992 24.2141L27.742 24.2901C27.7387 22.5794 27.7387 20.8697 27.742 19.1611Z" fill="white"/>
</svg>
